<svg width="1919" height="458" viewBox="0 0 1919 458" fill="none" xmlns="http://www.w3.org/2000/svg">
<path d="M1919 174.924C1909.1 183.66 1898.45 190.588 1887.3 195.535C1857.86 208.581 1834.15 203.255 1803.99 197.234C1686.56 173.457 1689.21 179.711 1671.68 168.132C1646.42 151.38 1638.6 137.253 1600.61 114.944C1583.9 105.214 1566.71 97.1901 1549.17 90.9363L1481.52 142.27C1431.9 127.989 1379.14 110.003 1323.73 87.462C1257.24 60.4436 1196.27 30.4922 1141.19 0C1123.17 10.4056 1106.27 24.2516 1090.96 41.1448C1064.72 70.1702 1058.49 91.553 1034.56 113.168C1014.49 131.386 996.797 136.327 977.005 142.348C943.594 152.692 896.566 168.749 831.234 195.535C801.793 187.816 776.102 182.336 756.474 178.707C713.526 170.988 694.174 170.988 652.329 163.268C622.833 157.787 597.858 151.457 578.837 146.13C543.221 154.416 506.062 161.852 467.359 168.44C433.691 174.101 401.016 178.655 369.333 182.104L286.028 127.218L235.802 146.13L112.029 67.1596L-0.000305176 153.001V361.674L977.005 458.309H1919V174.924Z" fill="#89C0BB"/>
</svg>
