<svg width="170" height="34" viewBox="0 0 170 34" fill="none" xmlns="http://www.w3.org/2000/svg">
<g clip-path="url(#clip0_1435_1219)">
<mask id="mask0_1435_1219" style="mask-type:luminance" maskUnits="userSpaceOnUse" x="0" y="0" width="170" height="34">
<path d="M170 0H0V34H170V0Z" fill="white"/>
</mask>
<g mask="url(#mask0_1435_1219)">
<path d="M34.5106 0L36.7557 6.90983H44.0212L38.1433 11.1803L40.3885 18.0902L34.5106 13.8197L28.6327 18.0902L30.8779 11.1803L25 6.90983H32.2655L34.5106 0Z" fill="#FFB900"/>
<path d="M59.5106 0L61.7557 6.90983H69.0212L63.1433 11.1803L65.3885 18.0902L59.5106 13.8197L53.6327 18.0902L55.8779 11.1803L50 6.90983H57.2655L59.5106 0Z" fill="#FFB900"/>
<path d="M84.5088 0L86.7538 6.90983H94.0198L88.1418 11.1803L90.3868 18.0902L84.5088 13.8197L78.6308 18.0902L80.8758 11.1803L74.9978 6.90983H82.2638L84.5088 0Z" fill="#FFB900"/>
<path d="M109.509 0L111.754 6.90983H119.02L113.142 11.1803L115.387 18.0902L109.509 13.8197L103.631 18.0902L105.876 11.1803L99.9978 6.90983H107.264L109.509 0Z" fill="#FFB900"/>
<path d="M134.509 0L136.754 6.90983H144.02L138.142 11.1803L140.387 18.0902L134.509 13.8197L128.631 18.0902L130.876 11.1803L124.998 6.90983H132.264L134.509 0Z" fill="#FFB900"/>
<path fill-rule="evenodd" clip-rule="evenodd" d="M8.83098 3C8.67345 3.00118 8.47583 3.00322 8.20726 3.00649C7.7786 3.01781 7.45339 3.04374 7.13469 3.10035C6.74635 3.16923 6.39477 3.28259 6.05863 3.45191C5.71703 3.62358 5.4042 3.84822 5.13279 4.11681C4.86168 4.38453 4.63417 4.69409 4.45967 5.03282C4.28817 5.36588 4.17332 5.71428 4.10301 6.10005C4.0456 6.41582 4.01955 6.73674 4.00816 7.15627L4.00426 7.33105C4.00322 7.39105 4.00242 7.45315 4.00186 7.51851L4 7.89816L4.00002 14.1074L4.00118 14.3782C4.00207 14.5506 4.00421 14.699 4.00816 14.8415C4.01958 15.2607 4.04562 15.5817 4.10299 15.897C4.17334 16.2831 4.28821 16.6317 4.45965 16.9646C4.63422 17.3031 4.86163 17.6126 5.13297 17.8808C5.40465 18.1494 5.7175 18.3741 6.05903 18.5458C6.39477 18.7149 6.74635 18.8282 7.13483 18.8971C7.42443 18.9486 7.71952 18.9747 8.08778 18.9874L8.36376 18.9942C8.50726 18.9962 8.71936 18.9973 9.1428 18.9986L15.1475 18.9976C15.3067 18.9966 15.499 18.9946 15.7928 18.991C16.2215 18.9796 16.5467 18.9537 16.8654 18.8971C17.2538 18.8282 17.6053 18.7149 17.9415 18.5456C18.2827 18.3739 18.5957 18.1491 18.8671 17.8808C19.1387 17.6124 19.3661 17.3028 19.5402 16.9645C19.7119 16.6317 19.8268 16.2829 19.8969 15.8968C19.9491 15.61 19.9756 15.3176 19.9885 14.9529L19.992 14.8412C19.9943 14.7559 19.996 14.6683 19.9972 14.5748L20 13.8388L19.9996 7.75207L19.9972 7.42267C19.996 7.32914 19.9943 7.2415 19.9919 7.15597C19.9806 6.73846 19.9543 6.41624 19.8969 6.10026C19.8269 5.71445 19.7119 5.36581 19.54 5.03258C19.3661 4.69439 19.1386 4.38469 18.8669 4.11643C18.5962 3.84848 18.2832 3.62379 17.9412 3.45179C17.6053 3.28259 17.2538 3.16923 16.8653 3.10033C16.5757 3.04889 16.2806 3.02278 15.9123 3.01005L15.5954 3.0028C15.5702 3.00249 15.5429 3.00221 15.5129 3.00195L8.83098 3Z" fill="#1A1A1A" fill-opacity="0.01"/>
<path fill-rule="evenodd" clip-rule="evenodd" d="M8.21301 3.47536L8.85714 3.46875L15.5591 3.47134C15.6607 3.47237 15.7239 3.47364 15.7871 3.47536C16.1194 3.48418 16.4545 3.50364 16.7831 3.56202C17.1167 3.62117 17.4269 3.71795 17.7298 3.87052C18.0274 4.02021 18.3001 4.21584 18.5363 4.44963C18.7725 4.68285 18.9704 4.95217 19.1218 5.24665C19.2764 5.54632 19.374 5.853 19.4339 6.18277C19.4929 6.5076 19.5126 6.83892 19.5215 7.16739C19.5257 7.31812 19.5276 7.46888 19.5283 7.61987L19.5293 7.88832L19.5294 13.8371C19.5294 14.0162 19.5294 14.1952 19.5283 14.3745C19.5276 14.5252 19.5257 14.676 19.5215 14.8267C19.5126 15.1549 19.4929 15.4865 19.4339 15.8111C19.374 16.1408 19.2764 16.4478 19.1218 16.7475C18.9704 17.0417 18.7725 17.311 18.5363 17.5445C18.3001 17.778 18.0274 17.9739 17.7298 18.1236C17.4269 18.2762 17.1167 18.3729 16.7831 18.4321C16.4545 18.4905 16.1194 18.5099 15.7871 18.5187L14.7861 18.5265L8.44083 18.5228C8.3392 18.5217 8.27612 18.5205 8.21301 18.5187C7.88075 18.5099 7.54559 18.4905 7.217 18.4321C6.88345 18.3729 6.57323 18.2762 6.27036 18.1236C5.97248 17.9739 5.70005 17.778 5.46384 17.5445C5.22764 17.311 5.02974 17.0417 4.87804 16.7475C4.72373 16.4478 4.62609 16.1408 4.56599 15.8111C4.50693 15.4865 4.48752 15.1549 4.4786 14.8267C4.47439 14.676 4.47256 14.5252 4.47178 14.3745L4.47063 14.1057L4.47046 8.15695C4.47046 7.97792 4.47046 7.79864 4.47178 7.61987C4.47256 7.46888 4.47439 7.31812 4.4786 7.16739C4.48752 6.83892 4.50693 6.5076 4.56599 6.18277C4.62609 5.853 4.72373 5.54632 4.87804 5.24665C5.02974 4.95217 5.22764 4.68285 5.46384 4.44963C5.70005 4.21584 5.97248 4.02021 6.27036 3.87052C6.57323 3.71795 6.88345 3.62117 7.217 3.56202C7.54559 3.50364 7.88075 3.48418 8.21301 3.47536Z" fill="#1A1A1A" fill-opacity="0.01"/>
<mask id="mask1_1435_1219" style="mask-type:alpha" maskUnits="userSpaceOnUse" x="4" y="3" width="16" height="16">
<path fill-rule="evenodd" clip-rule="evenodd" d="M8.21301 3.47536L8.85714 3.46875L15.5591 3.47134C15.6607 3.47237 15.7239 3.47364 15.7871 3.47536C16.1194 3.48418 16.4545 3.50364 16.7831 3.56202C17.1167 3.62117 17.4269 3.71795 17.7298 3.87052C18.0274 4.02021 18.3001 4.21584 18.5363 4.44963C18.7725 4.68285 18.9704 4.95217 19.1218 5.24665C19.2764 5.54632 19.374 5.853 19.4339 6.18277C19.4929 6.5076 19.5126 6.83892 19.5215 7.16739C19.5257 7.31812 19.5276 7.46888 19.5283 7.61987L19.5293 7.88832L19.5294 13.8371C19.5294 14.0162 19.5294 14.1952 19.5283 14.3745C19.5276 14.5252 19.5257 14.676 19.5215 14.8267C19.5126 15.1549 19.4929 15.4865 19.4339 15.8111C19.374 16.1408 19.2764 16.4478 19.1218 16.7475C18.9704 17.0417 18.7725 17.311 18.5363 17.5445C18.3001 17.778 18.0274 17.9739 17.7298 18.1236C17.4269 18.2762 17.1167 18.3729 16.7831 18.4321C16.4545 18.4905 16.1194 18.5099 15.7871 18.5187L14.7861 18.5265L8.44083 18.5228C8.3392 18.5217 8.27612 18.5205 8.21301 18.5187C7.88075 18.5099 7.54559 18.4905 7.217 18.4321C6.88345 18.3729 6.57323 18.2762 6.27036 18.1236C5.97248 17.9739 5.70005 17.778 5.46384 17.5445C5.22764 17.311 5.02974 17.0417 4.87804 16.7475C4.72373 16.4478 4.62609 16.1408 4.56599 15.8111C4.50693 15.4865 4.48752 15.1549 4.4786 14.8267C4.47439 14.676 4.47256 14.5252 4.47178 14.3745L4.47063 14.1057L4.47046 8.15695C4.47046 7.97792 4.47046 7.79864 4.47178 7.61987C4.47256 7.46888 4.47439 7.31812 4.4786 7.16739C4.48752 6.83892 4.50693 6.5076 4.56599 6.18277C4.62609 5.853 4.72373 5.54632 4.87804 5.24665C5.02974 4.95217 5.22764 4.68285 5.46384 4.44963C5.70005 4.21584 5.97248 4.02021 6.27036 3.87052C6.57323 3.71795 6.88345 3.62117 7.217 3.56202C7.54559 3.50364 7.88075 3.48418 8.21301 3.47536Z" fill="white"/>
</mask>
<g mask="url(#mask1_1435_1219)">
<path d="M19.5294 3.46875H4.47046V18.5277H19.5294V3.46875Z" fill="#19AA1E"/>
<path fill-rule="evenodd" clip-rule="evenodd" d="M4.47046 3.46875H19.5294V8.40997L4.47046 6.05701V3.46875Z" fill="#FFB919"/>
<path fill-rule="evenodd" clip-rule="evenodd" d="M4.47046 16.8841L19.5294 14.5312V18.5312H4.47046V16.8841Z" fill="#82D714"/>
<path fill-rule="evenodd" clip-rule="evenodd" d="M4.47046 5.75781L9.72691 6.57911C10.3812 6.16492 11.1597 5.93783 11.9999 5.93783C13.1637 5.93783 14.209 6.37348 14.9701 7.13848C15.0661 7.23502 15.1567 7.33596 15.2416 7.44079L19.5294 8.11074V8.70611L15.677 8.1042C15.9632 8.65343 16.1176 9.26537 16.1176 9.88987C16.1176 10.6967 15.9371 11.5011 15.5641 12.3087L15.5528 12.3332L15.3943 12.6727H15.0197C14.2461 12.6727 13.733 12.9041 13.3975 13.3142C13.134 13.6362 12.9817 14.0703 12.9305 14.5439L12.9289 14.5587L12.9214 14.6344L12.9182 14.6673L12.9121 14.7317C12.8925 14.9431 12.8794 15.1224 12.8727 15.2686L19.5294 14.2285V14.8238L4.47046 17.1768V16.5814L11.1346 15.5401L11.1317 15.4065L11.1308 15.3688L11.1303 15.3495L11.1292 15.3196C11.1232 15.1576 11.1084 14.9498 11.0846 14.698L11.08 14.6503L11.0719 14.5676C11.024 14.0915 10.874 13.6519 10.6113 13.3251C10.2793 12.9122 9.77086 12.6774 9.00349 12.6727H8.98017H8.60553L8.44711 12.3332C8.06638 11.5173 7.88226 10.7048 7.88226 9.88987C7.88226 8.86503 8.29803 7.87404 9.02982 7.13848C9.05095 7.11725 9.07229 7.09627 9.09384 7.07556L4.47046 6.35315V5.75781Z" fill="white"/>
<path fill-rule="evenodd" clip-rule="evenodd" d="M11.9999 6.53125C14.1023 6.53125 15.5294 8.14945 15.5294 9.89504C15.5294 10.5958 15.3765 11.325 15.0197 12.0895C12.951 12.0895 12.4403 13.5711 12.3438 14.5032L12.3376 14.5653C12.3049 14.898 12.286 15.165 12.2808 15.3662L11.7205 15.4537L11.7203 15.4356C11.7182 15.2247 11.6983 14.9288 11.6605 14.5479L11.6589 14.5313C11.5697 13.6011 11.0698 12.0895 8.98017 12.0895C8.62339 11.325 8.47049 10.5958 8.47049 9.89504C8.47049 8.14945 9.89756 6.53125 11.9999 6.53125Z" fill="#0073FA"/>
</g>
<path d="M5 32.1124V25.3016H7.45795C8.01456 25.3016 8.49301 25.3957 8.89332 25.5838C9.29363 25.7654 9.60003 26.0314 9.81271 26.3816C10.0316 26.7254 10.1411 27.1438 10.1411 27.6368C10.1411 28.1167 10.0316 28.5319 9.81271 28.8822C9.60003 29.2259 9.29363 29.4919 8.89332 29.68C8.49301 29.8681 8.01456 29.9622 7.45795 29.9622H5.38464L5.69423 29.6216V32.1124H5ZM5.69423 29.68L5.38464 29.3297H7.43919C8.0959 29.3297 8.59312 29.1838 8.93085 28.8919C9.27487 28.5935 9.44683 28.1751 9.44683 27.6368C9.44683 27.0919 9.27487 26.6703 8.93085 26.3719C8.59312 26.0735 8.0959 25.9243 7.43919 25.9243H5.38464L5.69423 25.5838V29.68ZM13.4836 32.1611C12.9707 32.1611 12.5204 32.0508 12.1327 31.8303C11.7449 31.6033 11.4415 31.2951 11.2227 30.9059C11.0038 30.5102 10.8943 30.0595 10.8943 29.5535C10.8943 29.0476 10.9975 28.6 11.2039 28.2108C11.4166 27.8216 11.7042 27.5168 12.067 27.2962C12.436 27.0692 12.8488 26.9557 13.3054 26.9557C13.7681 26.9557 14.1778 27.0659 14.5343 27.2865C14.8971 27.5005 15.1816 27.8054 15.388 28.2011C15.5944 28.5903 15.6976 29.041 15.6976 29.5535C15.6976 29.5859 15.6945 29.6216 15.6882 29.6605C15.6882 29.6929 15.6882 29.7286 15.6882 29.7676H11.4009V29.2519H15.3318L15.0691 29.4562C15.0691 29.0865 14.9909 28.7589 14.8345 28.4735C14.6844 28.1816 14.478 27.9546 14.2154 27.7924C13.9527 27.6302 13.6494 27.5492 13.3054 27.5492C12.9676 27.5492 12.6643 27.6302 12.3953 27.7924C12.1264 27.9546 11.9169 28.1816 11.7668 28.4735C11.6167 28.7654 11.5416 29.0994 11.5416 29.4757V29.5827C11.5416 29.9719 11.623 30.3156 11.7855 30.6141C11.9544 30.9059 12.1859 31.1362 12.4798 31.3049C12.78 31.4671 13.1208 31.5481 13.5024 31.5481C13.8026 31.5481 14.0809 31.4929 14.3373 31.3827C14.6 31.2725 14.8252 31.1038 15.0128 30.8768L15.388 31.3243C15.1692 31.5968 14.8939 31.8043 14.5625 31.947C14.2372 32.0898 13.8776 32.1611 13.4836 32.1611ZM17.172 32.1124V27.0043H17.8381V31.0616L21.131 27.0043H21.7221V32.1124H21.056V28.0454L17.7724 32.1124H17.172ZM19.4048 26.2649C18.992 26.2649 18.6575 26.1578 18.401 25.9438C18.1509 25.7232 18.0196 25.4086 18.007 25H18.4854C18.4917 25.2595 18.5793 25.4638 18.7481 25.613C18.917 25.7621 19.136 25.8368 19.4048 25.8368C19.6738 25.8368 19.8927 25.7621 20.0615 25.613C20.2367 25.4638 20.3274 25.2595 20.3336 25H20.8121C20.8059 25.4086 20.6745 25.7232 20.418 25.9438C20.1616 26.1578 19.8239 26.2649 19.4048 26.2649ZM24.5692 32.1124V27.4227L24.738 27.6076H22.7022V27.0043H27.1022V27.6076H25.0664L25.2352 27.4227V32.1124H24.5692ZM28.0653 32.1124V27.0043H28.7314V31.0616L32.0243 27.0043H32.6153V32.1124H31.9492V28.0454L28.6657 32.1124H28.0653ZM34.5241 32.1124V27.0043H35.1902V29.2616H38.2955V27.0043H38.9616V32.1124H38.2955V29.8551H35.1902V32.1124H34.5241ZM40.8549 32.1124V27.0043H44.3448V27.6076H41.3521L41.521 27.4324V32.1124H40.8549ZM49.7892 32.1611C49.3138 32.1611 48.8854 32.0508 48.5039 31.8303C48.1286 31.6033 47.8315 31.2951 47.6127 30.9059C47.3937 30.5102 47.2843 30.0595 47.2843 29.5535C47.2843 29.041 47.3937 28.5903 47.6127 28.2011C47.8315 27.8119 48.1286 27.5071 48.5039 27.2865C48.8792 27.0659 49.3075 26.9557 49.7892 26.9557C50.277 26.9557 50.7086 27.0659 51.0838 27.2865C51.4653 27.5071 51.7624 27.8119 51.9751 28.2011C52.1939 28.5903 52.3034 29.041 52.3034 29.5535C52.3034 30.0595 52.1939 30.5102 51.9751 30.9059C51.7624 31.2951 51.4653 31.6033 51.0838 31.8303C50.7023 32.0508 50.2707 32.1611 49.7892 32.1611ZM49.7892 31.5481C50.1457 31.5481 50.4614 31.4671 50.7367 31.3049C51.0119 31.1362 51.2276 30.9027 51.384 30.6043C51.5466 30.2995 51.6279 29.9492 51.6279 29.5535C51.6279 29.1514 51.5466 28.8011 51.384 28.5027C51.2276 28.2043 51.0119 27.9741 50.7367 27.8119C50.4614 27.6433 50.1488 27.5589 49.7985 27.5589C49.4482 27.5589 49.1356 27.6433 48.8604 27.8119C48.5851 27.9741 48.3663 28.2043 48.2037 28.5027C48.041 28.8011 47.9598 29.1514 47.9598 29.5535C47.9598 29.9492 48.041 30.2995 48.2037 30.6043C48.3663 30.9027 48.5851 31.1362 48.8604 31.3049C49.1356 31.4671 49.4451 31.5481 49.7892 31.5481ZM56.2693 32.1611C55.844 32.1611 55.4594 32.0606 55.1154 31.8595C54.7714 31.6519 54.4962 31.3567 54.2898 30.9741C54.0896 30.5849 53.9896 30.1113 53.9896 29.5535C53.9896 28.9957 54.0896 28.5254 54.2898 28.1427C54.49 27.7535 54.762 27.4584 55.106 27.2573C55.45 27.0562 55.8378 26.9557 56.2693 26.9557C56.7384 26.9557 57.1574 27.0659 57.5265 27.2865C57.9017 27.5005 58.1956 27.8054 58.4083 28.2011C58.6209 28.5903 58.7273 29.041 58.7273 29.5535C58.7273 30.0724 58.6209 30.5265 58.4083 30.9157C58.1956 31.3049 57.9017 31.6097 57.5265 31.8303C57.1574 32.0508 56.7384 32.1611 56.2693 32.1611ZM53.727 34V27.0043H54.3649V28.5416L54.2992 29.5632L54.393 30.5946V34H53.727ZM56.2224 31.5481C56.5727 31.5481 56.8853 31.4671 57.1606 31.3049C57.4357 31.1362 57.6546 30.9027 57.8173 30.6043C57.9799 30.2995 58.0612 29.9492 58.0612 29.5535C58.0612 29.1578 57.9799 28.8108 57.8173 28.5124C57.6546 28.214 57.4357 27.9805 57.1606 27.8119C56.8853 27.6433 56.5727 27.5589 56.2224 27.5589C55.8721 27.5589 55.5564 27.6433 55.2749 27.8119C54.9997 27.9805 54.7808 28.214 54.6182 28.5124C54.4618 28.8108 54.3837 29.1578 54.3837 29.5535C54.3837 29.9492 54.4618 30.2995 54.6182 30.6043C54.7808 30.9027 54.9997 31.1362 55.2749 31.3049C55.5564 31.4671 55.8721 31.5481 56.2224 31.5481ZM60.1584 32.1124V27.0043H63.6483V27.6076H60.6556L60.8244 27.4324V32.1124H60.1584ZM67.6693 32.1124V30.9838L67.6411 30.7989V28.9114C67.6411 28.4767 67.5224 28.1427 67.2846 27.9092C67.0533 27.6757 66.7062 27.5589 66.2433 27.5589C65.9243 27.5589 65.621 27.6141 65.3333 27.7243C65.0456 27.8346 64.8017 27.9805 64.6015 28.1622L64.3013 27.6465C64.5515 27.4259 64.8517 27.2573 65.2019 27.1405C65.5522 27.0173 65.9212 26.9557 66.309 26.9557C66.9469 26.9557 67.4379 27.1211 67.7819 27.4519C68.1322 27.7762 68.3072 28.2724 68.3072 28.9405V32.1124H67.6693ZM65.9712 32.1611C65.6022 32.1611 65.2802 32.0995 65.0049 31.9762C64.7361 31.8465 64.5297 31.6714 64.3858 31.4508C64.2419 31.2238 64.17 30.9643 64.17 30.6724C64.17 30.4065 64.2295 30.1665 64.3482 29.9524C64.4734 29.7319 64.6735 29.5567 64.9486 29.427C65.2301 29.2908 65.6053 29.2227 66.0744 29.2227H67.7725V29.7384H66.0932C65.6179 29.7384 65.2864 29.8259 65.0987 30.0011C64.9174 30.1762 64.8267 30.3935 64.8267 30.653C64.8267 30.9449 64.9362 31.1784 65.155 31.3535C65.374 31.5286 65.6804 31.6162 66.0744 31.6162C66.4497 31.6162 66.7718 31.5286 67.0407 31.3535C67.316 31.1719 67.5161 30.9125 67.6411 30.5751L67.7912 31.0519C67.6662 31.3892 67.4473 31.6583 67.1345 31.8595C66.8281 32.0606 66.4403 32.1611 65.9712 32.1611ZM70.0804 32.1124V27.0043H70.7465V29.2616H73.8518V27.0043H74.5179V32.1124H73.8518V29.8551H70.7465V32.1124H70.0804ZM76.4111 32.1124V27.0043H77.0771V31.0616L80.37 27.0043H80.9611V32.1124H80.295V28.0454L77.0115 32.1124H76.4111ZM84.0917 32.1708C83.7352 32.1708 83.3825 32.119 83.0316 32.0151C82.6817 31.9113 82.3721 31.7524 82.1028 31.5384L82.3186 31.0227C82.5569 31.2044 82.8317 31.3438 83.1442 31.4411C83.4575 31.5319 83.7671 31.5773 84.0729 31.5773C84.3797 31.5708 84.6452 31.5254 84.8704 31.4411C85.0955 31.3567 85.2709 31.24 85.3957 31.0908C85.5214 30.9417 85.5833 30.7729 85.5833 30.5849C85.5833 30.3124 85.4651 30.1016 85.2268 29.9524C84.9895 29.7968 84.664 29.7189 84.2512 29.7189H83.4068V29.213H84.2043C84.4482 29.213 84.664 29.1806 84.8516 29.1157C85.0392 29.0508 85.1837 28.9568 85.2831 28.8335C85.3901 28.7102 85.4426 28.5643 85.4426 28.3957C85.4426 28.214 85.3807 28.0583 85.255 27.9286C85.1368 27.799 84.9707 27.7017 84.7578 27.6368C84.5458 27.5719 84.3046 27.5395 84.0354 27.5395C83.7915 27.546 83.5382 27.5849 83.2755 27.6562C83.0128 27.7211 82.7539 27.8216 82.4968 27.9578L82.3092 27.4227C82.5972 27.267 82.8815 27.1503 83.1629 27.0724C83.4509 26.9881 83.7389 26.9459 84.026 26.9459C84.42 26.933 84.7737 26.9817 85.0861 27.0919C85.4051 27.2021 85.6584 27.3611 85.846 27.5686C86.0337 27.7698 86.1275 28.013 86.1275 28.2984C86.1275 28.5514 86.0524 28.7719 85.9023 28.96C85.7522 29.1481 85.5524 29.294 85.3019 29.3978C85.0524 29.5017 84.7672 29.5535 84.4482 29.5535L84.4763 29.3686C85.0392 29.3686 85.4773 29.4822 85.7897 29.7092C86.1087 29.9362 86.2682 30.2443 86.2682 30.6335C86.2682 30.9383 86.1716 31.2076 85.9774 31.4411C85.7841 31.6681 85.5214 31.8465 85.1893 31.9762C84.8647 32.1059 84.4988 32.1708 84.0917 32.1708ZM90.8389 32.1124V30.9838L90.8107 30.7989V28.9114C90.8107 28.4767 90.6925 28.1427 90.4542 27.9092C90.2234 27.6757 89.8763 27.5589 89.4129 27.5589C89.0939 27.5589 88.7909 27.6141 88.5029 27.7243C88.2158 27.8346 87.9719 27.9805 87.7711 28.1622L87.4709 27.6465C87.7214 27.4259 88.0216 27.2573 88.3715 27.1405C88.7224 27.0173 89.0911 26.9557 89.4785 26.9557C90.1165 26.9557 90.6081 27.1211 90.9514 27.4519C91.3023 27.7762 91.4768 28.2724 91.4768 28.9405V32.1124H90.8389ZM89.1408 32.1611C88.7721 32.1611 88.4503 32.0995 88.1745 31.9762C87.9062 31.8465 87.6998 31.6714 87.5553 31.4508C87.4118 31.2238 87.3396 30.9643 87.3396 30.6724C87.3396 30.4065 87.3996 30.1665 87.5178 29.9524C87.6435 29.7319 87.8433 29.5567 88.1182 29.427C88.3997 29.2908 88.7749 29.2227 89.244 29.2227H90.9421V29.7384H89.2628C88.7881 29.7384 88.456 29.8259 88.2683 30.0011C88.0873 30.1762 87.9963 30.3935 87.9963 30.653C87.9963 30.9449 88.106 31.1784 88.3246 31.3535C88.5442 31.5286 88.85 31.6162 89.244 31.6162C89.6193 31.6162 89.942 31.5286 90.2103 31.3535C90.4861 31.1719 90.686 30.9125 90.8107 30.5751L90.9608 31.0519C90.8361 31.3892 90.6175 31.6583 90.3041 31.8595C89.9983 32.0606 89.6099 32.1611 89.1408 32.1611ZM93.2499 32.1124V27.0043H93.916V31.5092H96.9275V27.0043H97.5935V32.1124H93.2499ZM97.7624 33.3481V32.0541L97.9313 32.1124H96.9275V31.5092H98.391V33.3481H97.7624ZM99.6631 32.1124V27.0043H100.329V31.0616L103.622 27.0043H104.213V32.1124H103.547V28.0454L100.264 32.1124H99.6631ZM106.122 32.1124V27.0043H106.788V31.0616L110.081 27.0043H110.672V32.1124H110.006V28.0454L106.723 32.1124H106.122ZM115.037 32.1124V27.0043H117.213C117.769 27.0043 118.208 27.1146 118.526 27.3351C118.852 27.5557 119.014 27.88 119.014 28.3081C119.014 28.7233 118.861 29.0444 118.555 29.2714C118.248 29.4919 117.844 29.6022 117.344 29.6022L117.476 29.3978C118.064 29.3978 118.496 29.5114 118.77 29.7384C119.045 29.9654 119.183 30.293 119.183 30.7211C119.183 31.1621 119.027 31.506 118.714 31.7524C118.407 31.9925 117.929 32.1124 117.279 32.1124H115.037ZM115.684 31.5676H117.251C117.67 31.5676 117.985 31.4995 118.198 31.3632C118.417 31.2205 118.526 30.9935 118.526 30.6822C118.526 30.3708 118.43 30.1438 118.236 30.0011C118.041 29.8583 117.736 29.787 117.316 29.787H115.684V31.5676ZM115.684 29.2714H117.166C117.548 29.2714 117.839 29.1967 118.039 29.0476C118.245 28.8984 118.348 28.681 118.348 28.3957C118.348 28.1103 118.245 27.8962 118.039 27.7535C117.839 27.6108 117.548 27.5395 117.166 27.5395H115.684V29.2714ZM122.618 32.1124V31.6162L125.348 28.8432C125.598 28.5903 125.786 28.3697 125.911 28.1816C126.035 27.987 126.12 27.8054 126.164 27.6368C126.208 27.4681 126.23 27.3092 126.23 27.16C126.23 26.7643 126.098 26.4529 125.836 26.2259C125.58 25.999 125.198 25.8854 124.691 25.8854C124.304 25.8854 123.959 25.947 123.659 26.0703C123.365 26.1935 123.112 26.3848 122.899 26.6443L122.421 26.2162C122.677 25.9049 123.005 25.6648 123.406 25.4962C123.806 25.3276 124.253 25.2432 124.747 25.2432C125.191 25.2432 125.576 25.3179 125.901 25.467C126.227 25.6098 126.476 25.8205 126.652 26.0995C126.833 26.3784 126.924 26.7059 126.924 27.0822C126.924 27.3027 126.893 27.52 126.83 27.7341C126.774 27.9481 126.668 28.1751 126.511 28.4151C126.361 28.6486 126.139 28.9146 125.845 29.213L123.34 31.7622L123.153 31.4897H127.224V32.1124H122.618ZM131.534 32.1708C131.033 32.1708 130.57 32.0865 130.145 31.9178C129.726 31.7427 129.36 31.4995 129.048 31.1881C128.741 30.8768 128.5 30.5102 128.325 30.0886C128.157 29.6671 128.072 29.2065 128.072 28.707C128.072 28.2076 128.157 27.747 128.325 27.3254C128.5 26.9038 128.744 26.5373 129.057 26.2259C129.37 25.9146 129.736 25.6746 130.155 25.5059C130.58 25.3308 131.042 25.2432 131.543 25.2432C132.043 25.2432 132.5 25.3243 132.913 25.4865C133.331 25.6487 133.688 25.8951 133.983 26.2259L133.551 26.6832C133.275 26.3979 132.972 26.1935 132.641 26.0703C132.309 25.947 131.952 25.8854 131.571 25.8854C131.164 25.8854 130.789 25.9567 130.446 26.0995C130.108 26.2357 129.811 26.4335 129.554 26.693C129.304 26.9459 129.107 27.2444 128.963 27.5881C128.825 27.9254 128.757 28.2984 128.757 28.707C128.757 29.1092 128.825 29.4822 128.963 29.8259C129.107 30.1697 129.304 30.4713 129.554 30.7308C129.811 30.9838 130.108 31.1816 130.446 31.3243C130.789 31.4605 131.162 31.5286 131.562 31.5286C131.937 31.5286 132.29 31.4703 132.622 31.3535C132.96 31.2368 133.27 31.039 133.551 30.76L133.945 31.3049C133.632 31.5902 133.266 31.8076 132.847 31.9568C132.428 32.0995 131.99 32.1708 131.534 32.1708ZM133.279 31.2173V28.707H133.945V31.3049L133.279 31.2173ZM135.909 32.1124V25.3016H136.604V32.1124H135.909ZM140.551 32.1708C140.064 32.1708 139.595 32.0898 139.144 31.9276C138.7 31.759 138.356 31.5449 138.112 31.2854L138.384 30.7308C138.615 30.9643 138.925 31.1621 139.313 31.3243C139.707 31.48 140.12 31.5578 140.551 31.5578C140.964 31.5578 141.298 31.506 141.555 31.4022C141.818 31.2919 142.008 31.146 142.128 30.9643C142.252 30.7827 142.315 30.5817 142.315 30.3611C142.315 30.0952 142.24 29.8811 142.09 29.7189C141.946 29.5567 141.755 29.4302 141.518 29.3395C141.279 29.2422 141.017 29.1578 140.73 29.0865C140.442 29.0152 140.154 28.9405 139.867 28.8627C139.579 28.7783 139.313 28.6681 139.069 28.5319C138.831 28.3957 138.638 28.2173 138.488 27.9968C138.343 27.7698 138.272 27.4746 138.272 27.1114C138.272 26.774 138.356 26.466 138.525 26.187C138.7 25.9017 138.966 25.6746 139.322 25.5059C139.679 25.3308 140.135 25.2432 140.692 25.2432C141.061 25.2432 141.427 25.2984 141.79 25.4086C142.152 25.5125 142.465 25.6584 142.728 25.8465L142.493 26.4205C142.212 26.2259 141.912 26.0832 141.593 25.9924C141.279 25.9017 140.976 25.8562 140.683 25.8562C140.289 25.8562 139.963 25.9114 139.707 26.0216C139.45 26.1319 139.26 26.2811 139.135 26.4692C139.016 26.6508 138.957 26.8584 138.957 27.0919C138.957 27.3578 139.028 27.5719 139.172 27.7341C139.322 27.8962 139.516 28.0227 139.754 28.1135C139.998 28.2043 140.263 28.2854 140.551 28.3568C140.839 28.4281 141.124 28.5059 141.405 28.5903C141.692 28.6746 141.955 28.7849 142.193 28.9211C142.437 29.0508 142.63 29.2259 142.775 29.4465C142.925 29.6671 143 29.9556 143 30.3124C143 30.6432 142.912 30.9514 142.737 31.2368C142.562 31.5157 142.293 31.7427 141.931 31.9178C141.574 32.0865 141.114 32.1708 140.551 32.1708Z" fill="white"/>
</g>
</g>
<defs>
<clipPath id="clip0_1435_1219">
<rect width="170" height="34" fill="white"/>
</clipPath>
</defs>
</svg>
