<svg width="39" height="43" viewBox="0 0 39 43" fill="none" xmlns="http://www.w3.org/2000/svg">
<mask id="mask0_12_368" style="mask-type:luminance" maskUnits="userSpaceOnUse" x="0" y="0" width="39" height="43">
<path d="M36.9574 0L0 1.77425L1.93384 42.0557L38.8913 40.2815L36.9574 0Z" fill="white"/>
</mask>
<g mask="url(#mask0_12_368)">
<path d="M11.4106 38.9558C3.74986 39.3244 1.9811 28.9445 1.96393 28.8391C1.92944 28.6258 2.03669 28.416 2.22112 28.3373C2.40651 28.2571 2.61696 28.3308 2.72756 28.5118C2.76193 28.5684 6.22991 34.1588 10.5172 33.953C14.4211 33.7656 15.122 31.2586 15.0226 29.1882C14.9826 28.3539 14.7401 27.734 14.2815 27.2929C13.6161 26.6534 12.479 26.3918 10.9091 26.5191C10.7283 26.5224 10.5645 26.4241 10.4914 26.2466C9.36087 23.5011 9.27366 21.9242 9.27051 21.8585C9.25838 21.6058 9.43649 21.3919 9.66834 21.3807L12.4104 21.2491C12.7138 21.1354 14.3836 20.42 14.2637 18.4915C14.2211 17.8047 14.023 17.3027 13.6751 16.9994C13.1392 16.5324 12.3583 16.6057 12.048 16.658C10.1873 16.9744 8.28716 18.4098 6.69722 20.6997C6.62264 20.807 6.50848 20.8727 6.38468 20.8791C6.38427 20.8791 6.38365 20.8791 6.38304 20.8792C6.26004 20.8851 6.14016 20.8319 6.0555 20.7334C3.90358 18.2335 3.24081 16.2878 3.21367 16.206C3.15364 16.0257 3.20275 15.8245 3.33637 15.7019C3.5194 15.5338 7.86224 11.5925 12.193 12.0253C13.9669 12.2017 15.4816 13.0915 16.6951 14.6704C17.7376 15.9699 18.2143 17.3682 18.1063 18.8183C17.9654 20.7139 16.8596 22.179 16.248 22.854C16.6263 23.1612 17.1814 23.6609 17.6647 24.2872C18.0558 24.7938 18.6473 25.0623 19.2391 25.0115C19.7927 24.9617 20.2668 24.637 20.5401 24.1213C20.609 23.9882 20.6816 23.8234 20.7747 23.6147C21.5792 21.8048 24.0274 16.2972 29.188 16.0494C35.4307 15.7497 37.484 22.6387 37.6977 23.4253C38.7805 27.4148 38.5806 32.8118 34.7707 35.9938C32.1792 38.1584 29.1847 38.4684 25.87 36.9156C24.7193 36.3765 21.9576 33.9422 21.2488 30.2205C21.2093 30.0127 21.3052 29.8039 21.481 29.7153C21.6555 29.6267 21.866 29.6798 21.9878 29.8464C22.7894 30.9384 25.7247 33.5566 29.6276 32.5845C33.5012 31.6183 35.6437 29.1576 35.2184 26.1632C35.0376 24.8891 34.186 20.7423 30.8192 20.8623C28.2998 20.9416 27.2688 22.997 26.4432 24.6406C26.3457 24.8347 26.2523 25.021 26.1608 25.1943C25.2889 26.8491 23.912 28.838 22.3035 28.9152C21.2838 28.9642 20.0226 28.7157 19.0604 28.09C19.1211 29.898 18.8281 33.176 17.1639 35.7054C15.8403 37.7169 13.934 38.809 11.4975 38.9511C11.4688 38.953 11.4393 38.9544 11.4106 38.9558ZM3.30814 30.7655C4.19799 33.5979 6.42294 38.2779 11.3665 38.0406C11.3934 38.0393 11.419 38.038 11.4458 38.0363C13.6165 37.9097 15.3101 36.9446 16.4792 35.1677C18.4447 32.1798 18.3046 27.8531 18.126 27.1513C18.0734 26.9446 18.1591 26.7265 18.3324 26.6268C18.5058 26.5275 18.7198 26.5723 18.849 26.7354C19.488 27.5459 20.8906 28.0658 22.2596 28C23.205 27.9546 24.3609 26.7638 25.431 24.7331C25.5195 24.5649 25.6102 24.3845 25.7048 24.1959C26.527 22.5588 27.7666 20.0911 30.717 19.9494C30.7395 19.9483 30.7621 19.9475 30.7851 19.9466C34.8481 19.8017 35.8416 24.5665 36.0495 26.0302C36.5477 29.5415 34.1615 32.395 29.8217 33.4773C26.662 34.2663 24.0697 32.9208 22.5513 31.6629C23.491 33.9966 25.2616 35.6365 26.197 36.0749C29.21 37.4863 31.9222 37.2141 34.2557 35.2652C37.7302 32.363 37.8956 27.3766 36.8912 23.6781C36.697 22.9627 34.8317 16.6959 29.232 16.9647C24.5682 17.1886 22.3622 22.1513 21.5318 24.0196C21.4294 24.2498 21.3485 24.4305 21.288 24.5481C20.8577 25.3611 20.1454 25.8495 19.3152 25.9243C18.452 26.002 17.591 25.6093 17.023 24.8734C16.2991 23.9353 15.3689 23.2973 15.3595 23.2906C15.2441 23.2124 15.1704 23.078 15.1611 22.9304C15.1515 22.783 15.2083 22.6401 15.313 22.5469C15.3309 22.531 17.1085 20.9234 17.2687 18.7309C17.3557 17.5395 16.9484 16.3726 16.058 15.2624C14.9883 13.8706 13.6665 13.0909 12.1234 12.9377C8.68485 12.5955 5.07324 15.3983 4.1218 16.1965C4.36483 16.7649 5.01257 18.0936 6.33425 19.7131C7.9931 17.4846 9.95901 16.0849 11.9115 15.7531C12.333 15.6806 13.3986 15.5894 14.1973 16.2861C14.7385 16.7581 15.0433 17.4819 15.1027 18.4371C15.2422 20.6836 13.5347 21.8435 12.6124 22.1431C12.5794 22.1536 12.5454 22.1599 12.5111 22.1616L10.168 22.2741C10.2634 22.861 10.5109 23.9977 11.1402 25.5853C12.7989 25.5151 14.0391 25.843 14.8349 26.6083C15.4647 27.2141 15.8104 28.0683 15.8623 29.1479C15.941 30.7875 15.582 34.6272 10.5612 34.8682C7.42554 35.0187 4.78878 32.5461 3.30814 30.7655Z" fill="#FEFEFC"/>
<path d="M3.60884 16.0532L3.61294 16.053M11.4106 38.9558C3.74986 39.3244 1.9811 28.9445 1.96393 28.8391C1.92944 28.6258 2.03669 28.416 2.22112 28.3373C2.40651 28.2571 2.61696 28.3308 2.72756 28.5118C2.76193 28.5684 6.22991 34.1588 10.5172 33.953C14.4211 33.7656 15.122 31.2586 15.0226 29.1882C14.9826 28.3539 14.7401 27.734 14.2815 27.2929C13.6161 26.6534 12.479 26.3918 10.9091 26.5191C10.7283 26.5224 10.5645 26.4241 10.4914 26.2466C9.36087 23.5011 9.27366 21.9242 9.27051 21.8585C9.25837 21.6058 9.43649 21.3919 9.66834 21.3807L12.4104 21.2491C12.7138 21.1354 14.3836 20.42 14.2637 18.4915C14.2211 17.8047 14.023 17.3027 13.6751 16.9994C13.1392 16.5324 12.3583 16.6057 12.048 16.658C10.1873 16.9744 8.28716 18.4098 6.69722 20.6997C6.62264 20.807 6.50848 20.8727 6.38468 20.8791C6.38427 20.8791 6.38365 20.8791 6.38304 20.8792C6.26004 20.8851 6.14016 20.8319 6.0555 20.7334C3.90358 18.2335 3.24081 16.2878 3.21367 16.206C3.15364 16.0257 3.20275 15.8245 3.33637 15.7019C3.5194 15.5338 7.86224 11.5925 12.193 12.0253C13.9669 12.2017 15.4816 13.0915 16.6951 14.6704C17.7376 15.9699 18.2143 17.3682 18.1063 18.8183C17.9654 20.7139 16.8596 22.179 16.248 22.854C16.6263 23.1612 17.1814 23.6609 17.6647 24.2872C18.0558 24.7938 18.6473 25.0623 19.2391 25.0115C19.7927 24.9617 20.2668 24.637 20.5401 24.1213C20.609 23.9882 20.6816 23.8234 20.7747 23.6147C21.5792 21.8048 24.0274 16.2972 29.188 16.0494C35.4307 15.7497 37.484 22.6387 37.6977 23.4253C38.7805 27.4148 38.5806 32.8118 34.7707 35.9938C32.1792 38.1584 29.1847 38.4684 25.87 36.9156C24.7193 36.3765 21.9576 33.9422 21.2488 30.2205C21.2093 30.0127 21.3052 29.8039 21.481 29.7153C21.6555 29.6267 21.866 29.6798 21.9878 29.8464C22.7894 30.9384 25.7247 33.5566 29.6276 32.5845C33.5012 31.6183 35.6437 29.1576 35.2184 26.1632C35.0376 24.8891 34.186 20.7423 30.8192 20.8623C28.2998 20.9416 27.2688 22.997 26.4432 24.6406C26.3457 24.8347 26.2523 25.021 26.1607 25.1943C25.2889 26.8491 23.912 28.838 22.3035 28.9152C21.2838 28.9642 20.0226 28.7157 19.0604 28.09C19.1211 29.898 18.8281 33.176 17.1639 35.7054C15.8403 37.7169 13.934 38.809 11.4975 38.9511C11.4688 38.953 11.4393 38.9544 11.4106 38.9558ZM3.30814 30.7655C4.19799 33.5979 6.42294 38.2779 11.3665 38.0406C11.3934 38.0393 11.419 38.0381 11.4458 38.0363C13.6165 37.9097 15.3101 36.9446 16.4792 35.1677C18.4447 32.1798 18.3046 27.8531 18.126 27.1513C18.0734 26.9446 18.1591 26.7265 18.3324 26.6268C18.5058 26.5275 18.7198 26.5723 18.849 26.7354C19.488 27.5459 20.8906 28.0658 22.2596 28C23.205 27.9546 24.3609 26.7638 25.431 24.7331C25.5195 24.5649 25.6102 24.3845 25.7048 24.1959C26.527 22.5588 27.7666 20.0911 30.717 19.9494C30.7395 19.9483 30.7621 19.9475 30.7851 19.9466C34.8481 19.8017 35.8416 24.5665 36.0495 26.0302C36.5477 29.5415 34.1615 32.395 29.8217 33.4773C26.662 34.2663 24.0697 32.9208 22.5513 31.6629C23.491 33.9966 25.2616 35.6365 26.197 36.0749C29.21 37.4863 31.9222 37.2141 34.2557 35.2652C37.7302 32.363 37.8956 27.3766 36.8912 23.6781C36.697 22.9627 34.8317 16.6959 29.232 16.9647C24.5682 17.1886 22.3622 22.1513 21.5318 24.0196C21.4294 24.2498 21.3485 24.4305 21.288 24.5481C20.8577 25.3611 20.1454 25.8495 19.3152 25.9243C18.452 26.002 17.591 25.6093 17.023 24.8734C16.2991 23.9353 15.3689 23.2973 15.3595 23.2906C15.2441 23.2124 15.1704 23.078 15.1611 22.9304C15.1515 22.783 15.2083 22.6401 15.313 22.5469C15.3309 22.531 17.1085 20.9234 17.2687 18.7309C17.3557 17.5395 16.9484 16.3726 16.058 15.2624C14.9883 13.8706 13.6665 13.0909 12.1234 12.9377C8.68485 12.5955 5.07324 15.3983 4.1218 16.1965C4.36483 16.7649 5.01257 18.0936 6.33425 19.7131C7.9931 17.4846 9.95901 16.0849 11.9115 15.7531C12.333 15.6806 13.3986 15.5894 14.1973 16.2861C14.7385 16.7581 15.0433 17.4819 15.1027 18.4371C15.2422 20.6836 13.5347 21.8435 12.6124 22.1431C12.5794 22.1536 12.5454 22.1599 12.5111 22.1616L10.168 22.2741C10.2634 22.861 10.5109 23.9977 11.1402 25.5853C12.7989 25.5151 14.0391 25.843 14.8349 26.6083C15.4647 27.2141 15.8104 28.0683 15.8623 29.1479C15.941 30.7875 15.582 34.6272 10.5612 34.8682C7.42554 35.0187 4.78878 32.5461 3.30814 30.7655Z" stroke="#FEFEFC" stroke-width="0.3"/>
<path d="M23.7427 15.5551C23.5931 15.5622 23.4414 15.5633 23.2863 15.5577C20.3502 15.4499 17.438 12.969 14.6308 8.18397C14.5194 7.99405 14.55 7.74556 14.7031 7.59689C14.8558 7.44758 15.0867 7.44275 15.2472 7.58443C15.2835 7.61627 18.8978 10.7687 22.3008 10.3169C23.7112 10.1313 24.9049 9.34036 25.8477 7.96638C25.9303 7.84667 26.061 7.77789 26.199 7.78492C26.3365 7.79111 26.4632 7.87035 26.538 7.9969L28.8665 11.9364C28.9608 12.0953 28.9562 12.3 28.8554 12.4522C28.7719 12.5781 26.8644 15.4052 23.7427 15.5551ZM16.5597 9.61961C18.8055 12.8691 21.0672 14.5562 23.2998 14.6418C25.733 14.7346 27.4587 12.8296 27.996 12.1488L26.1483 9.02295C25.1249 10.2946 23.868 11.0351 22.4048 11.227C20.2245 11.5119 18.0404 10.5254 16.5597 9.61961Z" fill="#FEFEFC" stroke="#FEFEFC" stroke-width="0.3"/>
<path d="M21.6634 9.93781C21.6589 9.93803 21.6543 9.93824 21.6498 9.93826C21.5385 9.93956 21.4307 9.89279 21.3501 9.80797L18.8236 7.14081C18.7431 7.05579 18.6968 6.93998 18.6945 6.81849C18.6924 6.69698 18.7345 6.57985 18.8117 6.49306L21.2391 3.76255C21.3997 3.58151 21.6654 3.57838 21.8334 3.75485L24.3597 6.42177C24.5272 6.59849 24.5325 6.88847 24.3714 7.06955L21.9444 9.80023C21.8704 9.88353 21.7699 9.93269 21.6634 9.93781ZM19.7093 6.80537L21.6296 8.83243L23.4742 6.75721L21.5539 4.73036L19.7093 6.80537Z" fill="#FEFEFC" stroke="#FEFEFC" stroke-width="0.3"/>
</g>
</svg>
