<svg width="53" height="53" viewBox="0 0 53 53" fill="none" xmlns="http://www.w3.org/2000/svg">
<g clip-path="url(#clip0_12_81)">
<path d="M13.8849 37.0218C13.5375 37.0226 13.1953 36.9377 12.8885 36.7747L11.5475 36.0614C11.0551 35.7982 10.6855 35.3526 10.5179 34.8202C10.3503 34.2877 10.398 33.7107 10.6508 33.213L11.6112 31.3689C11.6781 31.2418 11.7925 31.1462 11.9294 31.1029C12.0664 31.0597 12.2149 31.0722 12.3427 31.1379C12.4705 31.2035 12.5671 31.317 12.6117 31.4535C12.6563 31.5901 12.6451 31.7387 12.5807 31.8671L11.6292 33.7142C11.5057 33.9564 11.4822 34.2375 11.5636 34.4969C11.645 34.7564 11.8248 34.9736 12.0646 35.102L13.4046 35.8153C13.6452 35.9412 13.9252 35.9685 14.1856 35.8915C14.4459 35.8145 14.6661 35.6393 14.7995 35.4028L15.7719 33.6524C15.8067 33.5898 15.8535 33.5348 15.9096 33.4903C15.9657 33.4459 16.03 33.4129 16.0988 33.3933C16.1676 33.3737 16.2396 33.3678 16.3107 33.376C16.3818 33.3842 16.4506 33.4064 16.5132 33.4412C16.5757 33.476 16.6308 33.5228 16.6752 33.5788C16.7197 33.6349 16.7527 33.6992 16.7723 33.768C16.7919 33.8369 16.7978 33.9089 16.7896 33.98C16.7813 34.0511 16.7592 34.1199 16.7244 34.1824L15.752 35.9328C15.5662 36.2656 15.2949 36.5426 14.9661 36.7353C14.6373 36.928 14.263 37.0293 13.8819 37.0287L13.8849 37.0218Z" fill="#FEFEFC"/>
<path d="M40.9889 37.0019C40.6085 37.0023 40.235 36.9009 39.907 36.7082C39.579 36.5155 39.3086 36.2385 39.1238 35.906L38.1644 34.1775C38.099 34.0516 38.0853 33.9051 38.1262 33.7693C38.1671 33.6334 38.2593 33.5188 38.3834 33.4499C38.5074 33.381 38.6535 33.3632 38.7904 33.4003C38.9274 33.4374 39.0445 33.5264 39.1169 33.6485L40.0763 35.377C40.2108 35.6175 40.4349 35.795 40.6998 35.8707C40.9647 35.9465 41.2488 35.9144 41.4901 35.7815L42.875 35.0144C42.9942 34.9488 43.0993 34.8602 43.1843 34.7539C43.2692 34.6475 43.3323 34.5254 43.3698 34.3946C43.4074 34.2638 43.4188 34.1268 43.4033 33.9916C43.3878 33.8564 43.3457 33.7256 43.2795 33.6067L42.32 31.8781C42.2546 31.7522 42.2409 31.6057 42.2818 31.4699C42.3227 31.334 42.415 31.2195 42.5391 31.1506C42.6631 31.0817 42.8091 31.0639 42.9461 31.1009C43.0831 31.138 43.2002 31.227 43.2725 31.3491L44.237 33.0786C44.3725 33.3227 44.4586 33.5912 44.4903 33.8686C44.5219 34.1461 44.4985 34.427 44.4214 34.6954C44.3443 34.9638 44.215 35.2143 44.041 35.4326C43.8669 35.651 43.6515 35.8328 43.407 35.9678L42.0221 36.7339C41.7078 36.9092 41.3538 37.0012 40.9939 37.0009L40.9889 37.0019Z" fill="#FEFEFC"/>
<path d="M33.8384 10.593C33.704 10.5909 33.5751 10.5391 33.4767 10.4475L33.2386 10.2313C31.3732 8.54679 29.6064 6.75618 27.9471 4.86838C26.5137 6.5452 24.5447 7.675 22.3736 8.06641L21.178 8.2826C21.0359 8.30902 20.889 8.27789 20.7698 8.19605C20.6506 8.11422 20.5688 7.98838 20.5424 7.84623C20.516 7.70408 20.5471 7.55725 20.6289 7.43805C20.7108 7.31884 20.8366 7.23703 20.9788 7.21061L22.1744 6.99342C24.3011 6.61036 26.2013 5.42974 27.4868 3.69278C27.5355 3.6271 27.5984 3.57322 27.6707 3.53514C27.7431 3.49705 27.8231 3.47574 27.9048 3.47277C27.9865 3.4698 28.0679 3.48526 28.1428 3.518C28.2177 3.55074 28.2843 3.59992 28.3377 3.6619C30.091 5.69982 31.9704 7.62574 33.9649 9.4283L34.204 9.6445C34.2854 9.71841 34.3426 9.81523 34.368 9.92223C34.3934 10.0292 34.3858 10.1414 34.3462 10.244C34.3067 10.3466 34.237 10.4349 34.1463 10.4971C34.0557 10.5594 33.9483 10.5928 33.8384 10.593Z" fill="#FEFEFC"/>
<path d="M27.4319 14.0201C24.8993 14.0201 22.8389 11.7068 22.8389 8.86341C22.8375 8.21897 22.9453 7.57895 23.1577 6.9705C23.2081 6.83761 23.3085 6.72968 23.4374 6.66973C23.5663 6.60978 23.7135 6.60257 23.8476 6.64961C23.9818 6.69666 24.0922 6.79426 24.1554 6.92158C24.2186 7.0489 24.2296 7.19587 24.1859 7.33115C24.0147 7.82246 23.9278 8.33916 23.9289 8.85943C23.9289 11.102 25.5001 12.9262 27.4319 12.9262C29.3638 12.9262 30.936 11.106 30.936 8.86341C30.9361 8.51109 30.8967 8.15987 30.8185 7.81633C30.7861 7.67524 30.8111 7.52706 30.888 7.4044C30.9649 7.28175 31.0873 7.19465 31.2285 7.16228C31.3696 7.12992 31.5177 7.15493 31.6404 7.23181C31.7631 7.30869 31.8502 7.43115 31.8825 7.57225C31.9798 7.99709 32.0286 8.43158 32.028 8.8674C32.028 11.7108 29.9666 14.0241 27.4339 14.0241L27.4319 14.0201Z" fill="#FEFEFC"/>
<path d="M16.25 34.4576C16.1579 34.4575 16.0673 34.4338 15.987 34.3887L11.8313 32.0893C11.7683 32.0547 11.7128 32.008 11.668 31.9518C11.6232 31.8956 11.59 31.8311 11.5702 31.762C11.5505 31.6929 11.5446 31.6206 11.553 31.5492C11.5614 31.4778 11.5839 31.4088 11.6191 31.3461L19.0915 18.025C19.4839 17.3278 20.0547 16.7475 20.7455 16.3438C21.4362 15.94 22.222 15.7274 23.022 15.7276H24.5165V12.6033C24.5165 12.4588 24.574 12.3203 24.6762 12.2181C24.7784 12.1159 24.917 12.0583 25.0615 12.0583C25.2061 12.0583 25.3447 12.1159 25.4469 12.2181C25.5491 12.3203 25.6065 12.4588 25.6065 12.6033V16.2726C25.6065 16.4171 25.5491 16.5557 25.4469 16.6579C25.3447 16.7601 25.2061 16.8175 25.0615 16.8175H23.022C22.4155 16.8176 21.82 16.979 21.2965 17.2852C20.773 17.5914 20.3404 18.0314 20.043 18.56L12.8386 31.4039L16.0408 33.1744L21.2575 23.7605C21.3162 23.6551 21.4082 23.5721 21.519 23.5246C21.6299 23.4771 21.7534 23.4677 21.8702 23.4979C21.987 23.5281 22.0905 23.5961 22.1644 23.6915C22.2384 23.7868 22.2786 23.9039 22.2788 24.0245V30.3011H32.6007L32.6147 23.9847C32.6151 23.8641 32.6555 23.7472 32.7295 23.6521C32.8035 23.5569 32.907 23.4889 33.0237 23.459C33.1405 23.4289 33.2639 23.4383 33.3747 23.4858C33.4854 23.5334 33.5773 23.6164 33.6359 23.7218L38.8567 33.1763L42.0559 31.4059L34.8484 18.5611C34.5502 18.0334 34.1172 17.5944 33.5935 17.2892C33.0699 16.9839 32.4746 16.8231 31.8684 16.8235H29.7901C29.7185 16.8235 29.6477 16.8094 29.5815 16.782C29.5154 16.7546 29.4553 16.7146 29.4047 16.6639C29.3541 16.6133 29.314 16.5533 29.2866 16.4872C29.2592 16.4211 29.2451 16.3501 29.2451 16.2785V12.6093C29.2451 12.4648 29.3025 12.3261 29.4047 12.2239C29.5069 12.1217 29.6456 12.0643 29.7901 12.0643C29.9346 12.0643 30.0733 12.1217 30.1755 12.2239C30.2777 12.3261 30.3351 12.4648 30.3351 12.6093V15.7276H31.8645C32.6646 15.7277 33.4502 15.9408 34.1408 16.3449C34.8314 16.749 35.402 17.3295 35.794 18.0271L43.2664 31.3482C43.3016 31.4109 43.3241 31.4798 43.3325 31.5511C43.3409 31.6225 43.335 31.695 43.3153 31.764C43.2955 31.8331 43.2623 31.8976 43.2175 31.9538C43.1727 32.01 43.1172 32.0568 43.0542 32.0914L38.8985 34.3918C38.7721 34.461 38.6234 34.4775 38.4849 34.4375C38.3465 34.3976 38.2294 34.3045 38.1592 34.1786L33.6957 26.0889L33.6857 30.844C33.6855 30.9884 33.6279 31.1268 33.5258 31.2288C33.4236 31.3307 33.2851 31.3881 33.1407 31.3881H21.7308C21.6592 31.3881 21.5884 31.3739 21.5222 31.3465C21.4561 31.3192 21.396 31.2789 21.3454 31.2283C21.2948 31.1777 21.2547 31.1178 21.2273 31.0515C21.1999 30.9855 21.1858 30.9146 21.1858 30.8431V26.1327L16.7272 34.1796C16.6803 34.2647 16.6113 34.3358 16.5276 34.3852C16.4438 34.4347 16.3483 34.4606 16.251 34.4605L16.25 34.4576Z" fill="#FEFEFC"/>
<path d="M30.5362 14.8639H29.7949C29.6504 14.8639 29.5118 14.8064 29.4096 14.7042C29.3074 14.602 29.2499 14.4634 29.2499 14.3189C29.2499 14.1744 29.3074 14.0357 29.4096 13.9335C29.5118 13.8314 29.6504 13.7739 29.7949 13.7739H30.5362C31.2667 13.7737 31.9672 13.4837 32.4842 12.9677C33.0012 12.4517 33.2924 11.7517 33.294 11.0212V6.48623C33.2918 5.39812 32.9126 4.34441 32.2208 3.50447C31.5291 2.66453 30.5676 2.09028 29.5 1.87948C29.4384 1.86706 29.3795 1.84414 29.3257 1.81173C28.555 1.34934 27.6754 1.09961 26.7767 1.08804C25.878 1.07646 24.9924 1.30344 24.21 1.74584C23.4277 2.18823 22.7767 2.8302 22.3235 3.60626C21.8702 4.38233 21.6309 5.26472 21.63 6.16344V11.0252C21.6316 11.7555 21.9227 12.4553 22.4395 12.9713C22.9562 13.4873 23.6566 13.7774 24.3869 13.7779H25.0634C25.2079 13.7779 25.3465 13.8353 25.4487 13.9375C25.5509 14.0397 25.6084 14.1783 25.6084 14.3229C25.6084 14.4674 25.5509 14.606 25.4487 14.7082C25.3465 14.8104 25.2079 14.8678 25.0634 14.8678H24.3869C23.3676 14.867 22.3902 14.4621 21.669 13.7417C20.9479 13.0214 20.5419 12.0445 20.54 11.0252V6.16344C20.541 5.07986 20.8274 4.01565 21.3703 3.07791C21.9133 2.14017 22.6937 1.36198 23.633 0.821663C24.5723 0.281342 25.6374 -0.00204883 26.721 1.11509e-05C27.8047 0.00207113 28.8686 0.289509 29.8059 0.833397C31.1009 1.11138 32.2618 1.82416 33.0955 2.85326C33.9293 3.88236 34.3857 5.16578 34.389 6.49021V11.0242C34.3869 12.0438 33.9805 13.021 33.2591 13.7415C32.5376 14.462 31.5598 14.867 30.5402 14.8678L30.5362 14.8639Z" fill="#FEFEFC"/>
<path d="M27.4616 22.0898C26.2271 22.0893 25.0432 21.5991 24.1696 20.7269C23.2961 19.8547 22.8041 18.6716 22.8018 17.4372V16.3812C22.8018 16.2366 22.8592 16.098 22.9614 15.9958C23.0636 15.8936 23.2022 15.8362 23.3467 15.8362C23.4913 15.8362 23.6299 15.8936 23.7321 15.9958C23.8343 16.098 23.8917 16.2366 23.8917 16.3812V17.4372C23.8917 18.3839 24.2678 19.2919 24.9373 19.9613C25.6068 20.6308 26.5148 21.0068 27.4616 21.0068C28.4084 21.0068 29.3164 20.6308 29.9858 19.9613C30.6553 19.2919 31.0314 18.3839 31.0314 17.4372V16.3812C31.0314 16.2366 31.0888 16.098 31.191 15.9958C31.2933 15.8936 31.4319 15.8362 31.5764 15.8362C31.721 15.8362 31.8596 15.8936 31.9618 15.9958C32.064 16.098 32.1214 16.2366 32.1214 16.3812V17.4372C32.119 18.6716 31.6271 19.8547 30.7535 20.7269C29.88 21.5991 28.6961 22.0893 27.4616 22.0898Z" fill="#FEFEFC"/>
<path d="M26.6945 35.0024H26.6537L15.727 34.1915C15.5873 34.1752 15.4592 34.1055 15.3697 33.997C15.2802 33.8885 15.2361 33.7496 15.2467 33.6093C15.2572 33.469 15.3216 33.3383 15.4263 33.2444C15.5311 33.1505 15.6681 33.1007 15.8087 33.1055L26.7354 33.9165C26.875 33.9284 27.0046 33.9936 27.0974 34.0985C27.1902 34.2034 27.239 34.34 27.2338 34.4799C27.2285 34.6199 27.1696 34.7525 27.0692 34.8501C26.9688 34.9478 26.8346 35.003 26.6945 35.0044V35.0024Z" fill="#FEFEFC"/>
<path d="M20.8234 40.0964C20.6834 40.0947 20.5494 40.0393 20.4492 39.9416C20.3489 39.8438 20.2902 39.7113 20.285 39.5714C20.2799 39.4315 20.3288 39.295 20.4216 39.1902C20.5144 39.0854 20.644 39.0203 20.7835 39.0084L26.6619 38.5721C26.806 38.5612 26.9485 38.6081 27.0581 38.7024C27.1677 38.7966 27.2354 38.9305 27.2462 39.0747C27.257 39.2188 27.2102 39.3614 27.1159 39.4709C27.0216 39.5805 26.8877 39.6482 26.7436 39.659L20.8652 40.0944H20.8244L20.8234 40.0964Z" fill="#FEFEFC"/>
<path d="M11.6571 38.5423C11.5486 38.5421 11.4426 38.5096 11.3526 38.4489C11.2626 38.3882 11.1928 38.3021 11.152 38.2015C10.9645 37.7387 10.8711 37.2432 10.8772 36.7439C10.8834 36.2446 10.989 35.7515 11.1878 35.2934C11.2129 35.223 11.2522 35.1584 11.3033 35.1038C11.3544 35.0492 11.4162 35.0057 11.4848 34.976C11.5535 34.9463 11.6275 34.9311 11.7022 34.9312C11.777 34.9313 11.851 34.9468 11.9195 34.9768C11.988 35.0067 12.0497 35.0505 12.1006 35.1053C12.1515 35.16 12.1905 35.2247 12.2154 35.2953C12.2402 35.3658 12.2502 35.4407 12.2449 35.5153C12.2395 35.5899 12.2188 35.6625 12.1842 35.7288C12.0432 36.0538 11.9684 36.4037 11.9642 36.7579C11.9599 37.1122 12.0262 37.4637 12.1593 37.7921C12.2135 37.9259 12.2126 38.0758 12.1565 38.209C12.1005 38.3421 11.994 38.4476 11.8604 38.5024C11.7951 38.5286 11.7254 38.5422 11.6551 38.5423H11.6571Z" fill="#FEFEFC"/>
<path d="M40.2903 40.5467C40.2235 40.5467 40.1568 40.5467 40.091 40.5417L26.6585 39.6261C26.5206 39.6168 26.3914 39.5554 26.2971 39.4544C26.2028 39.3534 26.1503 39.2204 26.1504 39.0822V34.4904C26.1503 34.3522 26.2028 34.2191 26.2971 34.1181C26.3914 34.0171 26.5206 33.9557 26.6585 33.9464L39.0957 33.0986C39.2375 33.0928 39.3759 33.1425 39.4816 33.2372C39.5873 33.3319 39.6519 33.4641 39.6616 33.6057C39.6713 33.7473 39.6254 33.887 39.5337 33.9953C39.442 34.1036 39.3116 34.1718 39.1704 34.1855L27.2414 34.9985V38.5731L40.1578 39.4528C40.5923 39.4747 41.0256 39.39 41.4199 39.2063C41.8143 39.0225 42.1577 38.7452 42.4205 38.3985C42.6832 38.0517 42.8572 37.646 42.9273 37.2166C42.9975 36.7873 42.9616 36.3473 42.8229 35.9349C42.7568 35.8877 42.7023 35.826 42.6635 35.7546C42.6289 35.6919 42.607 35.623 42.5991 35.5518C42.5911 35.4806 42.5974 35.4086 42.6174 35.3398C42.6374 35.271 42.6707 35.2069 42.7156 35.151C42.7604 35.0952 42.8159 35.0488 42.8787 35.0144L42.8977 35.0024L42.9256 34.9845C42.9911 34.9433 43.0648 34.9165 43.1416 34.9061C43.2183 34.8956 43.2964 34.9017 43.3707 34.9238C43.4449 34.946 43.5136 34.9838 43.572 35.0346C43.6305 35.0854 43.6774 35.1482 43.7097 35.2186C43.9717 35.7915 44.0857 36.421 44.0412 37.0494C43.9968 37.6778 43.7952 38.285 43.4551 38.8152C43.115 39.3455 42.6472 39.7819 42.0946 40.0844C41.542 40.3869 40.9223 40.5459 40.2923 40.5467H40.2903Z" fill="#FEFEFC"/>
<path d="M21.1123 34.588C21.0788 34.5878 21.0455 34.5845 21.0126 34.578C20.8707 34.5505 20.7456 34.4678 20.6647 34.3481C20.5838 34.2283 20.5538 34.0813 20.5812 33.9394L21.2009 30.7384C21.225 30.6142 21.2916 30.5022 21.3892 30.4216C21.4868 30.3411 21.6094 30.2971 21.736 30.2971H33.1031C33.2296 30.2971 33.3522 30.3411 33.4499 30.4216C33.5475 30.5022 33.614 30.6142 33.6381 30.7384L34.2508 33.9075C34.2644 33.978 34.264 34.0504 34.2497 34.1207C34.2353 34.191 34.2072 34.2578 34.167 34.3172C34.1268 34.3767 34.0753 34.4276 34.0154 34.4672C33.9555 34.5067 33.8884 34.534 33.8179 34.5476C33.7475 34.5612 33.675 34.5608 33.6047 34.5465C33.5344 34.5321 33.4676 34.504 33.4082 34.4638C33.3488 34.4236 33.2978 34.3721 33.2583 34.3122C33.2188 34.2523 33.1914 34.1852 33.1778 34.1148L32.6497 31.387H22.1803L21.6463 34.1456C21.6227 34.27 21.5564 34.3822 21.4589 34.4629C21.3614 34.5437 21.2388 34.5879 21.1123 34.588Z" fill="#FEFEFC"/>
<path d="M50.4549 47.4648H25.1402C24.9957 47.4648 24.857 47.4074 24.7548 47.3052C24.6526 47.203 24.5952 47.0644 24.5952 46.9199C24.5952 46.7754 24.6526 46.6367 24.7548 46.5345C24.857 46.4323 24.9957 46.3749 25.1402 46.3749H49.6708L46.8024 38.6578H43.2156C43.071 38.6578 42.9324 38.6004 42.8302 38.4982C42.728 38.396 42.6706 38.2574 42.6706 38.1129C42.6706 37.9683 42.728 37.8297 42.8302 37.7275C42.9324 37.6253 43.071 37.5679 43.2156 37.5679H47.179C47.2903 37.5679 47.3989 37.602 47.4903 37.6656C47.5817 37.7291 47.6514 37.8192 47.6901 37.9236L50.963 46.7296C50.9937 46.812 51.004 46.9006 50.9931 46.9878C50.9821 47.075 50.9502 47.1583 50.9001 47.2305C50.85 47.3028 50.7831 47.3618 50.7053 47.4026C50.6274 47.4434 50.5408 47.4648 50.4529 47.4648H50.4549Z" fill="#FEFEFC"/>
<path d="M23.2004 46.58C23.2594 46.7068 23.2794 46.8483 23.258 46.9865C23.2366 47.1247 23.1747 47.2535 23.0802 47.3565C22.9856 47.4596 22.8626 47.5323 22.7267 47.5654C22.5908 47.5986 22.4482 47.5908 22.3168 47.5429C22.1853 47.495 22.0711 47.4092 21.9884 47.2964C21.9057 47.1836 21.8583 47.0488 21.8522 46.9091C21.8461 46.7693 21.8816 46.6309 21.9542 46.5114C22.0267 46.3918 22.1331 46.2964 22.2598 46.2373C22.3441 46.198 22.4353 46.1756 22.5281 46.1716C22.621 46.1675 22.7138 46.1818 22.8012 46.2137C22.8885 46.2455 22.9687 46.2942 23.0372 46.3571C23.1057 46.4199 23.1612 46.4957 23.2004 46.58Z" fill="#FEFEFC"/>
<path d="M18.992 50.9866H2.63228C2.50281 50.9874 2.3773 50.9419 2.27832 50.8585C2.17934 50.775 2.11337 50.659 2.09227 50.5313L0.00794949 38.0829C-0.00556866 38.0047 -0.00181158 37.9245 0.0189572 37.8479C0.0397259 37.7713 0.0770033 37.7002 0.128174 37.6395C0.179345 37.5789 0.24317 37.5301 0.315171 37.4968C0.387172 37.4634 0.465606 37.4461 0.54497 37.4463H21.0803C21.1594 37.4462 21.2377 37.4634 21.3095 37.4966C21.3813 37.5299 21.445 37.5785 21.4962 37.6389C21.5473 37.6993 21.5847 37.7702 21.6056 37.8465C21.6265 37.9229 21.6305 38.0029 21.6173 38.0809L19.528 50.5313C19.5068 50.6584 19.4412 50.7739 19.3429 50.8573C19.2446 50.9406 19.1199 50.9865 18.991 50.9866H18.992ZM3.09358 49.8997H18.5317L20.4366 38.5422H1.1886L3.09358 49.8997Z" fill="#FEFEFC"/>
<path d="M12.0405 44.8187H9.58454C9.44 44.8187 9.30138 44.7613 9.19917 44.6591C9.09697 44.5569 9.03955 44.4183 9.03955 44.2737C9.03955 44.1292 9.09697 43.9906 9.19917 43.8884C9.30138 43.7862 9.44 43.7288 9.58454 43.7288H12.0405C12.185 43.7288 12.3236 43.7862 12.4259 43.8884C12.5281 43.9906 12.5855 44.1292 12.5855 44.2737C12.5855 44.4183 12.5281 44.5569 12.4259 44.6591C12.3236 44.7613 12.185 44.8187 12.0405 44.8187Z" fill="#FEFEFC"/>
</g>
<defs>
<clipPath id="clip0_12_81">
<rect width="53" height="53" fill="white"/>
</clipPath>
</defs>
</svg>
