<svg width="1919" height="458" viewBox="0 0 1919 458" fill="none" xmlns="http://www.w3.org/2000/svg">
<g opacity="0.35" clip-path="url(#clip0_25_12)">
<path d="M1919 174.924C1909.1 183.661 1898.45 190.588 1887.3 195.536C1857.86 208.582 1834.15 203.255 1803.99 197.234C1686.56 173.458 1689.21 179.711 1671.68 168.132C1646.42 151.38 1638.6 137.254 1600.61 114.944C1583.9 105.214 1566.71 97.1902 1549.17 90.9365L1481.52 142.271C1431.9 127.99 1379.14 110.003 1323.73 87.4621C1257.24 60.4438 1196.27 30.4923 1141.19 0.000152588C1123.17 10.4058 1106.27 24.2518 1090.96 41.1449C1064.72 70.1704 1058.49 91.5531 1034.56 113.168C1014.49 131.386 996.797 136.327 977.005 142.348C943.594 152.692 896.566 168.749 831.234 195.536C801.793 187.816 776.102 182.336 756.474 178.708C713.526 170.988 694.174 170.988 652.329 163.268C622.833 157.788 597.858 151.457 578.837 146.13C543.221 154.416 506.062 161.853 467.359 168.44C433.691 174.101 401.016 178.656 369.333 182.104L286.028 127.218L235.802 146.13L112.029 67.1597L-0.000305176 153.001V361.675L977.005 458.309H1919V174.924Z" fill="#89C0BB"/>
<path d="M1919 458L1021.5 481.021L-0.000305176 365.31V310.48C30.7064 315.693 61.7505 315.693 92.4572 310.48C148.141 300.985 157.183 281.763 207.574 274.429C273.072 264.934 278.365 294.346 328.866 279.601C387.637 262.464 383.998 221.782 435.492 212.673C478.165 204.953 480.095 233.284 569.024 243.551C593.999 246.484 608.112 245.944 640.089 252.119C676.642 259.299 687.228 265.706 709.943 271.033C776.102 286.472 784.812 255.594 850.806 264.162C913.878 272.654 916.965 302.76 961.071 295.04C998.396 288.556 1003.3 266.092 1057.88 236.68C1095.43 217.831 1134.54 205.744 1174.27 200.708C1234.53 193.683 1249.8 214.217 1331.07 229.888C1491.34 260.766 1524.47 199.01 1611.64 253.896C1629.83 265.321 1656.13 285.469 1693.73 284.774C1733.42 284.002 1750.46 260.688 1781.94 252.119C1811.71 244.4 1856.42 248.8 1919 310.48V458Z" fill="#ACD6D2"/>
<path d="M1919 458L998 484.05L-0.000305176 374.397V351.625C24.9234 323.589 54.6835 341.294 86.2823 334.487C117.212 328.466 152.442 340.123 222.295 363.668C278.916 382.812 285.311 389.605 308.963 387.675C342.814 384.896 350.147 369.38 393.812 361.969C432.846 355.331 442.715 365.134 472.211 361.969C499.777 359.036 538.37 345.526 583.744 296.739C606.53 302.072 629.037 309.525 651.116 319.048C671.93 328.385 692.376 339.259 712.368 351.625C793.909 395.24 856.981 271.959 983.124 289.868C1005.87 293.953 1028.38 300.273 1050.5 308.782C1093.51 323.238 1135.69 342.152 1176.69 365.366C1198.75 342.207 1272.85 270.261 1372.75 282.998C1407.43 287.566 1441.14 301.57 1471.98 324.221C1504.52 319.024 1537.33 317.861 1570.01 320.746C1640.86 327.076 1680.28 349.772 1739.05 367.064C1798.2 384.283 1858.64 391.206 1919 387.675V458Z" fill="url(#paint0_linear_25_12)"/>
</g>
<defs>
<linearGradient id="paint0_linear_25_12" x1="959.5" y1="281.498" x2="959.5" y2="484.05" gradientUnits="userSpaceOnUse">
<stop stop-color="#DAEFED"/>
<stop offset="1" stop-color="#FEFEFC"/>
</linearGradient>
<clipPath id="clip0_25_12">
<rect width="1919" height="458" fill="white"/>
</clipPath>
</defs>
</svg>
