<svg width="1919" height="411" viewBox="0 0 1919 411" fill="none" xmlns="http://www.w3.org/2000/svg">
<path d="M1920 174.924C1910.1 183.66 1899.45 190.588 1888.3 195.535C1858.86 208.581 1835.15 203.255 1804.99 197.234C1687.56 173.457 1690.21 179.711 1672.68 168.132C1647.42 151.38 1639.6 137.253 1601.61 114.944C1584.9 105.214 1567.71 97.1901 1550.17 90.9363L1482.52 142.27C1432.9 127.989 1380.14 110.003 1324.73 87.462C1258.24 60.4436 1197.27 30.4922 1142.19 0C1124.17 10.4056 1107.27 24.2516 1091.96 41.1448C1065.72 70.1702 1059.49 91.553 1035.56 113.168C1015.49 131.386 997.797 136.327 978.005 142.348C944.594 152.692 897.566 168.749 832.234 195.535C802.793 187.816 777.102 182.336 757.474 178.707C714.526 170.988 695.174 170.988 653.329 163.268C623.833 157.787 598.858 151.457 579.837 146.13C544.221 154.416 507.062 161.852 468.359 168.44C434.691 174.101 402.016 178.655 370.333 182.104L287.028 127.218L236.802 146.13L113.029 67.1596L1 153.001V361.674L978.005 458.309H1920V174.924Z" fill="#073034"/>
<path d="M1973 318.103C1962.05 328.396 1950.27 336.559 1937.93 342.388C1905.36 357.759 1879.13 351.484 1845.76 344.39C1715.85 316.375 1718.78 323.743 1699.39 310.101C1671.44 290.363 1662.79 273.718 1620.76 247.432C1602.28 235.968 1583.26 226.514 1563.86 219.145L1489.01 279.629C1434.12 262.802 1375.75 241.61 1314.45 215.052C1240.89 183.217 1173.44 147.927 1112.5 112C1092.57 124.26 1073.87 140.574 1056.94 160.479C1027.91 194.678 1021.01 219.872 994.54 245.34C972.336 266.805 952.762 272.627 930.866 279.721C893.903 291.908 841.876 310.828 769.599 342.388C737.028 333.293 708.606 326.836 686.891 322.561C639.378 313.466 617.969 313.466 571.675 304.37C539.044 297.912 511.414 290.453 490.371 284.177C450.969 293.94 409.859 302.701 367.042 310.463C329.795 317.134 293.646 322.499 258.595 326.563L166.435 261.894L110.869 284.177L-26.0614 191.13L-150 292.273V538.14L930.866 652H1973V318.103Z" fill="#0B3438"/>
<path d="M276.312 311.124C252.606 346.237 180.414 391.28 147.282 409.412L13 550.092C111.648 577.728 316.896 633 348.704 633C380.511 633 1555.49 563.223 2139 528.334C2031.22 481.941 1789.04 376.549 1682.52 326.129C1549.62 263.227 1491.82 279.174 1405.08 303.106L1404.58 303.245C1334.96 322.453 1264.29 388.529 1237.66 419.166C1210.28 402.784 1133.24 361.243 1044.12 326.129C819.815 242.847 751.174 327.63 675.781 370.022C600.388 412.413 533.622 421.042 485.986 394.781C411.366 339.828 325.722 321.625 277.788 311.437L276.312 311.124Z" fill="#1C4547"/>
</svg>
