<svg xmlns="http://www.w3.org/2000/svg" width="44" height="44" viewBox="0 0 44 44" fill="none"><rect width="44" height="44" rx="22" fill="#004EC4"></rect><path fill-rule="evenodd" clip-rule="evenodd" d="M22.2149 31.9429C20.2521 31.9429 19.34 31.6552 17.7545 30.504C16.7517 31.799 13.5759 32.8111 13.4374 31.0796C13.4374 29.7798 13.1509 28.6815 12.8262 27.4824C12.4393 26.0051 12 24.36 12 21.9763C12 16.2831 16.6514 12 22.1623 12C27.6781 12 31.9999 16.4941 31.9999 22.029C32.0185 27.4783 27.6406 31.9139 22.2149 31.9429ZM22.2961 16.921C19.6122 16.7819 17.5205 18.6476 17.0573 21.5734C16.6752 23.9955 17.3534 26.9452 17.9312 27.0987C18.2082 27.1658 18.9054 26.5999 19.34 26.1634C20.0586 26.662 20.8954 26.9614 21.766 27.0315C24.5469 27.1659 26.9231 25.0396 27.1098 22.2496C27.2185 19.4538 25.0774 17.0858 22.2961 16.9258L22.2961 16.921Z" fill="white"></path></svg>