<svg width="48" height="48" viewBox="0 0 48 48" fill="none" xmlns="http://www.w3.org/2000/svg">
<rect width="48" height="48" rx="24" fill="#0073FA" fill-opacity="0.2"/>
<path d="M23.5013 23.2188C28.381 23.2188 32.336 19.7063 32.336 15.3727C32.3359 11.0391 28.381 7.52734 23.5013 7.52734C18.6198 7.52734 14.6632 11.0391 14.6632 15.3727C14.6631 19.7063 18.6198 23.2188 23.5013 23.2188ZM23.5013 11.5128C25.9015 11.5128 27.8474 13.2407 27.8474 15.3726C27.8474 17.5046 25.9015 19.2324 23.5013 19.2324C21.0985 19.2324 19.1534 17.5046 19.1534 15.3726C19.1534 13.2407 21.0984 11.5128 23.5013 11.5128ZM33.6852 24.1762C33.1874 23.2861 31.8058 22.546 29.9688 23.8303C27.4859 25.5665 23.5012 25.5665 23.5012 25.5665C23.5012 25.5665 19.5139 25.5665 17.031 23.8303C15.1949 22.546 13.8141 23.2861 13.3155 24.1762C12.4444 25.727 13.4272 26.477 15.645 27.7409C17.539 28.8209 20.1421 29.2243 21.8221 29.3749L20.4191 30.6207C18.4434 32.3742 16.5366 34.0688 15.2129 35.2442C14.4211 35.9465 14.4211 37.0856 15.2129 37.7879L15.4507 38.0006C16.2425 38.7029 17.5245 38.7029 18.3163 38.0006L23.5225 33.3771C25.5 35.1314 27.4067 36.8252 28.7304 38.0006C29.5222 38.7029 30.8042 38.7029 31.596 38.0006L31.8338 37.7879C32.6256 37.0848 32.6256 35.9465 31.8338 35.2434L26.6275 30.6207L25.2212 29.3712C26.9029 29.2168 29.477 28.8118 31.3556 27.741C33.5735 26.4769 34.5546 25.7269 33.6852 24.1762Z" fill="#EE8208"/>
</svg>
