<svg width="56" height="56" viewBox="0 0 56 56" fill="none" xmlns="http://www.w3.org/2000/svg">
<g clip-path="url(#clip0_12_101)">
<path d="M28.2046 13.6518C31.656 13.6518 34.5323 10.8339 34.5323 7.32588C34.5323 3.81789 31.7136 1 28.2046 1C24.7532 1 21.877 3.81789 21.877 7.32588C21.877 10.8339 24.7532 13.6518 28.2046 13.6518ZM28.2046 2.4377C30.9082 2.4377 33.1517 4.623 33.1517 7.38338C33.1517 10.0863 30.9658 12.3291 28.2046 12.3291C25.501 12.3291 23.2575 10.1438 23.2575 7.38338C23.2575 4.623 25.501 2.4377 28.2046 2.4377Z" fill="#FEFEFC"/>
<path d="M54.38 15.0895C53.9773 13.4793 52.3091 12.4442 50.6409 12.9042C44.7734 14.3994 38.7909 15.2045 32.7509 15.3196H23.7196C17.6796 15.2045 11.6396 14.3994 5.82962 12.9042C4.21894 12.5017 2.55075 13.4793 2.09055 15.0895C1.68788 16.6997 2.66579 18.3675 4.27647 18.8275C9.62621 20.2077 15.091 21.0128 20.5558 21.3004V34.0672L14.6883 36.31C13.7104 36.7125 12.9051 37.5176 12.6175 38.5528L9.05097 50.4569C8.47573 52.2972 9.51116 54.2525 11.3519 54.77C11.6971 54.885 12.0422 54.9425 12.3874 54.9425C12.9626 54.9425 13.5378 54.8275 13.998 54.54C14.8034 54.0799 15.4361 53.3898 15.6662 52.4697L18.7725 42.2333L29.1269 38.3227C33.7863 44.5336 39.4237 49.9394 45.8089 54.3675C46.3841 54.77 47.0744 55.0001 47.7647 55.0001C47.9948 55.0001 48.1673 55.0001 48.3974 54.9425C49.3178 54.77 50.1232 54.2525 50.6409 53.5048C51.7338 51.9521 51.3312 49.7668 49.7205 48.6742C44.3708 44.9937 39.5963 40.508 35.5696 35.3898V21.2429C41.1494 20.9553 46.7292 20.1502 52.1365 18.77C53.8047 18.3675 54.7826 16.6997 54.38 15.0895ZM51.8489 17.4473C46.3266 18.8275 40.6317 19.6902 34.9368 19.9202C34.8793 19.9202 34.8793 19.9202 34.8218 19.9777C34.7642 19.9777 34.7067 19.9777 34.7067 20.0352C34.7067 20.0927 34.5917 20.0352 34.5341 20.0352C34.4766 20.0352 34.4766 20.0927 34.4191 20.0927C34.3616 20.1502 34.3616 20.1502 34.3616 20.2077C34.3616 20.2652 34.304 20.2652 34.304 20.3227C34.304 20.3803 34.304 20.4378 34.304 20.4378C34.304 20.4953 34.304 20.4953 34.304 20.5528V35.4473C34.304 35.5049 34.304 35.5049 34.304 35.5049C34.304 35.5624 34.304 35.6199 34.304 35.6199C34.304 35.6774 34.3616 35.7349 34.3616 35.7349C34.3616 35.7349 34.3616 35.7924 34.4191 35.7924C38.5608 41.0831 43.4821 46.0536 49.0619 49.8492C49.6577 50.4449 50.2534 51.6363 49.6577 52.232C49.37 52.6921 48.7426 53.1598 48.2249 53.2748C47.6496 53.3898 47.1319 53.2748 46.6717 52.9298C40.229 48.5017 34.6492 43.0959 29.9897 36.77C29.9897 36.77 29.9897 36.77 29.9322 36.77C29.8747 36.7125 29.8747 36.7125 29.8172 36.655C29.7596 36.655 29.7596 36.5975 29.7021 36.5975C29.6446 36.5975 29.5871 36.54 29.5871 36.54C29.5295 36.54 29.5295 36.54 29.472 36.54C29.4145 36.54 29.4145 36.54 29.357 36.54C29.2994 36.54 29.2419 36.54 29.2419 36.54C29.2419 36.54 29.2419 36.54 29.1844 36.54L18.0247 40.7956C18.0247 40.7956 18.0247 40.7956 17.9672 40.7956C17.9097 40.7956 17.9097 40.8531 17.8522 40.8531C17.7946 40.8531 17.7946 40.9106 17.7371 40.9106C17.7371 40.9681 17.6796 40.9681 17.6796 41.0256C17.6796 41.0831 17.6221 41.0831 17.6221 41.1406C17.6221 41.1406 17.6221 41.1406 17.6221 41.1981L14.4007 51.7796C14.2281 52.2972 13.883 52.7572 13.3653 52.9873C12.8476 53.5048 12.3298 53.5624 11.7546 53.3898C10.6616 53.0448 10.0289 51.8946 10.374 50.802L13.9405 38.8978C14.1131 38.2652 14.5733 37.8052 15.206 37.5751L21.5337 35.1598C21.5912 35.1598 21.6487 35.1023 21.7063 35.0448L21.7638 34.9873C21.8213 34.9298 21.8213 34.9298 21.8213 34.8723C21.8213 34.8148 21.8788 34.8148 21.8788 34.7572C21.8788 34.6997 21.8788 34.6997 21.8788 34.6422C21.8788 34.5847 21.9364 34.5272 21.9364 34.4697V20.6103C21.9364 20.5528 21.9364 20.5528 21.9364 20.4953C21.9364 20.4378 21.9364 20.3803 21.9364 20.3803C21.9364 20.3227 21.8788 20.3227 21.8788 20.2652C21.8788 20.2077 21.8213 20.2077 21.8213 20.1502C21.7638 20.0927 21.7638 20.0927 21.7063 20.0927C21.6487 20.0927 21.6487 20.0352 21.5912 20.0352C21.5337 20.0352 21.4762 20.0352 21.4762 19.9777C21.4186 19.9777 21.4186 19.9777 21.3611 19.9202C15.7238 19.6902 10.1439 18.8275 4.67914 17.4473C3.75875 17.2173 3.24103 16.2972 3.47113 15.4346C3.70123 14.5719 4.62161 13.9969 5.48447 14.2269C11.4095 15.7221 17.5645 16.5847 23.7196 16.6422H32.8084C38.9635 16.5272 45.061 15.7221 50.986 14.2269C51.9064 13.9969 52.8268 14.5719 52.9994 15.4346C53.287 16.2972 52.7118 17.2173 51.8489 17.4473Z" fill="#FEFEFC"/>
</g>
<defs>
<clipPath id="clip0_12_101">
<rect width="56" height="56" fill="white"/>
</clipPath>
</defs>
</svg>
