<svg width="170" height="34" viewBox="0 0 170 34" fill="none" xmlns="http://www.w3.org/2000/svg">
<g clip-path="url(#clip0_1420_1196)">
<mask id="mask0_1420_1196" style="mask-type:luminance" maskUnits="userSpaceOnUse" x="0" y="0" width="170" height="34">
<path d="M170 0H0V34H170V0Z" fill="white"/>
</mask>
<g mask="url(#mask0_1420_1196)">
<path d="M60.0008 0L62.2459 6.90983H69.5114L63.6335 11.1803L65.8787 18.0902L60.0008 13.8197L54.1229 18.0902L56.3681 11.1803L50.4902 6.90983H57.7557L60.0008 0Z" fill="#FFB900"/>
<path d="M85.0008 0L87.2459 6.90983H94.5114L88.6335 11.1803L90.8787 18.0902L85.0008 13.8197L79.1229 18.0902L81.3681 11.1803L75.4902 6.90983H82.7557L85.0008 0Z" fill="#FFB900"/>
<path d="M109.999 0L112.244 6.90983H119.51L113.632 11.1803L115.877 18.0902L109.999 13.8197L104.121 18.0902L106.366 11.1803L100.488 6.90983H107.754L109.999 0Z" fill="#FFB900"/>
<path d="M134.999 0L137.244 6.90983H144.51L138.632 11.1803L140.877 18.0902L134.999 13.8197L129.121 18.0902L131.366 11.1803L125.488 6.90983H132.754L134.999 0Z" fill="#FFB900"/>
<path d="M159.999 0L162.244 6.90983H169.51L163.632 11.1803L165.877 18.0902L159.999 13.8197L154.121 18.0902L156.366 11.1803L150.488 6.90983H157.754L159.999 0Z" fill="#FFB900"/>
<path d="M27.1436 15.1099C26.453 15.1099 25.781 15.0026 25.1276 14.7879C24.4836 14.5732 23.9563 14.2839 23.5456 13.9199L24.1896 12.8139C24.5163 13.1219 24.941 13.3739 25.4636 13.5699C25.9863 13.7659 26.5416 13.8639 27.1296 13.8639C27.8763 13.8639 28.4503 13.7052 28.8516 13.3879C29.253 13.0706 29.4536 12.6459 29.4536 12.1139C29.4536 11.7499 29.365 11.4326 29.1876 11.1619C29.0103 10.8912 28.7023 10.6859 28.2636 10.5459C27.8343 10.3966 27.2416 10.3219 26.4856 10.3219H24.2596L24.7776 5.19794H30.3076V6.41594H25.2956L26.0236 5.72994L25.6176 9.77594L24.8896 9.10394H26.7796C27.7596 9.10394 28.5483 9.22994 29.1456 9.48194C29.743 9.73394 30.177 10.0839 30.4476 10.5319C30.7183 10.9706 30.8536 11.4792 30.8536 12.0579C30.8536 12.6179 30.7183 13.1312 30.4476 13.5979C30.177 14.0552 29.7663 14.4239 29.2156 14.7039C28.6743 14.9746 27.9836 15.1099 27.1436 15.1099ZM32.0887 17.0699L32.7887 14.2419L32.9707 15.0539C32.7 15.0539 32.4713 14.9699 32.2847 14.8019C32.1073 14.6339 32.0187 14.4052 32.0187 14.1159C32.0187 13.8359 32.1073 13.6072 32.2847 13.4299C32.4713 13.2526 32.6953 13.1639 32.9567 13.1639C33.2273 13.1639 33.4467 13.2572 33.6147 13.4439C33.7827 13.6212 33.8667 13.8452 33.8667 14.1159C33.8667 14.2092 33.8573 14.3026 33.8387 14.3959C33.8293 14.4799 33.806 14.5826 33.7687 14.7039C33.7407 14.8159 33.694 14.9559 33.6287 15.1239L32.9707 17.0699H32.0887ZM39.0305 15.1099C38.2652 15.1099 37.5792 14.9139 36.9725 14.5219C36.3752 14.1299 35.8992 13.5606 35.5445 12.8139C35.1992 12.0672 35.0265 11.1619 35.0265 10.0979C35.0265 9.03394 35.1992 8.12861 35.5445 7.38194C35.8992 6.63527 36.3752 6.06594 36.9725 5.67394C37.5792 5.28194 38.2652 5.08594 39.0305 5.08594C39.7865 5.08594 40.4678 5.28194 41.0745 5.67394C41.6812 6.06594 42.1572 6.63527 42.5025 7.38194C42.8478 8.12861 43.0205 9.03394 43.0205 10.0979C43.0205 11.1619 42.8478 12.0672 42.5025 12.8139C42.1572 13.5606 41.6812 14.1299 41.0745 14.5219C40.4678 14.9139 39.7865 15.1099 39.0305 15.1099ZM39.0305 13.8639C39.5438 13.8639 39.9918 13.7239 40.3745 13.4439C40.7665 13.1639 41.0698 12.7439 41.2845 12.1839C41.5085 11.6239 41.6205 10.9286 41.6205 10.0979C41.6205 9.26727 41.5085 8.57194 41.2845 8.01194C41.0698 7.45194 40.7665 7.03194 40.3745 6.75194C39.9918 6.47194 39.5438 6.33194 39.0305 6.33194C38.5172 6.33194 38.0645 6.47194 37.6725 6.75194C37.2805 7.03194 36.9725 7.45194 36.7485 8.01194C36.5338 8.57194 36.4265 9.26727 36.4265 10.0979C36.4265 10.9286 36.5338 11.6239 36.7485 12.1839C36.9725 12.7439 37.2805 13.1639 37.6725 13.4439C38.0645 13.7239 38.5172 13.8639 39.0305 13.8639Z" fill="white"/>
<path fill-rule="evenodd" clip-rule="evenodd" d="M8.83098 3C8.67345 3.00118 8.47583 3.00322 8.20726 3.00649C7.7786 3.01781 7.45339 3.04374 7.13469 3.10035C6.74635 3.16923 6.39477 3.28259 6.05863 3.45191C5.71703 3.62358 5.4042 3.84822 5.13279 4.11681C4.86168 4.38453 4.63417 4.69409 4.45967 5.03282C4.28817 5.36588 4.17332 5.71428 4.10301 6.10005C4.0456 6.41582 4.01955 6.73674 4.00816 7.15627L4.00426 7.33105C4.00322 7.39105 4.00242 7.45315 4.00186 7.51851L4 7.89816L4.00002 14.1074L4.00118 14.3782C4.00207 14.5506 4.00421 14.699 4.00816 14.8415C4.01958 15.2607 4.04562 15.5817 4.10299 15.897C4.17334 16.2831 4.28821 16.6317 4.45965 16.9646C4.63422 17.3031 4.86163 17.6126 5.13297 17.8808C5.40465 18.1494 5.7175 18.3741 6.05903 18.5458C6.39477 18.7149 6.74635 18.8282 7.13483 18.8971C7.42443 18.9486 7.71952 18.9747 8.08778 18.9874L8.36376 18.9942C8.50726 18.9962 8.71936 18.9973 9.1428 18.9986L15.1475 18.9976C15.3067 18.9966 15.499 18.9946 15.7928 18.991C16.2215 18.9796 16.5467 18.9537 16.8654 18.8971C17.2538 18.8282 17.6053 18.7149 17.9415 18.5456C18.2827 18.3739 18.5957 18.1491 18.8671 17.8808C19.1387 17.6124 19.3661 17.3028 19.5402 16.9645C19.7119 16.6317 19.8268 16.2829 19.8969 15.8968C19.9491 15.61 19.9756 15.3176 19.9885 14.9529L19.992 14.8412C19.9943 14.7559 19.996 14.6683 19.9972 14.5748L20 13.8388L19.9996 7.75207L19.9972 7.42267C19.996 7.32914 19.9943 7.2415 19.9919 7.15597C19.9806 6.73846 19.9543 6.41624 19.8969 6.10026C19.8269 5.71445 19.7119 5.36581 19.54 5.03258C19.3661 4.69439 19.1386 4.38469 18.8669 4.11643C18.5962 3.84848 18.2832 3.62379 17.9412 3.45179C17.6053 3.28259 17.2538 3.16923 16.8653 3.10033C16.5757 3.04889 16.2806 3.02278 15.9123 3.01005L15.5954 3.0028C15.5702 3.00249 15.5429 3.00221 15.5129 3.00195L8.83098 3Z" fill="#1A1A1A" fill-opacity="0.01"/>
<path fill-rule="evenodd" clip-rule="evenodd" d="M8.21299 3.47536L8.85712 3.46875L15.5591 3.47134C15.6607 3.47237 15.7239 3.47364 15.7871 3.47536C16.1194 3.48418 16.4545 3.50364 16.7831 3.56202C17.1167 3.62117 17.4269 3.71795 17.7298 3.87052C18.0274 4.02021 18.3001 4.21584 18.5363 4.44963C18.7725 4.68285 18.9704 4.95217 19.1218 5.24665C19.2764 5.54632 19.374 5.853 19.4339 6.18277C19.4929 6.5076 19.5126 6.83892 19.5215 7.16739C19.5257 7.31812 19.5276 7.46888 19.5283 7.61987L19.5293 7.88832L19.5294 13.8371C19.5294 14.0162 19.5294 14.1952 19.5283 14.3745C19.5276 14.5252 19.5257 14.676 19.5215 14.8267C19.5126 15.1549 19.4929 15.4865 19.4339 15.8111C19.374 16.1408 19.2764 16.4478 19.1218 16.7475C18.9704 17.0417 18.7725 17.311 18.5363 17.5445C18.3001 17.778 18.0274 17.9739 17.7298 18.1236C17.4269 18.2762 17.1167 18.3729 16.7831 18.4321C16.4545 18.4905 16.1194 18.5099 15.7871 18.5187L14.7861 18.5265L8.44081 18.5228C8.33918 18.5217 8.2761 18.5205 8.21299 18.5187C7.88073 18.5099 7.54557 18.4905 7.21698 18.4321C6.88343 18.3729 6.57321 18.2762 6.27034 18.1236C5.97246 17.9739 5.70003 17.778 5.46382 17.5445C5.22762 17.311 5.02972 17.0417 4.87802 16.7475C4.72371 16.4478 4.62607 16.1408 4.56597 15.8111C4.50691 15.4865 4.4875 15.1549 4.47858 14.8267C4.47437 14.676 4.47254 14.5252 4.47176 14.3745L4.47061 14.1057L4.47044 8.15695C4.47044 7.97792 4.47044 7.79864 4.47176 7.61987C4.47254 7.46888 4.47437 7.31812 4.47858 7.16739C4.4875 6.83892 4.50691 6.5076 4.56597 6.18277C4.62607 5.853 4.72371 5.54632 4.87802 5.24665C5.02972 4.95217 5.22762 4.68285 5.46382 4.44963C5.70003 4.21584 5.97246 4.02021 6.27034 3.87052C6.57321 3.71795 6.88343 3.62117 7.21698 3.56202C7.54557 3.50364 7.88073 3.48418 8.21299 3.47536Z" fill="#1A1A1A" fill-opacity="0.01"/>
<mask id="mask1_1420_1196" style="mask-type:alpha" maskUnits="userSpaceOnUse" x="4" y="3" width="16" height="16">
<path fill-rule="evenodd" clip-rule="evenodd" d="M8.21299 3.47536L8.85712 3.46875L15.5591 3.47134C15.6607 3.47237 15.7239 3.47364 15.7871 3.47536C16.1194 3.48418 16.4545 3.50364 16.7831 3.56202C17.1167 3.62117 17.4269 3.71795 17.7298 3.87052C18.0274 4.02021 18.3001 4.21584 18.5363 4.44963C18.7725 4.68285 18.9704 4.95217 19.1218 5.24665C19.2764 5.54632 19.374 5.853 19.4339 6.18277C19.4929 6.5076 19.5126 6.83892 19.5215 7.16739C19.5257 7.31812 19.5276 7.46888 19.5283 7.61987L19.5293 7.88832L19.5294 13.8371C19.5294 14.0162 19.5294 14.1952 19.5283 14.3745C19.5276 14.5252 19.5257 14.676 19.5215 14.8267C19.5126 15.1549 19.4929 15.4865 19.4339 15.8111C19.374 16.1408 19.2764 16.4478 19.1218 16.7475C18.9704 17.0417 18.7725 17.311 18.5363 17.5445C18.3001 17.778 18.0274 17.9739 17.7298 18.1236C17.4269 18.2762 17.1167 18.3729 16.7831 18.4321C16.4545 18.4905 16.1194 18.5099 15.7871 18.5187L14.7861 18.5265L8.44081 18.5228C8.33918 18.5217 8.2761 18.5205 8.21299 18.5187C7.88073 18.5099 7.54557 18.4905 7.21698 18.4321C6.88343 18.3729 6.57321 18.2762 6.27034 18.1236C5.97246 17.9739 5.70003 17.778 5.46382 17.5445C5.22762 17.311 5.02972 17.0417 4.87802 16.7475C4.72371 16.4478 4.62607 16.1408 4.56597 15.8111C4.50691 15.4865 4.4875 15.1549 4.47858 14.8267C4.47437 14.676 4.47254 14.5252 4.47176 14.3745L4.47061 14.1057L4.47044 8.15695C4.47044 7.97792 4.47044 7.79864 4.47176 7.61987C4.47254 7.46888 4.47437 7.31812 4.47858 7.16739C4.4875 6.83892 4.50691 6.5076 4.56597 6.18277C4.62607 5.853 4.72371 5.54632 4.87802 5.24665C5.02972 4.95217 5.22762 4.68285 5.46382 4.44963C5.70003 4.21584 5.97246 4.02021 6.27034 3.87052C6.57321 3.71795 6.88343 3.62117 7.21698 3.56202C7.54557 3.50364 7.88073 3.48418 8.21299 3.47536Z" fill="white"/>
</mask>
<g mask="url(#mask1_1420_1196)">
<path d="M19.5294 3.46875H4.47044V18.5277H19.5294V3.46875Z" fill="#19AA1E"/>
<path fill-rule="evenodd" clip-rule="evenodd" d="M4.47044 3.46875H19.5294V8.40997L4.47044 6.05701V3.46875Z" fill="#FFB919"/>
<path fill-rule="evenodd" clip-rule="evenodd" d="M4.47044 16.8841L19.5294 14.5312V18.5312H4.47044V16.8841Z" fill="#82D714"/>
<path fill-rule="evenodd" clip-rule="evenodd" d="M4.47044 5.75781L9.72689 6.57911C10.3812 6.16492 11.1597 5.93783 11.9999 5.93783C13.1637 5.93783 14.209 6.37348 14.9701 7.13848C15.0661 7.23502 15.1567 7.33596 15.2416 7.44079L19.5294 8.11074V8.70611L15.677 8.1042C15.9632 8.65343 16.1176 9.26537 16.1176 9.88987C16.1176 10.6967 15.9371 11.5011 15.5641 12.3087L15.5528 12.3332L15.3943 12.6727H15.0197C14.2461 12.6727 13.733 12.9041 13.3975 13.3142C13.134 13.6362 12.9817 14.0703 12.9305 14.5439L12.9289 14.5587L12.9214 14.6344L12.9182 14.6673L12.9121 14.7317C12.8925 14.9431 12.8794 15.1224 12.8727 15.2686L19.5294 14.2285V14.8238L4.47044 17.1768V16.5814L11.1346 15.5401L11.1317 15.4065L11.1308 15.3688L11.1303 15.3495L11.1292 15.3196C11.1232 15.1576 11.1084 14.9498 11.0846 14.698L11.08 14.6503L11.0719 14.5676C11.024 14.0915 10.874 13.6519 10.6113 13.3251C10.2793 12.9122 9.77084 12.6774 9.00347 12.6727H8.98015H8.60551L8.44709 12.3332C8.06636 11.5173 7.88224 10.7048 7.88224 9.88987C7.88224 8.86503 8.29801 7.87404 9.0298 7.13848C9.05093 7.11725 9.07227 7.09627 9.09382 7.07556L4.47044 6.35315V5.75781Z" fill="white"/>
<path fill-rule="evenodd" clip-rule="evenodd" d="M11.9999 6.53125C14.1023 6.53125 15.5294 8.14945 15.5294 9.89504C15.5294 10.5958 15.3765 11.325 15.0197 12.0895C12.951 12.0895 12.4403 13.5711 12.3438 14.5032L12.3376 14.5653C12.3049 14.898 12.286 15.165 12.2808 15.3662L11.7205 15.4537L11.7203 15.4356C11.7182 15.2247 11.6983 14.9288 11.6605 14.5479L11.6589 14.5313C11.5697 13.6011 11.0698 12.0895 8.98015 12.0895C8.62337 11.325 8.47047 10.5958 8.47047 9.89504C8.47047 8.14945 9.89754 6.53125 11.9999 6.53125Z" fill="#0073FA"/>
</g>
<path d="M23.305 31.9975V24.9975H25.925C26.5183 24.9975 27.0283 25.0942 27.455 25.2875C27.8817 25.4742 28.2083 25.7475 28.435 26.1075C28.6683 26.4608 28.785 26.8908 28.785 27.3975C28.785 27.8908 28.6683 28.3175 28.435 28.6775C28.2083 29.0308 27.8817 29.3042 27.455 29.4975C27.0283 29.6908 26.5183 29.7875 25.925 29.7875H23.715L24.045 29.4375V31.9975H23.305ZM24.045 29.4975L23.715 29.1375H25.905C26.605 29.1375 27.135 28.9875 27.495 28.6875C27.8617 28.3808 28.045 27.9508 28.045 27.3975C28.045 26.8375 27.8617 26.4042 27.495 26.0975C27.135 25.7908 26.605 25.6375 25.905 25.6375H23.715L24.045 25.2875V29.4975ZM32.3479 32.0475C31.8012 32.0475 31.3212 31.9342 30.9079 31.7075C30.4946 31.4742 30.1712 31.1575 29.9379 30.7575C29.7046 30.3508 29.5879 29.8875 29.5879 29.3675C29.5879 28.8475 29.6979 28.3875 29.9179 27.9875C30.1446 27.5875 30.4512 27.2742 30.8379 27.0475C31.2312 26.8142 31.6712 26.6975 32.1579 26.6975C32.6512 26.6975 33.0879 26.8108 33.4679 27.0375C33.8546 27.2575 34.1579 27.5708 34.3779 27.9775C34.5979 28.3775 34.7079 28.8408 34.7079 29.3675C34.7079 29.4008 34.7046 29.4375 34.6979 29.4775C34.6979 29.5108 34.6979 29.5475 34.6979 29.5875H30.1279V29.0575H34.3179L34.0379 29.2675C34.0379 28.8875 33.9546 28.5508 33.7879 28.2575C33.6279 27.9575 33.4079 27.7242 33.1279 27.5575C32.8479 27.3908 32.5246 27.3075 32.1579 27.3075C31.7979 27.3075 31.4746 27.3908 31.1879 27.5575C30.9012 27.7242 30.6779 27.9575 30.5179 28.2575C30.3579 28.5575 30.2779 28.9008 30.2779 29.2875V29.3975C30.2779 29.7975 30.3646 30.1508 30.5379 30.4575C30.7179 30.7575 30.9646 30.9942 31.2779 31.1675C31.5979 31.3342 31.9612 31.4175 32.3679 31.4175C32.6879 31.4175 32.9846 31.3608 33.2579 31.2475C33.5379 31.1342 33.7779 30.9608 33.9779 30.7275L34.3779 31.1875C34.1446 31.4675 33.8512 31.6808 33.4979 31.8275C33.1512 31.9742 32.7679 32.0475 32.3479 32.0475ZM36.2795 31.9975V26.7475H36.9895V30.9175L40.4995 26.7475H41.1295V31.9975H40.4195V27.8175L36.9195 31.9975H36.2795ZM38.6595 25.9875C38.2195 25.9875 37.8629 25.8775 37.5895 25.6575C37.3229 25.4308 37.1829 25.1075 37.1695 24.6875H37.6795C37.6862 24.9542 37.7795 25.1642 37.9595 25.3175C38.1395 25.4708 38.3729 25.5475 38.6595 25.5475C38.9462 25.5475 39.1795 25.4708 39.3595 25.3175C39.5462 25.1642 39.6429 24.9542 39.6495 24.6875H40.1595C40.1529 25.1075 40.0129 25.4308 39.7395 25.6575C39.4662 25.8775 39.1062 25.9875 38.6595 25.9875ZM44.1643 31.9975V27.1775L44.3443 27.3675H42.1743V26.7475H46.8643V27.3675H44.6943L44.8743 27.1775V31.9975H44.1643ZM47.8909 31.9975V26.7475H48.6009V30.9175L52.1109 26.7475H52.7409V31.9975H52.0309V27.8175L48.5309 31.9975H47.8909ZM54.7756 31.9975V26.7475H55.4856V29.0675H58.7956V26.7475H59.5056V31.9975H58.7956V29.6775H55.4856V31.9975H54.7756ZM61.5237 31.9975V26.7475H65.2437V27.3675H62.0537L62.2337 27.1875V31.9975H61.5237ZM71.047 32.0475C70.5403 32.0475 70.0836 31.9342 69.677 31.7075C69.277 31.4742 68.9603 31.1575 68.727 30.7575C68.4936 30.3508 68.377 29.8875 68.377 29.3675C68.377 28.8408 68.4936 28.3775 68.727 27.9775C68.9603 27.5775 69.277 27.2642 69.677 27.0375C70.077 26.8108 70.5336 26.6975 71.047 26.6975C71.567 26.6975 72.027 26.8108 72.427 27.0375C72.8336 27.2642 73.1503 27.5775 73.377 27.9775C73.6103 28.3775 73.727 28.8408 73.727 29.3675C73.727 29.8875 73.6103 30.3508 73.377 30.7575C73.1503 31.1575 72.8336 31.4742 72.427 31.7075C72.0203 31.9342 71.5603 32.0475 71.047 32.0475ZM71.047 31.4175C71.427 31.4175 71.7636 31.3342 72.057 31.1675C72.3503 30.9942 72.5803 30.7542 72.747 30.4475C72.9203 30.1342 73.007 29.7742 73.007 29.3675C73.007 28.9542 72.9203 28.5942 72.747 28.2875C72.5803 27.9808 72.3503 27.7442 72.057 27.5775C71.7636 27.4042 71.4303 27.3175 71.057 27.3175C70.6836 27.3175 70.3503 27.4042 70.057 27.5775C69.7636 27.7442 69.5303 27.9808 69.357 28.2875C69.1836 28.5942 69.097 28.9542 69.097 29.3675C69.097 29.7742 69.1836 30.1342 69.357 30.4475C69.5303 30.7542 69.7636 30.9942 70.057 31.1675C70.3503 31.3342 70.6803 31.4175 71.047 31.4175ZM77.9544 32.0475C77.501 32.0475 77.091 31.9442 76.7244 31.7375C76.3577 31.5242 76.0644 31.2208 75.8444 30.8275C75.631 30.4275 75.5244 29.9408 75.5244 29.3675C75.5244 28.7942 75.631 28.3108 75.8444 27.9175C76.0577 27.5175 76.3477 27.2142 76.7144 27.0075C77.081 26.8008 77.4944 26.6975 77.9544 26.6975C78.4544 26.6975 78.901 26.8108 79.2944 27.0375C79.6944 27.2575 80.0077 27.5708 80.2344 27.9775C80.461 28.3775 80.5744 28.8408 80.5744 29.3675C80.5744 29.9008 80.461 30.3675 80.2344 30.7675C80.0077 31.1675 79.6944 31.4808 79.2944 31.7075C78.901 31.9342 78.4544 32.0475 77.9544 32.0475ZM75.2444 33.9375V26.7475H75.9244V28.3275L75.8544 29.3775L75.9544 30.4375V33.9375H75.2444ZM77.9044 31.4175C78.2777 31.4175 78.611 31.3342 78.9044 31.1675C79.1977 30.9942 79.431 30.7542 79.6044 30.4475C79.7777 30.1342 79.8644 29.7742 79.8644 29.3675C79.8644 28.9608 79.7777 28.6042 79.6044 28.2975C79.431 27.9908 79.1977 27.7508 78.9044 27.5775C78.611 27.4042 78.2777 27.3175 77.9044 27.3175C77.531 27.3175 77.1944 27.4042 76.8944 27.5775C76.601 27.7508 76.3677 27.9908 76.1944 28.2975C76.0277 28.6042 75.9444 28.9608 75.9444 29.3675C75.9444 29.7742 76.0277 30.1342 76.1944 30.4475C76.3677 30.7542 76.601 30.9942 76.8944 31.1675C77.1944 31.3342 77.531 31.4175 77.9044 31.4175ZM82.0998 31.9975V26.7475H85.8198V27.3675H82.6298L82.8098 27.1875V31.9975H82.0998ZM90.1059 31.9975V30.8375L90.0759 30.6475V28.7075C90.0759 28.2608 89.9493 27.9175 89.6959 27.6775C89.4493 27.4375 89.0793 27.3175 88.5859 27.3175C88.2459 27.3175 87.9226 27.3742 87.6159 27.4875C87.3093 27.6008 87.0493 27.7508 86.8359 27.9375L86.5159 27.4075C86.7826 27.1808 87.1026 27.0075 87.4759 26.8875C87.8493 26.7608 88.2426 26.6975 88.6559 26.6975C89.3359 26.6975 89.8593 26.8675 90.2259 27.2075C90.5993 27.5408 90.7859 28.0508 90.7859 28.7375V31.9975H90.1059ZM88.2959 32.0475C87.9026 32.0475 87.5593 31.9842 87.2659 31.8575C86.9793 31.7242 86.7593 31.5442 86.6059 31.3175C86.4526 31.0842 86.3759 30.8175 86.3759 30.5175C86.3759 30.2442 86.4393 29.9975 86.5659 29.7775C86.6993 29.5508 86.9126 29.3708 87.2059 29.2375C87.5059 29.0975 87.9059 29.0275 88.4059 29.0275H90.2159V29.5575H88.4259C87.9193 29.5575 87.5659 29.6475 87.3659 29.8275C87.1726 30.0075 87.0759 30.2308 87.0759 30.4975C87.0759 30.7975 87.1926 31.0375 87.4259 31.2175C87.6593 31.3975 87.9859 31.4875 88.4059 31.4875C88.8059 31.4875 89.1493 31.3975 89.4359 31.2175C89.7293 31.0308 89.9426 30.7642 90.0759 30.4175L90.2359 30.9075C90.1026 31.2542 89.8693 31.5308 89.5359 31.7375C89.2093 31.9442 88.7959 32.0475 88.2959 32.0475ZM92.676 31.9975V26.7475H93.386V29.0675H96.696V26.7475H97.406V31.9975H96.696V29.6775H93.386V31.9975H92.676ZM99.4241 31.9975V26.7475H100.134V30.9175L103.644 26.7475H104.274V31.9975H103.564V27.8175L100.064 31.9975H99.4241ZM107.611 32.0575C107.231 32.0575 106.855 32.0042 106.481 31.8975C106.108 31.7908 105.778 31.6275 105.491 31.4075L105.721 30.8775C105.975 31.0642 106.268 31.2075 106.601 31.3075C106.935 31.4008 107.265 31.4475 107.591 31.4475C107.918 31.4408 108.201 31.3942 108.441 31.3075C108.681 31.2208 108.868 31.1008 109.001 30.9475C109.135 30.7942 109.201 30.6208 109.201 30.4275C109.201 30.1475 109.075 29.9308 108.821 29.7775C108.568 29.6175 108.221 29.5375 107.781 29.5375H106.881V29.0175H107.731C107.991 29.0175 108.221 28.9842 108.421 28.9175C108.621 28.8508 108.775 28.7542 108.881 28.6275C108.995 28.5008 109.051 28.3508 109.051 28.1775C109.051 27.9908 108.985 27.8308 108.851 27.6975C108.725 27.5642 108.548 27.4642 108.321 27.3975C108.095 27.3308 107.838 27.2975 107.551 27.2975C107.291 27.3042 107.021 27.3442 106.741 27.4175C106.461 27.4842 106.185 27.5875 105.911 27.7275L105.711 27.1775C106.018 27.0175 106.321 26.8975 106.621 26.8175C106.928 26.7308 107.235 26.6875 107.541 26.6875C107.961 26.6742 108.338 26.7242 108.671 26.8375C109.011 26.9508 109.281 27.1142 109.481 27.3275C109.681 27.5342 109.781 27.7842 109.781 28.0775C109.781 28.3375 109.701 28.5642 109.541 28.7575C109.381 28.9508 109.168 29.1008 108.901 29.2075C108.635 29.3142 108.331 29.3675 107.991 29.3675L108.021 29.1775C108.621 29.1775 109.088 29.2942 109.421 29.5275C109.761 29.7608 109.931 30.0775 109.931 30.4775C109.931 30.7908 109.828 31.0675 109.621 31.3075C109.415 31.5408 109.135 31.7242 108.781 31.8575C108.435 31.9908 108.045 32.0575 107.611 32.0575ZM114.803 31.9975V30.8375L114.773 30.6475V28.7075C114.773 28.2608 114.647 27.9175 114.393 27.6775C114.147 27.4375 113.777 27.3175 113.283 27.3175C112.943 27.3175 112.62 27.3742 112.313 27.4875C112.007 27.6008 111.747 27.7508 111.533 27.9375L111.213 27.4075C111.48 27.1808 111.8 27.0075 112.173 26.8875C112.547 26.7608 112.94 26.6975 113.353 26.6975C114.033 26.6975 114.557 26.8675 114.923 27.2075C115.297 27.5408 115.483 28.0508 115.483 28.7375V31.9975H114.803ZM112.993 32.0475C112.6 32.0475 112.257 31.9842 111.963 31.8575C111.677 31.7242 111.457 31.5442 111.303 31.3175C111.15 31.0842 111.073 30.8175 111.073 30.5175C111.073 30.2442 111.137 29.9975 111.263 29.7775C111.397 29.5508 111.61 29.3708 111.903 29.2375C112.203 29.0975 112.603 29.0275 113.103 29.0275H114.913V29.5575H113.123C112.617 29.5575 112.263 29.6475 112.063 29.8275C111.87 30.0075 111.773 30.2308 111.773 30.4975C111.773 30.7975 111.89 31.0375 112.123 31.2175C112.357 31.3975 112.683 31.4875 113.103 31.4875C113.503 31.4875 113.847 31.3975 114.133 31.2175C114.427 31.0308 114.64 30.7642 114.773 30.4175L114.933 30.9075C114.8 31.2542 114.567 31.5308 114.233 31.7375C113.907 31.9442 113.493 32.0475 112.993 32.0475ZM117.373 31.9975V26.7475H118.083V31.3775H121.293V26.7475H122.003V31.9975H117.373ZM122.183 33.2675V31.9375L122.363 31.9975H121.293V31.3775H122.853V33.2675H122.183ZM124.209 31.9975V26.7475H124.919V30.9175L128.429 26.7475H129.059V31.9975H128.349V27.8175L124.849 31.9975H124.209ZM131.094 31.9975V26.7475H131.804V30.9175L135.314 26.7475H135.944V31.9975H135.234V27.8175L131.734 31.9975H131.094ZM140.596 31.9975V26.7475H142.916C143.509 26.7475 143.976 26.8608 144.316 27.0875C144.663 27.3142 144.836 27.6475 144.836 28.0875C144.836 28.5142 144.673 28.8442 144.346 29.0775C144.019 29.3042 143.589 29.4175 143.056 29.4175L143.196 29.2075C143.823 29.2075 144.283 29.3242 144.576 29.5575C144.869 29.7908 145.016 30.1275 145.016 30.5675C145.016 31.0208 144.849 31.3742 144.516 31.6275C144.189 31.8742 143.679 31.9975 142.986 31.9975H140.596ZM141.286 31.4375H142.956C143.403 31.4375 143.739 31.3675 143.966 31.2275C144.199 31.0808 144.316 30.8475 144.316 30.5275C144.316 30.2075 144.213 29.9742 144.006 29.8275C143.799 29.6808 143.473 29.6075 143.026 29.6075H141.286V31.4375ZM141.286 29.0775H142.866C143.273 29.0775 143.583 29.0008 143.796 28.8475C144.016 28.6942 144.126 28.4708 144.126 28.1775C144.126 27.8842 144.016 27.6642 143.796 27.5175C143.583 27.3708 143.273 27.2975 142.866 27.2975H141.286V29.0775ZM148.677 31.9975V31.4875L151.587 28.6375C151.854 28.3775 152.054 28.1508 152.187 27.9575C152.32 27.7575 152.41 27.5708 152.457 27.3975C152.504 27.2242 152.527 27.0608 152.527 26.9075C152.527 26.5008 152.387 26.1808 152.107 25.9475C151.834 25.7142 151.427 25.5975 150.887 25.5975C150.474 25.5975 150.107 25.6608 149.787 25.7875C149.474 25.9142 149.204 26.1108 148.977 26.3775L148.467 25.9375C148.74 25.6175 149.09 25.3708 149.517 25.1975C149.944 25.0242 150.42 24.9375 150.947 24.9375C151.42 24.9375 151.83 25.0142 152.177 25.1675C152.524 25.3142 152.79 25.5308 152.977 25.8175C153.17 26.1042 153.267 26.4408 153.267 26.8275C153.267 27.0542 153.234 27.2775 153.167 27.4975C153.107 27.7175 152.994 27.9508 152.827 28.1975C152.667 28.4375 152.43 28.7108 152.117 29.0175L149.447 31.6375L149.247 31.3575H153.587V31.9975H148.677ZM158.181 32.0575C157.647 32.0575 157.154 31.9708 156.701 31.7975C156.254 31.6175 155.864 31.3675 155.531 31.0475C155.204 30.7275 154.947 30.3508 154.761 29.9175C154.581 29.4842 154.491 29.0108 154.491 28.4975C154.491 27.9842 154.581 27.5108 154.761 27.0775C154.947 26.6442 155.207 26.2675 155.541 25.9475C155.874 25.6275 156.264 25.3808 156.711 25.2075C157.164 25.0275 157.657 24.9375 158.191 24.9375C158.724 24.9375 159.211 25.0208 159.651 25.1875C160.097 25.3542 160.477 25.6075 160.791 25.9475L160.331 26.4175C160.037 26.1242 159.714 25.9142 159.361 25.7875C159.007 25.6608 158.627 25.5975 158.221 25.5975C157.787 25.5975 157.387 25.6708 157.021 25.8175C156.661 25.9575 156.344 26.1608 156.071 26.4275C155.804 26.6875 155.594 26.9942 155.441 27.3475C155.294 27.6942 155.221 28.0775 155.221 28.4975C155.221 28.9108 155.294 29.2942 155.441 29.6475C155.594 30.0008 155.804 30.3108 156.071 30.5775C156.344 30.8375 156.661 31.0408 157.021 31.1875C157.387 31.3275 157.784 31.3975 158.211 31.3975C158.611 31.3975 158.987 31.3375 159.341 31.2175C159.701 31.0975 160.031 30.8942 160.331 30.6075L160.751 31.1675C160.417 31.4608 160.027 31.6842 159.581 31.8375C159.134 31.9842 158.667 32.0575 158.181 32.0575ZM160.041 31.0775V28.4975H160.751V31.1675L160.041 31.0775ZM162.845 31.9975V24.9975H163.585V31.9975H162.845ZM167.793 32.0575C167.273 32.0575 166.773 31.9742 166.293 31.8075C165.819 31.6342 165.453 31.4142 165.193 31.1475L165.483 30.5775C165.729 30.8175 166.059 31.0208 166.473 31.1875C166.893 31.3475 167.333 31.4275 167.793 31.4275C168.233 31.4275 168.589 31.3742 168.863 31.2675C169.143 31.1542 169.346 31.0042 169.473 30.8175C169.606 30.6308 169.673 30.4242 169.673 30.1975C169.673 29.9242 169.593 29.7042 169.433 29.5375C169.279 29.3708 169.076 29.2408 168.823 29.1475C168.569 29.0475 168.289 28.9608 167.983 28.8875C167.676 28.8142 167.369 28.7375 167.063 28.6575C166.756 28.5708 166.473 28.4575 166.213 28.3175C165.959 28.1775 165.753 27.9942 165.593 27.7675C165.439 27.5342 165.363 27.2308 165.363 26.8575C165.363 26.5108 165.453 26.1942 165.633 25.9075C165.819 25.6142 166.103 25.3808 166.483 25.2075C166.863 25.0275 167.349 24.9375 167.943 24.9375C168.336 24.9375 168.726 24.9942 169.113 25.1075C169.499 25.2142 169.833 25.3642 170.113 25.5575L169.863 26.1475C169.563 25.9475 169.243 25.8008 168.903 25.7075C168.569 25.6142 168.246 25.5675 167.933 25.5675C167.513 25.5675 167.166 25.6242 166.893 25.7375C166.619 25.8508 166.416 26.0042 166.283 26.1975C166.156 26.3842 166.093 26.5975 166.093 26.8375C166.093 27.1108 166.169 27.3308 166.323 27.4975C166.483 27.6642 166.689 27.7942 166.943 27.8875C167.203 27.9808 167.486 28.0642 167.793 28.1375C168.099 28.2108 168.403 28.2908 168.703 28.3775C169.009 28.4642 169.289 28.5775 169.543 28.7175C169.803 28.8508 170.009 29.0308 170.163 29.2575C170.323 29.4842 170.403 29.7808 170.403 30.1475C170.403 30.4875 170.309 30.8042 170.123 31.0975C169.936 31.3842 169.649 31.6175 169.263 31.7975C168.883 31.9708 168.393 32.0575 167.793 32.0575Z" fill="white"/>
</g>
</g>
<defs>
<clipPath id="clip0_1420_1196">
<rect width="170" height="34" fill="white"/>
</clipPath>
</defs>
</svg>
