<svg width="48" height="48" viewBox="0 0 48 48" fill="none" xmlns="http://www.w3.org/2000/svg">
<rect width="48" height="48" rx="24" fill="#0073FA" fill-opacity="0.2"/>
<path d="M12.31 16.6703C12.0892 18.518 12.2572 20.3914 12.8031 22.1703C13.349 23.9493 14.2608 25.5944 15.48 27.0003C16.7775 28.4053 18.3611 29.5161 20.124 30.2578C21.8868 30.9995 23.7882 31.355 25.7 31.3003C25.7 29.5903 25.7 27.8703 25.63 26.1603C27.0461 26.3015 28.3836 26.8784 29.4582 27.8115C30.5328 28.7446 31.2915 29.9879 31.63 31.3703L35.79 31.4403C35.1511 29.4115 34.0643 27.5524 32.61 26.0003C31.8556 25.1967 31.006 24.4881 30.08 23.8903C31.0638 23.2552 31.9413 22.4689 32.68 21.5603C33.8475 20.1217 34.6442 18.4186 35 16.6003L31.2 16.5303C30.8573 17.9427 30.1702 19.2482 29.2 20.3303C28.2678 21.357 27.1111 22.1544 25.82 22.6603L25.67 16.6603L22 16.7403V26.6803C20.3803 25.9068 18.9986 24.7117 18 23.2203C16.7098 21.2925 16.1203 18.9804 16.33 16.6703H12.31Z" fill="#0073FA"/>
</svg>
