<svg width="48" height="48" viewBox="0 0 48 48" fill="none" xmlns="http://www.w3.org/2000/svg">
<rect width="48" height="48" rx="24" fill="#0073FA" fill-opacity="0.2"/>
<path d="M12.3101 16.67C12.0893 18.5177 12.2573 20.3911 12.8032 22.1701C13.3491 23.949 14.2609 25.5942 15.4801 27C16.7777 28.405 18.3612 29.5158 20.1241 30.2575C21.887 30.9993 23.7883 31.3547 25.7001 31.3C25.7001 29.59 25.7001 27.87 25.6301 26.16C27.0462 26.3012 28.3837 26.8781 29.4583 27.8112C30.5329 28.7443 31.2916 29.9877 31.6301 31.37L35.7901 31.44C35.1512 29.4113 34.0644 27.5521 32.6101 26C31.8557 25.1964 31.0061 24.4878 30.0801 23.89C31.0639 23.2549 31.9414 22.4686 32.6801 21.56C33.8477 20.1214 34.6443 18.4183 35.0001 16.6L31.2001 16.53C30.8574 17.9424 30.1703 19.2479 29.2001 20.33C28.268 21.3567 27.1112 22.1541 25.8201 22.66L25.6701 16.66L22.0001 16.74V26.68C20.3804 25.9065 18.9987 24.7114 18.0001 23.22C16.7099 21.2923 16.1204 18.9801 16.3301 16.67H12.3101Z" fill="#0073FA"/>
</svg>
