<svg width="170" height="34" viewBox="0 0 170 34" fill="none" xmlns="http://www.w3.org/2000/svg">
<g clip-path="url(#clip0_1435_1261)">
<mask id="mask0_1435_1261" style="mask-type:luminance" maskUnits="userSpaceOnUse" x="0" y="0" width="170" height="34">
<path d="M170 0H0V34H170V0Z" fill="white"/>
</mask>
<g mask="url(#mask0_1435_1261)">
<mask id="mask1_1435_1261" style="mask-type:luminance" maskUnits="userSpaceOnUse" x="0" y="0" width="170" height="34">
<path d="M170 0H0V34H170V0Z" fill="white"/>
</mask>
<g mask="url(#mask1_1435_1261)">
<path d="M58.9544 3L60.7249 8.34752H66.4544L61.8191 11.6524L63.5897 17L58.9544 13.6951L54.3191 17L56.0897 11.6524L51.4544 8.34752H57.1839L58.9544 3Z" fill="#FFB900"/>
<path d="M78.9544 3L80.7249 8.34752H86.4544L81.8191 11.6524L83.5897 17L78.9544 13.6951L74.3191 17L76.0897 11.6524L71.4544 8.34752H77.1839L78.9544 3Z" fill="#FFB900"/>
<path d="M98.4544 3L100.107 8.34752H105.454L101.128 11.6524L102.781 17L98.4544 13.6951L94.1283 17L95.7806 11.6524L91.4544 8.34752H96.8021L98.4544 3Z" fill="#FFB900"/>
<path d="M117.954 3L119.725 8.34752H125.454L120.819 11.6524L122.59 17L117.954 13.6951L113.319 17L115.09 11.6524L110.454 8.34752H116.184L117.954 3Z" fill="#FFB900"/>
<path d="M137.954 3L139.725 8.34752H145.454L140.819 11.6524L142.59 17L137.954 13.6951L133.319 17L135.09 11.6524L130.454 8.34752H136.184L137.954 3Z" fill="#FFB900"/>
<path d="M30.598 15.1099C29.9074 15.1099 29.2354 15.0026 28.582 14.7879C27.938 14.5732 27.4107 14.2839 27 13.9199L27.644 12.8139C27.9707 13.1219 28.3954 13.3739 28.918 13.5699C29.4407 13.7659 29.996 13.8639 30.584 13.8639C31.3307 13.8639 31.9047 13.7052 32.306 13.3879C32.7074 13.0706 32.908 12.6459 32.908 12.1139C32.908 11.7499 32.8194 11.4326 32.642 11.1619C32.4647 10.8912 32.1567 10.6859 31.718 10.5459C31.2887 10.3966 30.696 10.3219 29.94 10.3219H27.714L28.232 5.19794H33.762V6.41594H28.75L29.478 5.72994L29.072 9.77594L28.344 9.10394H30.234C31.214 9.10394 32.0027 9.22994 32.6 9.48194C33.1974 9.73394 33.6314 10.0839 33.902 10.5319C34.1727 10.9706 34.308 11.4792 34.308 12.0579C34.308 12.6179 34.1727 13.1312 33.902 13.5979C33.6314 14.0552 33.2207 14.4239 32.67 14.7039C32.1287 14.9746 31.438 15.1099 30.598 15.1099ZM35.5431 17.0699L36.2431 14.2419L36.4251 15.0539C36.1544 15.0539 35.9257 14.9699 35.7391 14.8019C35.5617 14.6339 35.4731 14.4052 35.4731 14.1159C35.4731 13.8359 35.5617 13.6072 35.7391 13.4299C35.9257 13.2526 36.1497 13.1639 36.4111 13.1639C36.6817 13.1639 36.9011 13.2572 37.0691 13.4439C37.2371 13.6212 37.3211 13.8452 37.3211 14.1159C37.3211 14.2092 37.3117 14.3026 37.2931 14.3959C37.2837 14.4799 37.2604 14.5826 37.2231 14.7039C37.1951 14.8159 37.1484 14.9559 37.0831 15.1239L36.4251 17.0699H35.5431ZM42.4849 15.1099C41.7196 15.1099 41.0336 14.9139 40.4269 14.5219C39.8296 14.1299 39.3536 13.5606 38.9989 12.8139C38.6536 12.0672 38.4809 11.1619 38.4809 10.0979C38.4809 9.03394 38.6536 8.12861 38.9989 7.38194C39.3536 6.63527 39.8296 6.06594 40.4269 5.67394C41.0336 5.28194 41.7196 5.08594 42.4849 5.08594C43.2409 5.08594 43.9222 5.28194 44.5289 5.67394C45.1356 6.06594 45.6116 6.63527 45.9569 7.38194C46.3022 8.12861 46.4749 9.03394 46.4749 10.0979C46.4749 11.1619 46.3022 12.0672 45.9569 12.8139C45.6116 13.5606 45.1356 14.1299 44.5289 14.5219C43.9222 14.9139 43.2409 15.1099 42.4849 15.1099ZM42.4849 13.8639C42.9982 13.8639 43.4462 13.7239 43.8289 13.4439C44.2209 13.1639 44.5242 12.7439 44.7389 12.1839C44.9629 11.6239 45.0749 10.9286 45.0749 10.0979C45.0749 9.26727 44.9629 8.57194 44.7389 8.01194C44.5242 7.45194 44.2209 7.03194 43.8289 6.75194C43.4462 6.47194 42.9982 6.33194 42.4849 6.33194C41.9716 6.33194 41.5189 6.47194 41.1269 6.75194C40.7349 7.03194 40.4269 7.45194 40.2029 8.01194C39.9882 8.57194 39.8809 9.26727 39.8809 10.0979C39.8809 10.9286 39.9882 11.6239 40.2029 12.1839C40.4269 12.7439 40.7349 13.1639 41.1269 13.4439C41.5189 13.7239 41.9716 13.8639 42.4849 13.8639Z" fill="black"/>
<path d="M2 27.1124V20.3016H4.20741C4.7073 20.3016 5.13699 20.3957 5.49647 20.5838C5.85594 20.7654 6.13116 21.0314 6.32214 21.3816C6.51872 21.7254 6.61702 22.1438 6.61702 22.6368C6.61702 23.1167 6.51872 23.5319 6.32214 23.8822C6.13116 24.2259 5.85594 24.4919 5.49647 24.68C5.13699 24.8681 4.7073 24.9622 4.20741 24.9622H2.34543L2.62347 24.6216V27.1124H2ZM2.62347 24.68L2.34543 24.3297H4.19056C4.78032 24.3297 5.22686 24.1838 5.53017 23.8919C5.83909 23.5935 5.99355 23.1751 5.99355 22.6368C5.99355 22.0919 5.83909 21.6703 5.53017 21.3719C5.22686 21.0735 4.78032 20.9243 4.19056 20.9243H2.34543L2.62347 20.5838V24.68ZM9.61884 27.1611C9.15824 27.1611 8.75384 27.0508 8.4056 26.8303C8.05736 26.6033 7.78494 26.2951 7.58836 25.9059C7.39177 25.5102 7.29347 25.0595 7.29347 24.5535C7.29347 24.0476 7.38615 23.6 7.5715 23.2108C7.76248 22.8216 8.02085 22.5168 8.34663 22.2962C8.67801 22.0692 9.04872 21.9557 9.45876 21.9557C9.87438 21.9557 10.2423 22.0659 10.5625 22.2865C10.8883 22.5005 11.1438 22.8054 11.3292 23.2011C11.5145 23.5903 11.6072 24.041 11.6072 24.5535C11.6072 24.5859 11.6044 24.6216 11.5988 24.6605C11.5988 24.6929 11.5988 24.7286 11.5988 24.7676H7.74843V24.2519H11.2786L11.0427 24.4562C11.0427 24.0865 10.9725 23.7589 10.8321 23.4735C10.6973 23.1816 10.5119 22.9546 10.276 22.7924C10.0401 22.6302 9.76772 22.5492 9.45876 22.5492C9.15546 22.5492 8.88303 22.6302 8.64151 22.7924C8.39998 22.9546 8.21182 23.1816 8.07702 23.4735C7.94221 23.7654 7.87481 24.0994 7.87481 24.4757V24.5827C7.87481 24.9719 7.94783 25.3156 8.09387 25.6141C8.24552 25.9059 8.45335 26.1362 8.71733 26.3049C8.98694 26.4671 9.29304 26.5481 9.63569 26.5481C9.9053 26.5481 10.1553 26.4929 10.3855 26.3827C10.6214 26.2725 10.8236 26.1038 10.9922 25.8768L11.3292 26.3243C11.1326 26.5968 10.8854 26.8043 10.5877 26.947C10.2956 27.0898 9.9727 27.1611 9.61884 27.1611ZM12.9313 27.1124V22.0043H13.5295V26.0616L16.4867 22.0043H17.0175V27.1124H16.4193V23.0454L13.4705 27.1124H12.9313ZM14.9365 21.2649C14.5658 21.2649 14.2654 21.1578 14.035 20.9438C13.8104 20.7232 13.6924 20.4086 13.6811 20H14.1108C14.1165 20.2595 14.1951 20.4638 14.3467 20.613C14.4984 20.7621 14.695 20.8368 14.9365 20.8368C15.1781 20.8368 15.3746 20.7621 15.5263 20.613C15.6836 20.4638 15.765 20.2595 15.7706 20H16.2003C16.1947 20.4086 16.0768 20.7232 15.8464 20.9438C15.6162 21.1578 15.3129 21.2649 14.9365 21.2649ZM19.5744 27.1124V22.4227L19.7261 22.6076H17.8978V22.0043H21.8492V22.6076H20.021L20.1726 22.4227V27.1124H19.5744ZM22.7142 27.1124V22.0043H23.3124V26.0616L26.2696 22.0043H26.8004V27.1124H26.2022V23.0454L23.2534 27.1124H22.7142ZM28.5147 27.1124V22.0043H29.1129V24.2616H31.9016V22.0043H32.4998V27.1124H31.9016V24.8551H29.1129V27.1124H28.5147ZM34.2001 27.1124V22.0043H37.3343V22.6076H34.6466L34.7983 22.4324V27.1124H34.2001ZM42.2237 27.1611C41.7968 27.1611 41.412 27.0508 41.0694 26.8303C40.7324 26.6033 40.4656 26.2951 40.269 25.9059C40.0724 25.5102 39.9742 25.0595 39.9742 24.5535C39.9742 24.041 40.0724 23.5903 40.269 23.2011C40.4656 22.8119 40.7324 22.5071 41.0694 22.2865C41.4064 22.0659 41.7911 21.9557 42.2237 21.9557C42.6618 21.9557 43.0494 22.0659 43.3864 22.2865C43.7289 22.5071 43.9958 22.8119 44.1868 23.2011C44.3833 23.5903 44.4816 24.041 44.4816 24.5535C44.4816 25.0595 44.3833 25.5102 44.1868 25.9059C43.9958 26.2951 43.7289 26.6033 43.3864 26.8303C43.0437 27.0508 42.6562 27.1611 42.2237 27.1611ZM42.2237 26.5481C42.5438 26.5481 42.8274 26.4671 43.0746 26.3049C43.3217 26.1362 43.5155 25.9027 43.656 25.6043C43.802 25.2995 43.875 24.9492 43.875 24.5535C43.875 24.1514 43.802 23.8011 43.656 23.5027C43.5155 23.2043 43.3217 22.9741 43.0746 22.8119C42.8274 22.6433 42.5466 22.5589 42.2321 22.5589C41.9175 22.5589 41.6367 22.6433 41.3896 22.8119C41.1424 22.9741 40.9458 23.2043 40.7998 23.5027C40.6537 23.8011 40.5808 24.1514 40.5808 24.5535C40.5808 24.9492 40.6537 25.2995 40.7998 25.6043C40.9458 25.9027 41.1424 26.1362 41.3896 26.3049C41.6367 26.4671 41.9147 26.5481 42.2237 26.5481ZM48.0433 27.1611C47.6613 27.1611 47.3159 27.0606 47.007 26.8595C46.6981 26.6519 46.451 26.3567 46.2656 25.9741C46.0858 25.5849 45.996 25.1113 45.996 24.5535C45.996 23.9957 46.0858 23.5254 46.2656 23.1427C46.4453 22.7535 46.6896 22.4584 46.9986 22.2573C47.3075 22.0562 47.6558 21.9557 48.0433 21.9557C48.4646 21.9557 48.8409 22.0659 49.1723 22.2865C49.5093 22.5005 49.7733 22.8054 49.9643 23.2011C50.1552 23.5903 50.2507 24.041 50.2507 24.5535C50.2507 25.0724 50.1552 25.5265 49.9643 25.9157C49.7733 26.3049 49.5093 26.6097 49.1723 26.8303C48.8409 27.0508 48.4646 27.1611 48.0433 27.1611ZM45.7601 29V22.0043H46.333V23.5416L46.274 24.5632L46.3583 25.5946V29H45.7601ZM48.0012 26.5481C48.3157 26.5481 48.5965 26.4671 48.8437 26.3049C49.0908 26.1362 49.2874 25.9027 49.4335 25.6043C49.5795 25.2995 49.6525 24.9492 49.6525 24.5535C49.6525 24.1578 49.5795 23.8108 49.4335 23.5124C49.2874 23.214 49.0908 22.9805 48.8437 22.8119C48.5965 22.6433 48.3157 22.5589 48.0012 22.5589C47.6866 22.5589 47.403 22.6433 47.1502 22.8119C46.9031 22.9805 46.7065 23.214 46.5605 23.5124C46.42 23.8108 46.3499 24.1578 46.3499 24.5535C46.3499 24.9492 46.42 25.2995 46.5605 25.6043C46.7065 25.9027 46.9031 26.1362 47.1502 26.3049C47.403 26.4671 47.6866 26.5481 48.0012 26.5481ZM51.5359 27.1124V22.0043H54.6701V22.6076H51.9824L52.1341 22.4324V27.1124H51.5359ZM58.2812 27.1124V25.9838L58.256 25.7989V23.9114C58.256 23.4767 58.1493 23.1427 57.9358 22.9092C57.728 22.6757 57.4163 22.5589 57.0006 22.5589C56.7141 22.5589 56.4417 22.6141 56.1833 22.7243C55.925 22.8346 55.706 22.9805 55.5262 23.1622L55.2566 22.6465C55.4813 22.4259 55.7509 22.2573 56.0654 22.1405C56.38 22.0173 56.7114 21.9557 57.0596 21.9557C57.6325 21.9557 58.0735 22.1211 58.3823 22.4519C58.6969 22.7762 58.8541 23.2724 58.8541 23.9405V27.1124H58.2812ZM56.7563 27.1611C56.4249 27.1611 56.1357 27.0995 55.8885 26.9762C55.647 26.8465 55.4616 26.6714 55.3324 26.4508C55.2032 26.2238 55.1386 25.9643 55.1386 25.6724C55.1386 25.4065 55.192 25.1665 55.2987 24.9524C55.4111 24.7319 55.5908 24.5567 55.8379 24.427C56.0907 24.2908 56.4277 24.2227 56.8489 24.2227H58.3739V24.7384H56.8658C56.439 24.7384 56.1412 24.8259 55.9727 25.0011C55.8099 25.1762 55.7284 25.3935 55.7284 25.653C55.7284 25.9449 55.8267 26.1784 56.0233 26.3535C56.2199 26.5286 56.4951 26.6162 56.8489 26.6162C57.1859 26.6162 57.4753 26.5286 57.7167 26.3535C57.9639 26.1719 58.1436 25.9125 58.256 25.5751L58.3908 26.0519C58.2784 26.3892 58.0819 26.6583 57.801 26.8595C57.5258 27.0606 57.1775 27.1611 56.7563 27.1611ZM60.4466 27.1124V22.0043H61.0448V24.2616H63.8335V22.0043H64.4317V27.1124H63.8335V24.8551H61.0448V27.1124H60.4466ZM66.132 27.1124V22.0043H66.7302V26.0616L69.6875 22.0043H70.2182V27.1124H69.6201V23.0454L66.6712 27.1124H66.132ZM73.03 27.1708C72.7098 27.1708 72.3925 27.119 72.0779 27.0151C71.7634 26.9113 71.4854 26.7524 71.2438 26.5384L71.4376 26.0227C71.651 26.2044 71.8982 26.3438 72.179 26.4411C72.4599 26.5319 72.7379 26.5773 73.0131 26.5773C73.2884 26.5708 73.5271 26.5254 73.7293 26.4411C73.9315 26.3567 74.0888 26.24 74.2011 26.0908C74.3134 25.9417 74.3696 25.7729 74.3696 25.5849C74.3696 25.3124 74.2629 25.1016 74.0494 24.9524C73.836 24.7968 73.5439 24.7189 73.1732 24.7189H72.415V24.213H73.1311C73.3502 24.213 73.5439 24.1806 73.7124 24.1157C73.8809 24.0508 74.0101 23.9568 74.1 23.8335C74.1955 23.7102 74.2432 23.5643 74.2432 23.3957C74.2432 23.214 74.187 23.0583 74.0747 22.9286C73.968 22.799 73.8192 22.7017 73.6282 22.6368C73.4372 22.5719 73.221 22.5395 72.9794 22.5395C72.7604 22.546 72.5329 22.5849 72.297 22.6562C72.0611 22.7211 71.828 22.8216 71.5977 22.9578L71.4292 22.4227C71.6876 22.267 71.9431 22.1503 72.1959 22.0724C72.4543 21.9881 72.7126 21.9459 72.971 21.9459C73.3249 21.933 73.6423 21.9817 73.9231 22.0919C74.2095 22.2021 74.437 22.3611 74.6055 22.5686C74.774 22.7698 74.8583 23.013 74.8583 23.2984C74.8583 23.5514 74.7909 23.7719 74.6561 23.96C74.5213 24.1481 74.3416 24.294 74.1169 24.3978C73.8922 24.5017 73.6366 24.5535 73.3502 24.5535L73.3754 24.3686C73.8809 24.3686 74.2741 24.4822 74.555 24.7092C74.8414 24.9362 74.9846 25.2443 74.9846 25.6335C74.9846 25.9383 74.8976 26.2076 74.7235 26.4411C74.5493 26.6681 74.3134 26.8465 74.0157 26.9762C73.7236 27.1059 73.3951 27.1708 73.03 27.1708ZM79.0892 27.1124V25.9838L79.064 25.7989V23.9114C79.064 23.4767 78.9572 23.1427 78.7438 22.9092C78.536 22.6757 78.2242 22.5589 77.8086 22.5589C77.5222 22.5589 77.2498 22.6141 76.9914 22.7243C76.733 22.8346 76.5139 22.9805 76.3342 23.1622L76.0646 22.6465C76.2893 22.4259 76.5589 22.2573 76.8734 22.1405C77.1879 22.0173 77.5194 21.9557 77.8676 21.9557C78.4405 21.9557 78.8814 22.1211 79.1903 22.4519C79.5049 22.7762 79.6622 23.2724 79.6622 23.9405V27.1124H79.0892ZM77.5643 27.1611C77.2329 27.1611 76.9436 27.0995 76.6965 26.9762C76.4549 26.8465 76.2696 26.6714 76.1404 26.4508C76.0113 26.2238 75.9466 25.9643 75.9466 25.6724C75.9466 25.4065 76 25.1665 76.1067 24.9524C76.219 24.7319 76.3988 24.5567 76.6459 24.427C76.8987 24.2908 77.2357 24.2227 77.657 24.2227H79.1819V24.7384H77.6738C77.2469 24.7384 76.9492 24.8259 76.7807 25.0011C76.6179 25.1762 76.5364 25.3935 76.5364 25.653C76.5364 25.9449 76.6347 26.1784 76.8313 26.3535C77.0278 26.5286 77.3031 26.6162 77.657 26.6162C77.994 26.6162 78.2832 26.5286 78.5248 26.3535C78.7719 26.1719 78.9517 25.9125 79.064 25.5751L79.1988 26.0519C79.0865 26.3892 78.8898 26.6583 78.609 26.8595C78.3338 27.0606 77.9855 27.1611 77.5643 27.1611ZM81.2546 27.1124V22.0043H81.8528V26.5092H84.5573V22.0043H85.1557V27.1124H81.2546ZM85.3074 28.3481V27.0541L85.459 27.1124H84.5573V26.5092H85.8719V28.3481H85.3074ZM87.0143 27.1124V22.0043H87.6125V26.0616L90.5698 22.0043H91.1006V27.1124H90.5024V23.0454L87.5536 27.1124H87.0143ZM92.8143 27.1124V22.0043H93.4125V26.0616L96.3697 22.0043H96.9005V27.1124H96.3023V23.0454L93.3535 27.1124H92.8143ZM100.82 27.1124V22.0043H102.775C103.275 22.0043 103.668 22.1146 103.954 22.3351C104.246 22.5557 104.392 22.88 104.392 23.3081C104.392 23.7233 104.255 24.0444 103.979 24.2714C103.705 24.4919 103.342 24.6022 102.893 24.6022L103.01 24.3978C103.539 24.3978 103.926 24.5114 104.173 24.7384C104.421 24.9654 104.544 25.293 104.544 25.7211C104.544 26.1621 104.404 26.506 104.123 26.7524C103.848 26.9925 103.418 27.1124 102.834 27.1124H100.82ZM101.401 26.5676H102.808C103.185 26.5676 103.469 26.4995 103.659 26.3632C103.856 26.2205 103.954 25.9935 103.954 25.6822C103.954 25.3708 103.867 25.1438 103.693 25.0011C103.519 24.8583 103.244 24.787 102.867 24.787H101.401V26.5676ZM101.401 24.2714H102.732C103.075 24.2714 103.337 24.1967 103.516 24.0476C103.701 23.8984 103.794 23.681 103.794 23.3957C103.794 23.1103 103.701 22.8962 103.516 22.7535C103.337 22.6108 103.075 22.5395 102.732 22.5395H101.401V24.2714ZM111.859 27.1124V24.8551L112.027 25.0497H110.098C109.626 25.0497 109.222 24.9556 108.885 24.7676C108.553 24.5795 108.297 24.3135 108.118 23.9697C107.943 23.6195 107.857 23.2011 107.857 22.7146C107.857 22.1957 107.952 21.7579 108.143 21.4011C108.334 21.0379 108.603 20.7654 108.952 20.5838C109.306 20.3957 109.715 20.3016 110.182 20.3016H112.474V27.1124H111.859ZM107.857 27.1124L109.306 24.7189H109.946L108.522 27.1124H107.857ZM111.859 24.6508V20.72L112.027 20.9243H110.207C109.656 20.9243 109.23 21.0768 108.927 21.3816C108.628 21.68 108.48 22.1179 108.48 22.6951C108.48 23.2529 108.62 23.6844 108.901 23.9892C109.182 24.2876 109.597 24.4368 110.148 24.4368H112.027L111.859 24.6508ZM114.322 27.1124V22.0043H114.92V24.2616H117.709V22.0043H118.307V27.1124H117.709V24.8551H114.92V27.1124H114.322ZM123.041 26.7816V22.6076H120.909L120.858 23.7459C120.847 24.0897 120.827 24.427 120.799 24.7578C120.777 25.0886 120.735 25.3935 120.673 25.6724C120.617 25.9449 120.535 26.1686 120.429 26.3438C120.322 26.5124 120.184 26.6097 120.016 26.6357L119.418 26.5092C119.591 26.5157 119.735 26.4443 119.847 26.2951C119.959 26.1395 120.046 25.9286 120.109 25.6627C120.17 25.3968 120.215 25.0952 120.243 24.7578C120.271 24.4141 120.294 24.0638 120.311 23.707L120.37 22.0043H123.639V26.7816H123.041ZM119.232 28.3481V26.5092H124.33V28.3481H123.765V27.1124H119.797V28.3481H119.232ZM127.391 27.1611C126.93 27.1611 126.526 27.0508 126.177 26.8303C125.829 26.6033 125.557 26.2951 125.36 25.9059C125.164 25.5102 125.065 25.0595 125.065 24.5535C125.065 24.0476 125.158 23.6 125.343 23.2108C125.534 22.8216 125.793 22.5168 126.118 22.2962C126.45 22.0692 126.821 21.9557 127.23 21.9557C127.647 21.9557 128.014 22.0659 128.334 22.2865C128.66 22.5005 128.915 22.8054 129.101 23.2011C129.286 23.5903 129.379 24.041 129.379 24.5535C129.379 24.5859 129.376 24.6216 129.37 24.6605C129.37 24.6929 129.37 24.7286 129.37 24.7676H125.52V24.2519H129.05L128.814 24.4562C128.814 24.0865 128.744 23.7589 128.604 23.4735C128.469 23.1816 128.284 22.9546 128.048 22.7924C127.812 22.6302 127.54 22.5492 127.23 22.5492C126.927 22.5492 126.655 22.6302 126.413 22.7924C126.172 22.9546 125.984 23.1816 125.849 23.4735C125.714 23.7654 125.647 24.0994 125.647 24.4757V24.5827C125.647 24.9719 125.72 25.3156 125.866 25.6141C126.017 25.9059 126.225 26.1362 126.489 26.3049C126.759 26.4671 127.065 26.5481 127.407 26.5481C127.677 26.5481 127.927 26.4929 128.157 26.3827C128.393 26.2725 128.595 26.1038 128.764 25.8768L129.101 26.3243C128.905 26.5968 128.658 26.8043 128.359 26.947C128.068 27.0898 127.744 27.1611 127.391 27.1611ZM133.947 27.1124L132.127 24.5827L132.624 24.2422L134.655 27.1124H133.947ZM130.703 27.1124V22.0043H131.301V27.1124H130.703ZM131.116 24.8357V24.2422H132.54V24.8357H131.116ZM132.675 24.6314L132.119 24.5341L133.88 22.0043H134.528L132.675 24.6314ZM137.296 27.1611C136.858 27.1611 136.464 27.0508 136.117 26.8303C135.774 26.6033 135.504 26.2951 135.308 25.9059C135.111 25.5102 135.013 25.0595 135.013 24.5535C135.013 24.041 135.111 23.5903 135.308 23.2011C135.504 22.8119 135.774 22.5071 136.117 22.2865C136.464 22.0659 136.858 21.9557 137.296 21.9557C137.673 21.9557 138.012 22.04 138.315 22.2086C138.619 22.3773 138.857 22.6302 139.032 22.9676L138.585 23.3178C138.433 23.0583 138.246 22.8671 138.021 22.7438C137.796 22.6205 137.551 22.5589 137.288 22.5589C136.973 22.5589 136.689 22.6433 136.437 22.8119C136.184 22.9741 135.984 23.2043 135.838 23.5027C135.693 23.8011 135.619 24.1514 135.619 24.5535C135.619 24.9556 135.693 25.3059 135.838 25.6043C135.984 25.9027 136.184 26.1362 136.437 26.3049C136.689 26.4671 136.973 26.5481 137.288 26.5481C137.551 26.5481 137.796 26.4865 138.021 26.3632C138.246 26.24 138.433 26.0519 138.585 25.7989L139.032 26.1492C138.857 26.48 138.619 26.733 138.315 26.9081C138.012 27.0767 137.673 27.1611 137.296 27.1611ZM142.012 27.1611C141.551 27.1611 141.146 27.0508 140.798 26.8303C140.45 26.6033 140.177 26.2951 139.981 25.9059C139.785 25.5102 139.686 25.0595 139.686 24.5535C139.686 24.0476 139.779 23.6 139.964 23.2108C140.156 22.8216 140.413 22.5168 140.739 22.2962C141.071 22.0692 141.441 21.9557 141.852 21.9557C142.267 21.9557 142.635 22.0659 142.955 22.2865C143.281 22.5005 143.537 22.8054 143.722 23.2011C143.907 23.5903 144 24.041 144 24.5535C144 24.5859 143.997 24.6216 143.992 24.6605C143.992 24.6929 143.992 24.7286 143.992 24.7676H140.141V24.2519H143.671L143.436 24.4562C143.436 24.0865 143.366 23.7589 143.225 23.4735C143.09 23.1816 142.905 22.9546 142.669 22.7924C142.433 22.6302 142.161 22.5492 141.852 22.5492C141.548 22.5492 141.276 22.6302 141.034 22.7924C140.793 22.9546 140.605 23.1816 140.47 23.4735C140.335 23.7654 140.268 24.0994 140.268 24.4757V24.5827C140.268 24.9719 140.341 25.3156 140.487 25.6141C140.638 25.9059 140.846 26.1362 141.11 26.3049C141.38 26.4671 141.686 26.5481 142.028 26.5481C142.298 26.5481 142.548 26.4929 142.778 26.3827C143.014 26.2725 143.216 26.1038 143.385 25.8768L143.722 26.3243C143.526 26.5968 143.278 26.8043 142.981 26.947C142.688 27.0898 142.366 27.1611 142.012 27.1611Z" fill="black"/>
<mask id="mask2_1435_1261" style="mask-type:luminance" maskUnits="userSpaceOnUse" x="0" y="4" width="22" height="13">
<path d="M22 4H0V16.6667H22V4Z" fill="white"/>
</mask>
<g mask="url(#mask2_1435_1261)">
<mask id="mask3_1435_1261" style="mask-type:luminance" maskUnits="userSpaceOnUse" x="0" y="4" width="22" height="13">
<path d="M0 4H22V16.6667H0V4Z" fill="white"/>
</mask>
<g mask="url(#mask3_1435_1261)">
<path d="M15.3945 15.5825C16.0907 14.8312 18.0211 13.6192 20.1213 15.4661C18.9938 16.7265 17.0578 17.1532 15.3945 15.5825Z" fill="url(#paint0_linear_1435_1261)"/>
<path d="M17.6943 13.5992C18.2624 11.7745 20.1355 11.1633 21.6441 12.0729C21.2441 13.6555 19.3733 14.6364 17.6943 13.5992Z" fill="url(#paint1_linear_1435_1261)"/>
<path d="M19.1164 11.2628C18.876 9.12287 20.2415 7.95595 21.9072 8.06124C22.2923 9.94542 20.8898 11.3443 19.1164 11.2628Z" fill="url(#paint2_linear_1435_1261)"/>
<path d="M19.2311 8.48429C18.033 6.80596 18.2655 5.36354 19.9304 4.15625C21.1294 5.83379 20.8969 7.2762 19.2311 8.48429Z" fill="url(#paint3_linear_1435_1261)"/>
<path d="M6.6055 15.5825C5.90936 14.8312 3.97886 13.6192 1.87865 15.4661C3.00614 16.7265 4.94214 17.1532 6.6055 15.5825Z" fill="url(#paint4_linear_1435_1261)"/>
<path d="M4.3057 13.5995C3.73684 11.7747 1.8637 11.1636 0.355125 12.0724C0.755054 13.6549 2.62584 14.6358 4.30412 13.5987L4.3057 13.5995Z" fill="url(#paint5_linear_1435_1261)"/>
<path d="M2.88355 11.2628C3.1232 9.12287 1.75763 7.95595 0.0919149 8.06124C-0.293085 9.94542 1.10863 11.3443 2.88198 11.2628H2.88355Z" fill="url(#paint6_linear_1435_1261)"/>
<path d="M2.76884 8.48429C3.96705 6.80596 3.73448 5.36354 2.06956 4.15625C0.870556 5.83379 1.10313 7.2762 2.76884 8.48429Z" fill="url(#paint7_linear_1435_1261)"/>
<path d="M11 4.52344C10.0679 4.52364 9.15684 4.80222 8.38187 5.32397C7.60689 5.84572 7.00279 6.58723 6.64594 7.45479C6.28908 8.32236 6.19546 9.27704 6.37692 10.1982C6.55837 11.1193 7.00676 11.9656 7.66542 12.6301C8.51871 13.4906 10.5286 14.7359 10.648 16.0429C10.6653 16.2386 10.8068 16.3984 11 16.3984C11.1933 16.3984 11.3348 16.2386 11.352 16.0429C11.4714 14.7359 13.4789 13.4938 14.3322 12.6333C14.9918 11.9691 15.4411 11.1228 15.6232 10.2013C15.8054 9.27982 15.7123 8.32462 15.3555 7.45649C14.9989 6.58838 14.3947 5.84635 13.6193 5.32426C12.8441 4.80217 11.9325 4.52348 11 4.52344Z" fill="url(#paint8_linear_1435_1261)"/>
<path d="M11 10.9928C11.8909 10.9928 12.613 10.2651 12.613 9.36749C12.613 8.46986 11.8909 7.74219 11 7.74219C10.1091 7.74219 9.38692 8.46986 9.38692 9.36749C9.38692 10.2651 10.1091 10.9928 11 10.9928Z" fill="white"/>
</g>
</g>
</g>
</g>
</g>
<defs>
<linearGradient id="paint0_linear_1435_1261" x1="20.1064" y1="15.6315" x2="15.3897" y2="15.8094" gradientUnits="userSpaceOnUse">
<stop stop-color="#FFCC00"/>
<stop offset="1" stop-color="#FE9B21"/>
</linearGradient>
<linearGradient id="paint1_linear_1435_1261" x1="21.6393" y1="12.0777" x2="17.7739" y2="13.8274" gradientUnits="userSpaceOnUse">
<stop stop-color="#FFCC00"/>
<stop offset="1" stop-color="#FE9B21"/>
</linearGradient>
<linearGradient id="paint2_linear_1435_1261" x1="21.8499" y1="8.0185" x2="19.3424" y2="11.4617" gradientUnits="userSpaceOnUse">
<stop stop-color="#FFCC00"/>
<stop offset="1" stop-color="#FE9B21"/>
</linearGradient>
<linearGradient id="paint3_linear_1435_1261" x1="19.8935" y1="4.15546" x2="19.5354" y2="8.53453" gradientUnits="userSpaceOnUse">
<stop stop-color="#FFCC00"/>
<stop offset="1" stop-color="#FE9B21"/>
</linearGradient>
<linearGradient id="paint4_linear_1435_1261" x1="20.1065" y1="15.6315" x2="15.3897" y2="15.8094" gradientUnits="userSpaceOnUse">
<stop stop-color="#FFCC00"/>
<stop offset="1" stop-color="#FE9B21"/>
</linearGradient>
<linearGradient id="paint5_linear_1435_1261" x1="21.6393" y1="12.0779" x2="17.7739" y2="13.8277" gradientUnits="userSpaceOnUse">
<stop stop-color="#FFCC00"/>
<stop offset="1" stop-color="#FE9B21"/>
</linearGradient>
<linearGradient id="paint6_linear_1435_1261" x1="21.8499" y1="8.0185" x2="19.3424" y2="11.4617" gradientUnits="userSpaceOnUse">
<stop stop-color="#FFCC00"/>
<stop offset="1" stop-color="#FE9B21"/>
</linearGradient>
<linearGradient id="paint7_linear_1435_1261" x1="19.8935" y1="4.15546" x2="19.5354" y2="8.53453" gradientUnits="userSpaceOnUse">
<stop stop-color="#FFCC00"/>
<stop offset="1" stop-color="#FE9B21"/>
</linearGradient>
<linearGradient id="paint8_linear_1435_1261" x1="11" y1="4.52344" x2="11" y2="16.3984" gradientUnits="userSpaceOnUse">
<stop stop-color="#FF6122"/>
<stop offset="1" stop-color="#F22411"/>
</linearGradient>
<clipPath id="clip0_1435_1261">
<rect width="170" height="34" fill="white"/>
</clipPath>
</defs>
</svg>
