<svg width="170" height="34" viewBox="0 0 170 34" fill="none" xmlns="http://www.w3.org/2000/svg">
<g clip-path="url(#clip0_1488_1220)">
<mask id="mask0_1488_1220" style="mask-type:luminance" maskUnits="userSpaceOnUse" x="0" y="0" width="170" height="34">
<path d="M170 0H0V34H170V0Z" fill="white"/>
</mask>
<g mask="url(#mask0_1488_1220)">
<mask id="mask1_1488_1220" style="mask-type:luminance" maskUnits="userSpaceOnUse" x="0" y="0" width="170" height="34">
<path d="M170 0H0V34H170V0Z" fill="white"/>
</mask>
<g mask="url(#mask1_1488_1220)">
<path d="M55.454 3L57.3425 8.34752H63.454L58.5097 11.6524L60.3983 17L55.454 13.6951L50.5097 17L52.3983 11.6524L47.454 8.34752H53.5654L55.454 3Z" fill="#FFB900"/>
<path d="M76.454 3L78.3425 8.34752H84.454L79.5097 11.6524L81.3983 17L76.454 13.6951L71.5097 17L73.3983 11.6524L68.454 8.34752H74.5654L76.454 3Z" fill="#FFB900"/>
<path d="M96.9542 3L98.7249 8.34752H104.454L99.8188 11.6524L101.59 17L96.9542 13.6951L92.319 17L94.0893 11.6524L89.454 8.34752H95.1838L96.9542 3Z" fill="#FFB900"/>
<path d="M117.454 3L119.343 8.34752H125.454L120.51 11.6524L122.399 17L117.454 13.6951L112.51 17L114.399 11.6524L109.454 8.34752H115.566L117.454 3Z" fill="#FFB900"/>
<path d="M137.954 3L139.725 8.34752H145.454L140.819 11.6524L142.59 17L137.954 13.6951L133.319 17L135.09 11.6524L130.454 8.34752H136.184L137.954 3Z" fill="#FFB900"/>
<path d="M27.598 16.024C26.9074 16.024 26.2354 15.9167 25.582 15.702C24.938 15.4873 24.4107 15.198 24 14.834L24.644 13.728C24.9707 14.036 25.3954 14.288 25.918 14.484C26.4407 14.68 26.996 14.778 27.584 14.778C28.3307 14.778 28.9047 14.6193 29.306 14.302C29.7074 13.9847 29.908 13.56 29.908 13.028C29.908 12.664 29.8194 12.3467 29.642 12.076C29.4647 11.8053 29.1567 11.6 28.718 11.46C28.2887 11.3107 27.696 11.236 26.94 11.236H24.714L25.232 6.112H30.762V7.33H25.75L26.478 6.644L26.072 10.69L25.344 10.018H27.234C28.214 10.018 29.0027 10.144 29.6 10.396C30.1974 10.648 30.6314 10.998 30.902 11.446C31.1727 11.8847 31.308 12.3933 31.308 12.972C31.308 13.532 31.1727 14.0453 30.902 14.512C30.6314 14.9693 30.2207 15.338 29.67 15.618C29.1287 15.8887 28.438 16.024 27.598 16.024ZM32.5431 17.984L33.2431 15.156L33.4251 15.968C33.1544 15.968 32.9257 15.884 32.7391 15.716C32.5617 15.548 32.4731 15.3193 32.4731 15.03C32.4731 14.75 32.5617 14.5213 32.7391 14.344C32.9257 14.1667 33.1497 14.078 33.4111 14.078C33.6817 14.078 33.9011 14.1713 34.0691 14.358C34.2371 14.5353 34.3211 14.7593 34.3211 15.03C34.3211 15.1233 34.3117 15.2167 34.2931 15.31C34.2837 15.394 34.2604 15.4967 34.2231 15.618C34.1951 15.73 34.1484 15.87 34.0831 16.038L33.4251 17.984H32.5431ZM39.4849 16.024C38.7196 16.024 38.0336 15.828 37.4269 15.436C36.8296 15.044 36.3536 14.4747 35.9989 13.728C35.6536 12.9813 35.4809 12.076 35.4809 11.012C35.4809 9.948 35.6536 9.04267 35.9989 8.296C36.3536 7.54933 36.8296 6.98 37.4269 6.588C38.0336 6.196 38.7196 6 39.4849 6C40.2409 6 40.9222 6.196 41.5289 6.588C42.1356 6.98 42.6116 7.54933 42.9569 8.296C43.3022 9.04267 43.4749 9.948 43.4749 11.012C43.4749 12.076 43.3022 12.9813 42.9569 13.728C42.6116 14.4747 42.1356 15.044 41.5289 15.436C40.9222 15.828 40.2409 16.024 39.4849 16.024ZM39.4849 14.778C39.9982 14.778 40.4462 14.638 40.8289 14.358C41.2209 14.078 41.5242 13.658 41.7389 13.098C41.9629 12.538 42.0749 11.8427 42.0749 11.012C42.0749 10.1813 41.9629 9.486 41.7389 8.926C41.5242 8.366 41.2209 7.946 40.8289 7.666C40.4462 7.386 39.9982 7.246 39.4849 7.246C38.9716 7.246 38.5189 7.386 38.1269 7.666C37.7349 7.946 37.4269 8.366 37.2029 8.926C36.9882 9.486 36.8809 10.1813 36.8809 11.012C36.8809 11.8427 36.9882 12.538 37.2029 13.098C37.4269 13.658 37.7349 14.078 38.1269 14.358C38.5189 14.638 38.9716 14.778 39.4849 14.778Z" fill="black"/>
<path d="M21 27.1124V20.3016H22.9121C23.3451 20.3016 23.7173 20.3957 24.0286 20.5838C24.34 20.7654 24.5784 21.0314 24.7438 21.3816C24.9141 21.7254 24.9992 22.1438 24.9992 22.6368C24.9992 23.1167 24.9141 23.5319 24.7438 23.8822C24.5784 24.2259 24.34 24.4919 24.0286 24.68C23.7173 24.8681 23.3451 24.9622 22.9121 24.9622H21.2992L21.54 24.6216V27.1124H21ZM21.54 24.68L21.2992 24.3297H22.8975C23.4083 24.3297 23.7951 24.1838 24.0578 23.8919C24.3254 23.5935 24.4592 23.1751 24.4592 22.6368C24.4592 22.0919 24.3254 21.6703 24.0578 21.3719C23.7951 21.0735 23.4083 20.9243 22.8975 20.9243H21.2992L21.54 20.5838V24.68ZM27.5994 27.1611C27.2004 27.1611 26.8502 27.0508 26.5485 26.8303C26.2469 26.6033 26.0109 26.2951 25.8406 25.9059C25.6703 25.5102 25.5852 25.0595 25.5852 24.5535C25.5852 24.0476 25.6655 23.6 25.826 23.2108C25.9914 22.8216 26.2152 22.5168 26.4974 22.2962C26.7845 22.0692 27.1056 21.9557 27.4608 21.9557C27.8208 21.9557 28.1395 22.0659 28.4168 22.2865C28.699 22.5005 28.9203 22.8054 29.0809 23.2011C29.2414 23.5903 29.3217 24.041 29.3217 24.5535C29.3217 24.5859 29.3193 24.6216 29.3145 24.6605C29.3145 24.6929 29.3145 24.7286 29.3145 24.7676H25.9793V24.2519H29.0371L28.8328 24.4562C28.8328 24.0865 28.772 23.7589 28.6503 23.4735C28.5336 23.1816 28.373 22.9546 28.1686 22.7924C27.9643 22.6302 27.7284 22.5492 27.4608 22.5492C27.198 22.5492 26.9621 22.6302 26.7529 22.7924C26.5436 22.9546 26.3807 23.1816 26.2639 23.4735C26.1471 23.7654 26.0887 24.0994 26.0887 24.4757V24.5827C26.0887 24.9719 26.152 25.3156 26.2785 25.6141C26.4099 25.9059 26.5899 26.1362 26.8185 26.3049C27.0521 26.4671 27.3172 26.5481 27.614 26.5481C27.8475 26.5481 28.0641 26.4929 28.2635 26.3827C28.4678 26.2725 28.643 26.1038 28.789 25.8768L29.0809 26.3243C28.9106 26.5968 28.6965 26.8043 28.4386 26.947C28.1856 27.0898 27.9059 27.1611 27.5994 27.1611ZM30.4687 27.1124V22.0043H30.9868V26.0616L33.5483 22.0043H34.0081V27.1124H33.49V23.0454L30.9357 27.1124H30.4687ZM32.2056 21.2649C31.8845 21.2649 31.6243 21.1578 31.4247 20.9438C31.2301 20.7232 31.1279 20.4086 31.1181 20H31.4903C31.4953 20.2595 31.5634 20.4638 31.6947 20.613C31.8261 20.7621 31.9964 20.8368 32.2056 20.8368C32.4148 20.8368 32.585 20.7621 32.7164 20.613C32.8527 20.4638 32.9232 20.2595 32.9281 20H33.3003C33.2954 20.4086 33.1933 20.7232 32.9937 20.9438C32.7943 21.1578 32.5316 21.2649 32.2056 21.2649ZM36.2229 27.1124V22.4227L36.3543 22.6076H34.7706V22.0043H38.1933V22.6076H36.6097L36.7411 22.4227V27.1124H36.2229ZM38.9426 27.1124V22.0043H39.4607V26.0616L42.0223 22.0043H42.482V27.1124H41.9639V23.0454L39.4096 27.1124H38.9426ZM43.967 27.1124V22.0043H44.4851V24.2616H46.9007V22.0043H47.4188V27.1124H46.9007V24.8551H44.4851V27.1124H43.967ZM48.8916 27.1124V22.0043H51.6065V22.6076H49.2784L49.4098 22.4324V27.1124H48.8916ZM55.8417 27.1611C55.4719 27.1611 55.1386 27.0508 54.8418 26.8303C54.5499 26.6033 54.3188 26.2951 54.1485 25.9059C53.9782 25.5102 53.8931 25.0595 53.8931 24.5535C53.8931 24.041 53.9782 23.5903 54.1485 23.2011C54.3188 22.8119 54.5499 22.5071 54.8418 22.2865C55.1337 22.0659 55.4669 21.9557 55.8417 21.9557C56.2211 21.9557 56.5569 22.0659 56.8488 22.2865C57.1455 22.5071 57.3766 22.8119 57.5421 23.2011C57.7123 23.5903 57.7974 24.041 57.7974 24.5535C57.7974 25.0595 57.7123 25.5102 57.5421 25.9059C57.3766 26.2951 57.1455 26.6033 56.8488 26.8303C56.5519 27.0508 56.2163 27.1611 55.8417 27.1611ZM55.8417 26.5481C56.1189 26.5481 56.3646 26.4671 56.5787 26.3049C56.7927 26.1362 56.9606 25.9027 57.0823 25.6043C57.2088 25.2995 57.272 24.9492 57.272 24.5535C57.272 24.1514 57.2088 23.8011 57.0823 23.5027C56.9606 23.2043 56.7927 22.9741 56.5787 22.8119C56.3646 22.6433 56.1214 22.5589 55.8489 22.5589C55.5764 22.5589 55.3332 22.6433 55.1192 22.8119C54.905 22.9741 54.7347 23.2043 54.6083 23.5027C54.4817 23.8011 54.4186 24.1514 54.4186 24.5535C54.4186 24.9492 54.4817 25.2995 54.6083 25.6043C54.7347 25.9027 54.905 26.1362 55.1192 26.3049C55.3332 26.4671 55.574 26.5481 55.8417 26.5481ZM60.8826 27.1611C60.5517 27.1611 60.2525 27.0606 59.9849 26.8595C59.7174 26.6519 59.5033 26.3567 59.3427 25.9741C59.187 25.5849 59.1092 25.1113 59.1092 24.5535C59.1092 23.9957 59.187 23.5254 59.3427 23.1427C59.4984 22.7535 59.71 22.4584 59.9777 22.2573C60.2452 22.0562 60.5469 21.9557 60.8826 21.9557C61.2475 21.9557 61.5735 22.0659 61.8605 22.2865C62.1524 22.5005 62.3811 22.8054 62.5465 23.2011C62.7119 23.5903 62.7946 24.041 62.7946 24.5535C62.7946 25.0724 62.7119 25.5265 62.5465 25.9157C62.3811 26.3049 62.1524 26.6097 61.8605 26.8303C61.5735 27.0508 61.2475 27.1611 60.8826 27.1611ZM58.9049 29V22.0043H59.4011V23.5416L59.35 24.5632L59.423 25.5946V29H58.9049ZM60.8461 26.5481C61.1185 26.5481 61.3618 26.4671 61.5759 26.3049C61.7899 26.1362 61.9602 25.9027 62.0868 25.6043C62.2132 25.2995 62.2765 24.9492 62.2765 24.5535C62.2765 24.1578 62.2132 23.8108 62.0868 23.5124C61.9602 23.214 61.7899 22.9805 61.5759 22.8119C61.3618 22.6433 61.1185 22.5589 60.8461 22.5589C60.5736 22.5589 60.3279 22.6433 60.109 22.8119C59.8949 22.9805 59.7246 23.214 59.5982 23.5124C59.4765 23.8108 59.4158 24.1578 59.4158 24.5535C59.4158 24.9492 59.4765 25.2995 59.5982 25.6043C59.7246 25.9027 59.8949 26.1362 60.109 26.3049C60.3279 26.4671 60.5736 26.5481 60.8461 26.5481ZM63.9079 27.1124V22.0043H66.6227V22.6076H64.2946L64.426 22.4324V27.1124H63.9079ZM69.7506 27.1124V25.9838L69.7288 25.7989V23.9114C69.7288 23.4767 69.6364 23.1427 69.4514 22.9092C69.2714 22.6757 69.0014 22.5589 68.6414 22.5589C68.3932 22.5589 68.1572 22.6141 67.9334 22.7243C67.7097 22.8346 67.52 22.9805 67.3642 23.1622L67.1307 22.6465C67.3254 22.4259 67.5589 22.2573 67.8313 22.1405C68.1038 22.0173 68.3909 21.9557 68.6925 21.9557C69.1887 21.9557 69.5707 22.1211 69.8382 22.4519C70.1107 22.7762 70.2469 23.2724 70.2469 23.9405V27.1124H69.7506ZM68.4298 27.1611C68.1427 27.1611 67.8922 27.0995 67.6781 26.9762C67.4689 26.8465 67.3083 26.6714 67.1964 26.4508C67.0845 26.2238 67.0285 25.9643 67.0285 25.6724C67.0285 25.4065 67.0748 25.1665 67.1672 24.9524C67.2645 24.7319 67.4202 24.5567 67.6342 24.427C67.8532 24.2908 68.1451 24.2227 68.51 24.2227H69.8309V24.7384H68.5246C68.1549 24.7384 67.897 24.8259 67.751 25.0011C67.61 25.1762 67.5394 25.3935 67.5394 25.653C67.5394 25.9449 67.6245 26.1784 67.7948 26.3535C67.9651 26.5286 68.2035 26.6162 68.51 26.6162C68.8019 26.6162 69.0525 26.5286 69.2616 26.3535C69.4758 26.1719 69.6314 25.9125 69.7288 25.5751L69.8456 26.0519C69.7482 26.3892 69.578 26.6583 69.3347 26.8595C69.0963 27.0606 68.7946 27.1611 68.4298 27.1611ZM71.6263 27.1124V22.0043H72.1444V24.2616H74.56V22.0043H75.0782V27.1124H74.56V24.8551H72.1444V27.1124H71.6263ZM76.551 27.1124V22.0043H77.0691V26.0616L79.6307 22.0043H80.0904V27.1124H79.5723V23.0454L77.018 27.1124H76.551ZM82.526 27.1708C82.2486 27.1708 81.9738 27.119 81.7013 27.0151C81.4289 26.9113 81.1881 26.7524 80.9788 26.5384L81.1467 26.0227C81.3315 26.2044 81.5456 26.3438 81.7889 26.4411C82.0322 26.5319 82.273 26.5773 82.5113 26.5773C82.7498 26.5708 82.9566 26.5254 83.1317 26.4411C83.3069 26.3567 83.4431 26.24 83.5404 26.0908C83.6377 25.9417 83.6863 25.7729 83.6863 25.5849C83.6863 25.3124 83.5939 25.1016 83.409 24.9524C83.2241 24.7968 82.9711 24.7189 82.65 24.7189H81.9933V24.213H82.6136C82.8033 24.213 82.9711 24.1806 83.1171 24.1157C83.263 24.0508 83.3749 23.9568 83.4528 23.8335C83.5355 23.7102 83.5769 23.5643 83.5769 23.3957C83.5769 23.214 83.5282 23.0583 83.4309 22.9286C83.3385 22.799 83.2096 22.7017 83.0441 22.6368C82.8787 22.5719 82.6914 22.5395 82.4822 22.5395C82.2925 22.546 82.0954 22.5849 81.8911 22.6562C81.6867 22.7211 81.4848 22.8216 81.2853 22.9578L81.1394 22.4227C81.3632 22.267 81.5845 22.1503 81.8035 22.0724C82.0273 21.9881 82.2511 21.9459 82.4749 21.9459C82.7814 21.933 83.0564 21.9817 83.2996 22.0919C83.5477 22.2021 83.7447 22.3611 83.8907 22.5686C84.0366 22.7698 84.1097 23.013 84.1097 23.2984C84.1097 23.5514 84.0513 23.7719 83.9345 23.96C83.8177 24.1481 83.6621 24.294 83.4675 24.3978C83.2728 24.5017 83.0514 24.5535 82.8033 24.5535L82.8252 24.3686C83.263 24.3686 83.6036 24.4822 83.8469 24.7092C84.095 24.9362 84.2191 25.2443 84.2191 25.6335C84.2191 25.9383 84.1437 26.2076 83.9929 26.4411C83.842 26.6681 83.6377 26.8465 83.3798 26.9762C83.1268 27.1059 82.8422 27.1708 82.526 27.1708ZM87.7744 27.1124V25.9838L87.7526 25.7989V23.9114C87.7526 23.4767 87.6601 23.1427 87.4753 22.9092C87.2953 22.6757 87.0252 22.5589 86.6652 22.5589C86.4171 22.5589 86.1812 22.6141 85.9573 22.7243C85.7335 22.8346 85.5437 22.9805 85.3881 23.1622L85.1545 22.6465C85.3492 22.4259 85.5827 22.2573 85.8551 22.1405C86.1275 22.0173 86.4147 21.9557 86.7163 21.9557C87.2125 21.9557 87.5945 22.1211 87.862 22.4519C88.1345 22.7762 88.2708 23.2724 88.2708 23.9405V27.1124H87.7744ZM86.4536 27.1611C86.1665 27.1611 85.9159 27.0995 85.7019 26.9762C85.4926 26.8465 85.3321 26.6714 85.2202 26.4508C85.1084 26.2238 85.0523 25.9643 85.0523 25.6724C85.0523 25.4065 85.0986 25.1665 85.191 24.9524C85.2883 24.7319 85.444 24.5567 85.6581 24.427C85.877 24.2908 86.1689 24.2227 86.5339 24.2227H87.8547V24.7384H86.5484C86.1786 24.7384 85.9208 24.8259 85.7748 25.0011C85.6338 25.1762 85.5632 25.3935 85.5632 25.653C85.5632 25.9449 85.6484 26.1784 85.8187 26.3535C85.9889 26.5286 86.2273 26.6162 86.5339 26.6162C86.8258 26.6162 87.0763 26.5286 87.2856 26.3535C87.4996 26.1719 87.6553 25.9125 87.7526 25.5751L87.8694 26.0519C87.7721 26.3892 87.6017 26.6583 87.3585 26.8595C87.1201 27.0606 86.8184 27.1611 86.4536 27.1611ZM89.6501 27.1124V22.0043H90.1683V26.5092H92.5109V22.0043H93.0292V27.1124H89.6501ZM93.1606 28.3481V27.0541L93.2919 27.1124H92.5109V26.5092H93.6496V28.3481H93.1606ZM94.6391 27.1124V22.0043H95.1573V26.0616L97.7189 22.0043H98.1787V27.1124H97.6605V23.0454L95.1063 27.1124H94.6391ZM99.6631 27.1124V22.0043H100.181V26.0616L102.743 22.0043H103.203V27.1124H102.684V23.0454L100.13 27.1124H99.6631ZM106.598 27.1124V22.0043H108.291C108.724 22.0043 109.065 22.1146 109.312 22.3351C109.565 22.5557 109.692 22.88 109.692 23.3081C109.692 23.7233 109.573 24.0444 109.334 24.2714C109.097 24.4919 108.782 24.6022 108.393 24.6022L108.495 24.3978C108.953 24.3978 109.288 24.5114 109.502 24.7384C109.717 24.9654 109.823 25.293 109.823 25.7211C109.823 26.1621 109.702 26.506 109.459 26.7524C109.22 26.9925 108.848 27.1124 108.342 27.1124H106.598ZM107.101 26.5676H108.32C108.646 26.5676 108.892 26.4995 109.057 26.3632C109.227 26.2205 109.312 25.9935 109.312 25.6822C109.312 25.3708 109.237 25.1438 109.086 25.0011C108.935 24.8583 108.697 24.787 108.371 24.787H107.101V26.5676ZM107.101 24.2714H108.254C108.551 24.2714 108.778 24.1967 108.933 24.0476C109.093 23.8984 109.174 23.681 109.174 23.3957C109.174 23.1103 109.093 22.8962 108.933 22.7535C108.778 22.6108 108.551 22.5395 108.254 22.5395H107.101V24.2714ZM116.16 27.1124V24.8551L116.305 25.0497H114.634C114.225 25.0497 113.875 24.9556 113.583 24.7676C113.296 24.5795 113.074 24.3135 112.919 23.9697C112.768 23.6195 112.693 23.2011 112.693 22.7146C112.693 22.1957 112.775 21.7579 112.941 21.4011C113.106 21.0379 113.339 20.7654 113.642 20.5838C113.948 20.3957 114.302 20.3016 114.707 20.3016H116.692V27.1124H116.16ZM112.693 27.1124L113.948 24.7189H114.503L113.269 27.1124H112.693ZM116.16 24.6508V20.72L116.305 20.9243H114.729C114.251 20.9243 113.882 21.0768 113.62 21.3816C113.361 21.68 113.233 22.1179 113.233 22.6951C113.233 23.2529 113.354 23.6844 113.597 23.9892C113.841 24.2876 114.2 24.4368 114.677 24.4368H116.305L116.16 24.6508ZM118.293 27.1124V22.0043H118.811V24.2616H121.227V22.0043H121.745V27.1124H121.227V24.8551H118.811V27.1124H118.293ZM125.845 26.7816V22.6076H123.999L123.954 23.7459C123.945 24.0897 123.928 24.427 123.903 24.7578C123.884 25.0886 123.848 25.3935 123.794 25.6724C123.746 25.9449 123.675 26.1686 123.583 26.3438C123.49 26.5124 123.371 26.6097 123.225 26.6357L122.707 26.5092C122.857 26.5157 122.982 26.4443 123.079 26.2951C123.176 26.1395 123.251 25.9286 123.306 25.6627C123.359 25.3968 123.397 25.0952 123.422 24.7578C123.446 24.4141 123.466 24.0638 123.481 23.707L123.532 22.0043H126.363V26.7816H125.845ZM122.546 28.3481V26.5092H126.962V28.3481H126.472V27.1124H123.035V28.3481H122.546ZM129.613 27.1611C129.214 27.1611 128.864 27.0508 128.562 26.8303C128.26 26.6033 128.025 26.2951 127.854 25.9059C127.684 25.5102 127.599 25.0595 127.599 24.5535C127.599 24.0476 127.679 23.6 127.839 23.2108C128.005 22.8216 128.229 22.5168 128.511 22.2962C128.798 22.0692 129.12 21.9557 129.474 21.9557C129.835 21.9557 130.153 22.0659 130.43 22.2865C130.713 22.5005 130.933 22.8054 131.095 23.2011C131.255 23.5903 131.335 24.041 131.335 24.5535C131.335 24.5859 131.333 24.6216 131.328 24.6605C131.328 24.6929 131.328 24.7286 131.328 24.7676H127.993V24.2519H131.05L130.846 24.4562C130.846 24.0865 130.785 23.7589 130.664 23.4735C130.547 23.1816 130.387 22.9546 130.182 22.7924C129.978 22.6302 129.742 22.5492 129.474 22.5492C129.211 22.5492 128.976 22.6302 128.766 22.7924C128.557 22.9546 128.395 23.1816 128.278 23.4735C128.161 23.7654 128.103 24.0994 128.103 24.4757V24.5827C128.103 24.9719 128.166 25.3156 128.292 25.6141C128.423 25.9059 128.603 26.1362 128.832 26.3049C129.066 26.4671 129.331 26.5481 129.627 26.5481C129.861 26.5481 130.078 26.4929 130.277 26.3827C130.481 26.2725 130.656 26.1038 130.803 25.8768L131.095 26.3243C130.925 26.5968 130.711 26.8043 130.452 26.947C130.2 27.0898 129.919 27.1611 129.613 27.1611ZM135.292 27.1124L133.716 24.5827L134.146 24.2422L135.905 27.1124H135.292ZM132.482 27.1124V22.0043H133V27.1124H132.482ZM132.84 24.8357V24.2422H134.073V24.8357H132.84ZM134.19 24.6314L133.709 24.5341L135.234 22.0043H135.795L134.19 24.6314ZM138.193 27.1611C137.814 27.1611 137.472 27.0508 137.172 26.8303C136.875 26.6033 136.641 26.2951 136.471 25.9059C136.3 25.5102 136.215 25.0595 136.215 24.5535C136.215 24.041 136.3 23.5903 136.471 23.2011C136.641 22.8119 136.875 22.5071 137.172 22.2865C137.472 22.0659 137.814 21.9557 138.193 21.9557C138.52 21.9557 138.813 22.04 139.076 22.2086C139.339 22.3773 139.545 22.6302 139.697 22.9676L139.31 23.3178C139.178 23.0583 139.016 22.8671 138.821 22.7438C138.626 22.6205 138.414 22.5589 138.186 22.5589C137.913 22.5589 137.667 22.6433 137.449 22.8119C137.23 22.9741 137.057 23.2043 136.93 23.5027C136.804 23.8011 136.74 24.1514 136.74 24.5535C136.74 24.9556 136.804 25.3059 136.93 25.6043C137.057 25.9027 137.23 26.1362 137.449 26.3049C137.667 26.4671 137.913 26.5481 138.186 26.5481C138.414 26.5481 138.626 26.4865 138.821 26.3632C139.016 26.24 139.178 26.0519 139.31 25.7989L139.697 26.1492C139.545 26.48 139.339 26.733 139.076 26.9081C138.813 27.0767 138.52 27.1611 138.193 27.1611ZM142.278 27.1611C141.879 27.1611 141.528 27.0508 141.226 26.8303C140.925 26.6033 140.689 26.2951 140.519 25.9059C140.349 25.5102 140.263 25.0595 140.263 24.5535C140.263 24.0476 140.344 23.6 140.504 23.2108C140.67 22.8216 140.893 22.5168 141.175 22.2962C141.463 22.0692 141.783 21.9557 142.139 21.9557C142.499 21.9557 142.818 22.0659 143.095 22.2865C143.377 22.5005 143.599 22.8054 143.759 23.2011C143.919 23.5903 144 24.041 144 24.5535C144 24.5859 143.997 24.6216 143.993 24.6605C143.993 24.6929 143.993 24.7286 143.993 24.7676H140.657V24.2519H143.715L143.511 24.4562C143.511 24.0865 143.451 23.7589 143.329 23.4735C143.212 23.1816 143.052 22.9546 142.847 22.7924C142.643 22.6302 142.407 22.5492 142.139 22.5492C141.876 22.5492 141.64 22.6302 141.431 22.7924C141.222 22.9546 141.059 23.1816 140.942 23.4735C140.825 23.7654 140.767 24.0994 140.767 24.4757V24.5827C140.767 24.9719 140.831 25.3156 140.957 25.6141C141.088 25.9059 141.268 26.1362 141.497 26.3049C141.731 26.4671 141.996 26.5481 142.292 26.5481C142.526 26.5481 142.742 26.4929 142.942 26.3827C143.146 26.2725 143.321 26.1038 143.467 25.8768L143.759 26.3243C143.589 26.5968 143.375 26.8043 143.117 26.947C142.864 27.0898 142.585 27.1611 142.278 27.1611Z" fill="black"/>
</g>
<path d="M3 11C3 6.5816 6.5808 3 11 3C15.4176 3 19 6.5816 19 11C19 15.4184 15.4176 19 11 19C6.5808 19 3 15.4184 3 11Z" fill="#FC3F1D"/>
<path d="M3 11C3 6.5816 6.5808 3 11 3C15.4176 3 19 6.5816 19 11C19 15.4184 15.4176 19 11 19C6.5808 19 3 15.4184 3 11Z" fill="#FC3F1D"/>
<path d="M12.024 7.5348H11.2848C9.92962 7.5348 9.21682 8.2212 9.21682 9.2332C9.21682 10.3772 9.70962 10.9132 10.7216 11.6004L11.5576 12.1636L9.15522 15.7532H7.36002L9.51602 12.542C8.27602 11.6532 7.58002 10.79 7.58002 9.33C7.58002 7.4996 8.85602 6.25 11.276 6.25H13.6784V15.7444H12.024V7.5348Z" fill="white"/>
</g>
</g>
<defs>
<clipPath id="clip0_1488_1220">
<rect width="170" height="34" fill="white"/>
</clipPath>
</defs>
</svg>
