<svg width="170" height="34" viewBox="0 0 170 34" fill="none" xmlns="http://www.w3.org/2000/svg">
<g clip-path="url(#clip0_1435_1325)">
<mask id="mask0_1435_1325" style="mask-type:luminance" maskUnits="userSpaceOnUse" x="0" y="0" width="170" height="34">
<path d="M170 0H0V34H170V0Z" fill="white"/>
</mask>
<g mask="url(#mask0_1435_1325)">
<path d="M34.5106 0L36.7557 6.90983H44.0212L38.1433 11.1803L40.3885 18.0902L34.5106 13.8197L28.6327 18.0902L30.8779 11.1803L25 6.90983H32.2655L34.5106 0Z" fill="#FFB900"/>
<path d="M59.5318 0L61.7769 6.90983H69.0424L63.1645 11.1803L65.4097 18.0902L59.5318 13.8197L53.6539 18.0902L55.8991 11.1803L50.0212 6.90983H57.2867L59.5318 0Z" fill="#FFB900"/>
<path d="M84.5534 0L86.7984 6.90983H94.0644L88.1864 11.1803L90.4314 18.0902L84.5534 13.8197L78.6754 18.0902L80.9204 11.1803L75.0424 6.90983H82.3084L84.5534 0Z" fill="#FFB900"/>
<path d="M109.575 0L111.82 6.90983H119.086L113.208 11.1803L115.453 18.0902L109.575 13.8197L103.697 18.0902L105.942 11.1803L100.064 6.90983H107.33L109.575 0Z" fill="#FFB900"/>
<path d="M134.597 0L136.842 6.90983H144.108L138.23 11.1803L140.475 18.0902L134.597 13.8197L128.719 18.0902L130.964 11.1803L125.086 6.90983H132.352L134.597 0Z" fill="#FFB900"/>
<path d="M2 32.1124V25.3016H4.19186C4.68824 25.3016 5.1149 25.3957 5.47184 25.5838C5.82879 25.7654 6.10207 26.0314 6.2917 26.3816C6.4869 26.7254 6.58451 27.1438 6.58451 27.6368C6.58451 28.1167 6.4869 28.5319 6.2917 28.8822C6.10207 29.2259 5.82879 29.4919 5.47184 29.68C5.1149 29.8681 4.68824 29.9622 4.19186 29.9622H2.343L2.61908 29.6216V32.1124H2ZM2.61908 29.68L2.343 29.3297H4.17513C4.76074 29.3297 5.20413 29.1838 5.50531 28.8919C5.81206 28.5935 5.96543 28.1751 5.96543 27.6368C5.96543 27.0919 5.81206 26.6703 5.50531 26.3719C5.20413 26.0735 4.76074 25.9243 4.17513 25.9243H2.343L2.61908 25.5838V29.68ZM9.56519 32.1611C9.10783 32.1611 8.70628 32.0508 8.36049 31.8303C8.0147 31.6033 7.7442 31.2951 7.549 30.9059C7.3538 30.5102 7.2562 30.0595 7.2562 29.5535C7.2562 29.0476 7.34822 28.6 7.53227 28.2108C7.7219 27.8216 7.97845 27.5168 8.30193 27.2962C8.63099 27.0692 8.99909 26.9557 9.40624 26.9557C9.81893 26.9557 10.1843 27.0659 10.5022 27.2865C10.8257 27.5005 11.0794 27.8054 11.2635 28.2011C11.4475 28.5903 11.5395 29.041 11.5395 29.5535C11.5395 29.5859 11.5368 29.6216 11.5312 29.6605C11.5312 29.6929 11.5312 29.7286 11.5312 29.7676H7.70795V29.2519H11.2133L10.979 29.4562C10.979 29.0865 10.9093 28.7589 10.7699 28.4735C10.636 28.1816 10.452 27.9546 10.2177 27.7924C9.98348 27.6302 9.71301 27.5492 9.40624 27.5492C9.10506 27.5492 8.83456 27.6302 8.59474 27.7924C8.35491 27.9546 8.16808 28.1816 8.03422 28.4735C7.90037 28.7654 7.83344 29.0994 7.83344 29.4757V29.5827C7.83344 29.9719 7.90595 30.3156 8.05095 30.6141C8.20154 30.9059 8.4079 31.1362 8.67003 31.3049C8.93774 31.4671 9.24168 31.5481 9.58192 31.5481C9.84963 31.5481 10.0978 31.4929 10.3265 31.3827C10.5607 31.2725 10.7615 31.1038 10.9288 30.8768L11.2635 31.3243C11.0683 31.5968 10.8228 31.8043 10.5273 31.947C10.2372 32.0898 9.91656 32.1611 9.56519 32.1611ZM12.8543 32.1124V27.0043H13.4483V31.0616L16.3847 27.0043H16.9118V32.1124H16.3178V28.0454L13.3897 32.1124H12.8543ZM14.8454 26.2649C14.4773 26.2649 14.179 26.1578 13.9503 25.9438C13.7272 25.7232 13.6101 25.4086 13.5989 25H14.0255C14.0311 25.2595 14.1092 25.4638 14.2598 25.613C14.4104 25.7621 14.6056 25.8368 14.8454 25.8368C15.0853 25.8368 15.2804 25.7621 15.431 25.613C15.5872 25.4638 15.6681 25.2595 15.6736 25H16.1003C16.0948 25.4086 15.9776 25.7232 15.7489 25.9438C15.5203 26.1578 15.2191 26.2649 14.8454 26.2649ZM19.4507 32.1124V27.4227L19.6012 27.6076H17.7858V27.0043H21.7094V27.6076H19.894L20.0446 27.4227V32.1124H19.4507ZM22.5683 32.1124V27.0043H23.1623V31.0616L26.0987 27.0043H26.6257V32.1124H26.0318V28.0454L23.1037 32.1124H22.5683ZM28.3279 32.1124V27.0043H28.9219V29.2616H31.691V27.0043H32.285V32.1124H31.691V29.8551H28.9219V32.1124H28.3279ZM33.9733 32.1124V27.0043H37.0854V27.6076H34.4167L34.5673 27.4324V32.1124H33.9733ZM41.9404 32.1611C41.5165 32.1611 41.1345 32.0508 40.7943 31.8303C40.4597 31.6033 40.1947 31.2951 39.9995 30.9059C39.8043 30.5102 39.7067 30.0595 39.7067 29.5535C39.7067 29.041 39.8043 28.5903 39.9995 28.2011C40.1947 27.8119 40.4597 27.5071 40.7943 27.2865C41.1289 27.0659 41.5109 26.9557 41.9404 26.9557C42.3754 26.9557 42.7603 27.0659 43.0949 27.2865C43.4351 27.5071 43.7 27.8119 43.8897 28.2011C44.0849 28.5903 44.1825 29.041 44.1825 29.5535C44.1825 30.0595 44.0849 30.5102 43.8897 30.9059C43.7 31.2951 43.4351 31.6033 43.0949 31.8303C42.7547 32.0508 42.3698 32.1611 41.9404 32.1611ZM41.9404 31.5481C42.2583 31.5481 42.5399 31.4671 42.7854 31.3049C43.0307 31.1362 43.2232 30.9027 43.3626 30.6043C43.5076 30.2995 43.5801 29.9492 43.5801 29.5535C43.5801 29.1514 43.5076 28.8011 43.3626 28.5027C43.2232 28.2043 43.0307 27.9741 42.7854 27.8119C42.5399 27.6433 42.2611 27.5589 41.9488 27.5589C41.6364 27.5589 41.3576 27.6433 41.1122 27.8119C40.8667 27.9741 40.6716 28.2043 40.5266 28.5027C40.3815 28.8011 40.3091 29.1514 40.3091 29.5535C40.3091 29.9492 40.3815 30.2995 40.5266 30.6043C40.6716 30.9027 40.8667 31.1362 41.1122 31.3049C41.3576 31.4671 41.6336 31.5481 41.9404 31.5481ZM47.7191 32.1611C47.3398 32.1611 46.9968 32.0606 46.6901 31.8595C46.3833 31.6519 46.1379 31.3567 45.9539 30.9741C45.7753 30.5849 45.6862 30.1113 45.6862 29.5535C45.6862 28.9957 45.7753 28.5254 45.9539 28.1427C46.1323 27.7535 46.3749 27.4584 46.6817 27.2573C46.9884 27.0562 47.3342 26.9557 47.7191 26.9557C48.1374 26.9557 48.511 27.0659 48.8401 27.2865C49.1747 27.5005 49.4368 27.8054 49.6265 28.2011C49.8161 28.5903 49.9109 29.041 49.9109 29.5535C49.9109 30.0724 49.8161 30.5265 49.6265 30.9157C49.4368 31.3049 49.1747 31.6097 48.8401 31.8303C48.511 32.0508 48.1374 32.1611 47.7191 32.1611ZM45.4519 34V27.0043H46.0208V28.5416L45.9622 29.5632L46.0459 30.5946V34H45.4519ZM47.6772 31.5481C47.9895 31.5481 48.2684 31.4671 48.5138 31.3049C48.7592 31.1362 48.9544 30.9027 49.0994 30.6043C49.2444 30.2995 49.317 29.9492 49.317 29.5535C49.317 29.1578 49.2444 28.8108 49.0994 28.5124C48.9544 28.214 48.7592 27.9805 48.5138 27.8119C48.2684 27.6433 47.9895 27.5589 47.6772 27.5589C47.3649 27.5589 47.0833 27.6433 46.8323 27.8119C46.5868 27.9805 46.3917 28.214 46.2467 28.5124C46.1072 28.8108 46.0375 29.1578 46.0375 29.5535C46.0375 29.9492 46.1072 30.2995 46.2467 30.6043C46.3917 30.9027 46.5868 31.1362 46.8323 31.3049C47.0833 31.4671 47.3649 31.5481 47.6772 31.5481ZM51.1871 32.1124V27.0043H54.2992V27.6076H51.6305L51.781 27.4324V32.1124H51.1871ZM57.8849 32.1124V30.9838L57.8598 30.7989V28.9114C57.8598 28.4767 57.7539 28.1427 57.5419 27.9092C57.3356 27.6757 57.026 27.5589 56.6133 27.5589C56.3288 27.5589 56.0584 27.6141 55.8018 27.7243C55.5453 27.8346 55.3278 27.9805 55.1492 28.1622L54.8815 27.6465C55.1046 27.4259 55.3724 27.2573 55.6847 27.1405C55.997 27.0173 56.3261 26.9557 56.6718 26.9557C57.2407 26.9557 57.6786 27.1211 57.9853 27.4519C58.2977 27.7762 58.4538 28.2724 58.4538 28.9405V32.1124H57.8849ZM56.3707 32.1611C56.0416 32.1611 55.7544 32.0995 55.509 31.9762C55.2692 31.8465 55.0852 31.6714 54.9568 31.4508C54.8286 31.2238 54.7644 30.9643 54.7644 30.6724C54.7644 30.4065 54.8174 30.1665 54.9234 29.9524C55.035 29.7319 55.2134 29.5567 55.4588 29.427C55.7098 29.2908 56.0444 29.2227 56.4627 29.2227H57.9769V29.7384H56.4794C56.0556 29.7384 55.7599 29.8259 55.5926 30.0011C55.4309 30.1762 55.35 30.3935 55.35 30.653C55.35 30.9449 55.4477 31.1784 55.6428 31.3535C55.8381 31.5286 56.1113 31.6162 56.4627 31.6162C56.7973 31.6162 57.0846 31.5286 57.3244 31.3535C57.5698 31.1719 57.7483 30.9125 57.8598 30.5751L57.9936 31.0519C57.8821 31.3892 57.6869 31.6583 57.408 31.8595C57.1348 32.0606 56.7889 32.1611 56.3707 32.1611ZM60.035 32.1124V27.0043H60.629V29.2616H63.3981V27.0043H63.9921V32.1124H63.3981V29.8551H60.629V32.1124H60.035ZM65.6804 32.1124V27.0043H66.2744V31.0616L69.2108 27.0043H69.7378V32.1124H69.1439V28.0454L66.2158 32.1124H65.6804ZM72.5298 32.1708C72.2119 32.1708 71.8967 32.119 71.5844 32.0151C71.2721 31.9113 70.9961 31.7524 70.7562 31.5384L70.9486 31.0227C71.1605 31.2044 71.406 31.3438 71.6848 31.4411C71.9637 31.5319 72.2397 31.5773 72.5131 31.5773C72.7864 31.5708 73.0234 31.5254 73.2242 31.4411C73.4249 31.3567 73.5811 31.24 73.6926 31.0908C73.8042 30.9417 73.86 30.7729 73.86 30.5849C73.86 30.3124 73.754 30.1016 73.5421 29.9524C73.3302 29.7968 73.0401 29.7189 72.672 29.7189H71.9191V29.213H72.6302C72.8477 29.213 73.0401 29.1806 73.2074 29.1157C73.3747 29.0508 73.503 28.9568 73.5923 28.8335C73.687 28.7102 73.7345 28.5643 73.7345 28.3957C73.7345 28.214 73.6787 28.0583 73.5672 27.9286C73.4612 27.799 73.3134 27.7017 73.1238 27.6368C72.9341 27.5719 72.7194 27.5395 72.4796 27.5395C72.2621 27.546 72.0362 27.5849 71.802 27.6562C71.5677 27.7211 71.3362 27.8216 71.1076 27.9578L70.9403 27.4227C71.1969 27.267 71.4506 27.1503 71.7016 27.0724C71.9581 26.9881 72.2146 26.9459 72.4712 26.9459C72.8226 26.933 73.1377 26.9817 73.4166 27.0919C73.701 27.2021 73.9269 27.3611 74.0942 27.5686C74.2615 27.7698 74.3452 28.013 74.3452 28.2984C74.3452 28.5514 74.2783 28.7719 74.1444 28.96C74.0106 29.1481 73.8321 29.294 73.609 29.3978C73.3859 29.5017 73.1321 29.5535 72.8477 29.5535L72.8728 29.3686C73.3747 29.3686 73.7652 29.4822 74.044 29.7092C74.3285 29.9362 74.4707 30.2443 74.4707 30.6335C74.4707 30.9383 74.3842 31.2076 74.2113 31.4411C74.0384 31.6681 73.8042 31.8465 73.5086 31.9762C73.2186 32.1059 72.8923 32.1708 72.5298 32.1708ZM78.5464 32.1124V30.9838L78.5213 30.7989V28.9114C78.5213 28.4767 78.4153 28.1427 78.2034 27.9092C77.997 27.6757 77.6874 27.5589 77.2747 27.5589C76.9903 27.5589 76.7198 27.6141 76.4633 27.7243C76.2067 27.8346 75.9892 27.9805 75.8107 28.1622L75.543 27.6465C75.7661 27.4259 76.0338 27.2573 76.3461 27.1405C76.6584 27.0173 76.9875 26.9557 77.3333 26.9557C77.9022 26.9557 78.34 27.1211 78.6468 27.4519C78.9591 27.7762 79.1152 28.2724 79.1152 28.9405V32.1124H78.5464ZM77.0321 32.1611C76.7031 32.1611 76.4158 32.0995 76.1705 31.9762C75.9306 31.8465 75.7466 31.6714 75.6183 31.4508C75.4901 31.2238 75.4259 30.9643 75.4259 30.6724C75.4259 30.4065 75.4788 30.1665 75.5848 29.9524C75.6964 29.7319 75.8749 29.5567 76.1203 29.427C76.3712 29.2908 76.7059 29.2227 77.1242 29.2227H78.6384V29.7384H77.1409C76.717 29.7384 76.4214 29.8259 76.2541 30.0011C76.0924 30.1762 76.0115 30.3935 76.0115 30.653C76.0115 30.9449 76.1091 31.1784 76.3043 31.3535C76.4995 31.5286 76.7728 31.6162 77.1242 31.6162C77.4588 31.6162 77.746 31.5286 77.9858 31.3535C78.2312 31.1719 78.4098 30.9125 78.5213 30.5751L78.6551 31.0519C78.5436 31.3892 78.3483 31.6583 78.0695 31.8595C77.7962 32.0606 77.4504 32.1611 77.0321 32.1611ZM80.6965 32.1124V27.0043H81.2905V31.5092H83.9759V27.0043H84.5701V32.1124H80.6965ZM84.7207 33.3481V32.0541L84.8713 32.1124H83.9759V31.5092H85.2812V33.3481H84.7207ZM86.4157 32.1124V27.0043H87.0096V31.0616L89.9461 27.0043H90.4731V32.1124H89.8791V28.0454L86.9511 32.1124H86.4157ZM92.1747 32.1124V27.0043H92.7687V31.0616L95.7051 27.0043H96.2322V32.1124H95.6382V28.0454L92.7102 32.1124H92.1747ZM100.124 32.1124V27.0043H102.065C102.562 27.0043 102.952 27.1146 103.236 27.3351C103.526 27.5557 103.671 27.88 103.671 28.3081C103.671 28.7233 103.535 29.0444 103.261 29.2714C102.988 29.4919 102.629 29.6022 102.182 29.6022L102.299 29.3978C102.824 29.3978 103.208 29.5114 103.454 29.7384C103.7 29.9654 103.822 30.293 103.822 30.7211C103.822 31.1621 103.683 31.506 103.403 31.7524C103.131 31.9925 102.704 32.1124 102.123 32.1124H100.124ZM100.701 31.5676H102.098C102.472 31.5676 102.754 31.4995 102.943 31.3632C103.139 31.2205 103.236 30.9935 103.236 30.6822C103.236 30.3708 103.15 30.1438 102.977 30.0011C102.804 29.8583 102.531 29.787 102.157 29.787H100.701V31.5676ZM100.701 29.2714H102.023C102.364 29.2714 102.623 29.1967 102.801 29.0476C102.985 28.8984 103.077 28.681 103.077 28.3957C103.077 28.1103 102.985 27.8962 102.801 27.7535C102.623 27.6108 102.364 27.5395 102.023 27.5395H100.701V29.2714ZM111.085 32.1124V29.8551L111.252 30.0497H109.337C108.868 30.0497 108.466 29.9556 108.132 29.7676C107.802 29.5795 107.549 29.3135 107.371 28.9697C107.197 28.6195 107.111 28.2011 107.111 27.7146C107.111 27.1957 107.206 26.7579 107.396 26.4011C107.585 26.0379 107.852 25.7654 108.199 25.5838C108.55 25.3957 108.957 25.3016 109.42 25.3016H111.696V32.1124H111.085ZM107.111 32.1124L108.55 29.7189H109.186L107.772 32.1124H107.111ZM111.085 29.6508V25.72L111.252 25.9243H109.445C108.898 25.9243 108.475 26.0768 108.174 26.3816C107.878 26.68 107.73 27.1179 107.73 27.6951C107.73 28.2529 107.869 28.6844 108.149 28.9892C108.427 29.2876 108.84 29.4368 109.387 29.4368H111.252L111.085 29.6508ZM113.531 32.1124V27.0043H114.125V29.2616H116.894V27.0043H117.488V32.1124H116.894V29.8551H114.125V32.1124H113.531ZM122.188 31.7816V27.6076H120.072L120.021 28.7459C120.01 29.0897 119.99 29.427 119.963 29.7578C119.94 30.0886 119.898 30.3935 119.837 30.6724C119.781 30.9449 119.7 31.1686 119.595 31.3438C119.489 31.5124 119.352 31.6097 119.185 31.6357L118.591 31.5092C118.763 31.5157 118.905 31.4443 119.018 31.2951C119.129 31.1395 119.215 30.9286 119.277 30.6627C119.338 30.3968 119.382 30.0952 119.411 29.7578C119.438 29.4141 119.461 29.0638 119.478 28.707L119.536 27.0043H122.782V31.7816H122.188ZM118.407 33.3481V31.5092H123.468V33.3481H122.908V32.1124H118.967V33.3481H118.407ZM126.507 32.1611C126.051 32.1611 125.649 32.0508 125.303 31.8303C124.957 31.6033 124.687 31.2951 124.491 30.9059C124.296 30.5102 124.199 30.0595 124.199 29.5535C124.199 29.0476 124.291 28.6 124.475 28.2108C124.664 27.8216 124.921 27.5168 125.244 27.2962C125.574 27.0692 125.942 26.9557 126.349 26.9557C126.762 26.9557 127.127 27.0659 127.444 27.2865C127.768 27.5005 128.022 27.8054 128.206 28.2011C128.39 28.5903 128.482 29.041 128.482 29.5535C128.482 29.5859 128.479 29.6216 128.473 29.6605C128.473 29.6929 128.473 29.7286 128.473 29.7676H124.65V29.2519H128.156L127.921 29.4562C127.921 29.0865 127.852 28.7589 127.712 28.4735C127.578 28.1816 127.394 27.9546 127.16 27.7924C126.926 27.6302 126.656 27.5492 126.349 27.5492C126.047 27.5492 125.777 27.6302 125.537 27.7924C125.298 27.9546 125.11 28.1816 124.977 28.4735C124.843 28.7654 124.776 29.0994 124.776 29.4757V29.5827C124.776 29.9719 124.849 30.3156 124.993 30.6141C125.144 30.9059 125.35 31.1362 125.612 31.3049C125.88 31.4671 126.185 31.5481 126.524 31.5481C126.792 31.5481 127.04 31.4929 127.269 31.3827C127.503 31.2725 127.704 31.1038 127.871 30.8768L128.206 31.3243C128.011 31.5968 127.766 31.8043 127.47 31.947C127.18 32.0898 126.859 32.1611 126.507 32.1611ZM133.018 32.1124L131.211 29.5827L131.704 29.2422L133.721 32.1124H133.018ZM129.797 32.1124V27.0043H130.391V32.1124H129.797ZM130.207 29.8357V29.2422H131.621V29.8357H130.207ZM131.755 29.6314L131.202 29.5341L132.951 27.0043H133.595L131.755 29.6314ZM136.343 32.1611C135.908 32.1611 135.518 32.0508 135.172 31.8303C134.832 31.6033 134.564 31.2951 134.369 30.9059C134.174 30.5102 134.076 30.0595 134.076 29.5535C134.076 29.041 134.174 28.5903 134.369 28.2011C134.564 27.8119 134.832 27.5071 135.172 27.2865C135.518 27.0659 135.908 26.9557 136.343 26.9557C136.717 26.9557 137.054 27.04 137.356 27.2086C137.657 27.3773 137.893 27.6302 138.067 27.9676L137.623 28.3178C137.473 28.0583 137.286 27.8671 137.063 27.7438C136.839 27.6205 136.597 27.5589 136.335 27.5589C136.023 27.5589 135.741 27.6433 135.49 27.8119C135.239 27.9741 135.041 28.2043 134.896 28.5027C134.751 28.8011 134.678 29.1514 134.678 29.5535C134.678 29.9556 134.751 30.3059 134.896 30.6043C135.041 30.9027 135.239 31.1362 135.49 31.3049C135.741 31.4671 136.023 31.5481 136.335 31.5481C136.597 31.5481 136.839 31.4865 137.063 31.3632C137.286 31.24 137.473 31.0519 137.623 30.7989L138.067 31.1492C137.893 31.48 137.657 31.733 137.356 31.9081C137.054 32.0767 136.717 32.1611 136.343 32.1611ZM141.026 32.1611C140.568 32.1611 140.166 32.0508 139.821 31.8303C139.475 31.6033 139.204 31.2951 139.009 30.9059C138.815 30.5102 138.717 30.0595 138.717 29.5535C138.717 29.0476 138.809 28.6 138.993 28.2108C139.183 27.8216 139.439 27.5168 139.762 27.2962C140.091 27.0692 140.459 26.9557 140.867 26.9557C141.279 26.9557 141.645 27.0659 141.963 27.2865C142.286 27.5005 142.54 27.8054 142.724 28.2011C142.908 28.5903 143 29.041 143 29.5535C143 29.5859 142.997 29.6216 142.992 29.6605C142.992 29.6929 142.992 29.7286 142.992 29.7676H139.168V29.2519H142.674L142.439 29.4562C142.439 29.0865 142.37 28.7589 142.23 28.4735C142.096 28.1816 141.912 27.9546 141.678 27.7924C141.444 27.6302 141.174 27.5492 140.867 27.5492C140.566 27.5492 140.295 27.6302 140.055 27.7924C139.815 27.9546 139.629 28.1816 139.495 28.4735C139.361 28.7654 139.294 29.0994 139.294 29.4757V29.5827C139.294 29.9719 139.367 30.3156 139.511 30.6141C139.662 30.9059 139.869 31.1362 140.13 31.3049C140.398 31.4671 140.702 31.5481 141.042 31.5481C141.31 31.5481 141.559 31.4929 141.787 31.3827C142.021 31.2725 142.222 31.1038 142.389 30.8768L142.724 31.3243C142.529 31.5968 142.283 31.8043 141.988 31.947C141.697 32.0898 141.377 32.1611 141.026 32.1611Z" fill="white"/>
<path d="M1 11C1 6.5816 4.5808 3 9 3C13.4176 3 17 6.5816 17 11C17 15.4184 13.4176 19 9 19C4.5808 19 1 15.4184 1 11Z" fill="#FC3F1D"/>
<path d="M1 11C1 6.5816 4.5808 3 9 3C13.4176 3 17 6.5816 17 11C17 15.4184 13.4176 19 9 19C4.5808 19 1 15.4184 1 11Z" fill="#FC3F1D"/>
<path d="M10.024 7.5348H9.28482C7.92962 7.5348 7.21682 8.2212 7.21682 9.2332C7.21682 10.3772 7.70962 10.9132 8.72162 11.6004L9.55762 12.1636L7.15522 15.7532H5.36002L7.51602 12.542C6.27602 11.6532 5.58002 10.79 5.58002 9.33C5.58002 7.4996 6.85602 6.25 9.27602 6.25H11.6784V15.7444H10.024V7.5348Z" fill="white"/>
</g>
</g>
<defs>
<clipPath id="clip0_1435_1325">
<rect width="170" height="34" fill="white"/>
</clipPath>
</defs>
</svg>
