<svg width="30" height="30" viewBox="0 0 30 30" fill="none" xmlns="http://www.w3.org/2000/svg">
<g clip-path="url(#clip0_4205_65)">
<path d="M18.6105 2.98803L19.9247 0.797545C20.0742 0.548075 19.9937 0.224923 19.7442 0.0754521C19.4942 -0.0745453 19.1716 0.00597962 19.0221 0.255975L17.6353 2.56751C16.8095 2.27383 15.9253 2.10542 15.0001 2.10542C14.0748 2.10542 13.1906 2.27383 12.3648 2.56751L10.978 0.255975C10.8286 0.00597962 10.5054 -0.074019 10.2559 0.0754521C10.0065 0.224923 9.92594 0.548075 10.0754 0.797545L11.3896 2.98803C8.84912 4.30117 7.10547 6.94849 7.10547 10.0005C7.10547 10.2916 7.34125 10.5268 7.63178 10.5268H22.3684C22.6589 10.5268 22.8947 10.2916 22.8947 10.0005C22.8941 6.94902 21.151 4.30169 18.6105 2.98803ZM8.17808 9.47424C8.44755 5.9464 11.4043 3.15856 15.0001 3.15856C18.5958 3.15856 21.5526 5.9464 21.8221 9.47424H8.17808Z" fill="white"/>
<path d="M18.6733 5.98047H17.9796C17.7881 5.98047 17.6328 6.13573 17.6328 6.3273V7.02098C17.6328 7.21255 17.7881 7.36781 17.9796 7.36781H18.6738C18.8654 7.36781 19.0207 7.21255 19.0207 7.02098V6.3273C19.0207 6.13573 18.8649 5.98047 18.6733 5.98047Z" fill="white"/>
<path d="M12.0215 5.98047H11.3273C11.1357 5.98047 10.9805 6.13573 10.9805 6.3273V7.02098C10.9805 7.21255 11.1357 7.36781 11.3273 7.36781H12.0215C12.2131 7.36781 12.3683 7.21255 12.3683 7.02098V6.3273C12.3683 6.13573 12.2131 5.98047 12.0215 5.98047Z" fill="white"/>
<path d="M22.3684 11.0547H7.63178C7.34125 11.0547 7.10547 11.2899 7.10547 11.581V22.1971C7.10547 23.5987 8.24703 24.7387 9.64963 24.7387H10.2633V27.8997C10.2633 29.0586 11.2075 30.0017 12.3685 30.0017C13.5296 30.0017 14.4738 29.0586 14.4738 27.8997V24.7387H15.5264V27.8997C15.5264 29.0586 16.4706 30.0017 17.6316 30.0017C18.7926 30.0017 19.7368 29.0586 19.7368 27.8997V24.7387H20.3505C21.7536 24.7387 22.8947 23.5987 22.8947 22.1971V11.581C22.8947 11.2899 22.6594 11.0547 22.3684 11.0547ZM21.8421 22.1971C21.8421 23.0182 21.1731 23.686 20.3505 23.686H19.2105C18.92 23.686 18.6842 23.9213 18.6842 24.2124V27.8997C18.6842 28.4786 18.2121 28.9491 17.6316 28.9491C17.0511 28.9491 16.579 28.4781 16.579 27.8997V24.2124C16.579 23.9213 16.3432 23.686 16.0527 23.686H13.9475C13.6569 23.686 13.4211 23.9213 13.4211 24.2124V27.8997C13.4211 28.4786 12.9491 28.9491 12.3685 28.9491C11.788 28.9491 11.3159 28.4781 11.3159 27.8997V24.2124C11.3159 23.9213 11.0801 23.686 10.7896 23.686H9.65016C8.82754 23.686 8.15808 23.0176 8.15808 22.1971V12.1073H21.8421V22.1971Z" fill="white"/>
<path d="M25.2639 11.0547C24.2482 11.0547 23.4219 11.882 23.4219 12.8989V20.2629C23.4219 21.2798 24.2482 22.1071 25.2639 22.1071C26.2797 22.1071 27.106 21.2798 27.106 20.2629V12.8989C27.106 11.882 26.2797 11.0547 25.2639 11.0547ZM26.0534 20.2629C26.0534 20.6993 25.6992 21.0545 25.2639 21.0545C24.8287 21.0545 24.4745 20.6993 24.4745 20.2629V12.8989C24.4745 12.4626 24.8287 12.1073 25.2639 12.1073C25.6992 12.1073 26.0534 12.4626 26.0534 12.8989V20.2629Z" fill="white"/>
<path d="M4.7366 11.0547C3.72083 11.0547 2.89453 11.882 2.89453 12.8989V20.2629C2.89453 21.2798 3.72083 22.1071 4.7366 22.1071C5.75238 22.1071 6.57868 21.2798 6.57868 20.2629V12.8989C6.57868 11.882 5.75238 11.0547 4.7366 11.0547ZM5.52606 20.2629C5.52606 20.6993 5.17186 21.0545 4.7366 21.0545C4.30135 21.0545 3.94714 20.6993 3.94714 20.2629V12.8989C3.94714 12.4626 4.30135 12.1073 4.7366 12.1073C5.17186 12.1073 5.52606 12.4626 5.52606 12.8989V20.2629Z" fill="white"/>
</g>
<defs>
<clipPath id="clip0_4205_65">
<rect width="30" height="30" fill="white"/>
</clipPath>
</defs>
</svg>
