<svg width="144" height="120" viewBox="0 0 144 120" fill="none" xmlns="http://www.w3.org/2000/svg">
<g clip-path="url(#clip0_242_1166)">
<path d="M82.388 88.1764L28.2772 66.7753L44.6646 50.3361L44.8785 50.5505L43.8602 52.72L49.1826 56.592C49.1826 56.592 49.6262 56.9479 49.1826 57.2572C48.7389 57.5665 48.784 57.8408 48.9179 57.9283C49.0517 58.0159 49.7615 59.574 49.7615 59.574L50.6939 61.7157C50.6939 61.7157 52.998 63.0973 53.4416 63.2709C53.8853 63.4446 56.5937 64.6525 57.3472 65.0523C58.1007 65.452 58.7014 69.2117 58.8934 69.5108C59.0171 69.7136 62.4615 70.1761 64.7205 70.4576L82.388 88.1764Z" fill="#D4DBBA"/>
<path d="M32.8096 62.7325L31.7623 61.952L72.2319 7.26544L112.016 61.0256L110.969 61.8061L72.2319 9.46113L32.8096 62.7325Z" fill="url(#paint0_radial_242_1166)"/>
<path d="M72.552 91.1292L18.4413 69.7237L34.8229 53.2889L32.7166 59.9226L39.8747 63.1746L38.9874 70.1177L48.6866 74.5703C48.6866 74.5703 57.9247 76.6128 57.9523 76.4815L72.552 91.1292Z" fill="#1A4151"/>
<path d="M62.4309 88.1778L100.156 50.3404L116.54 66.7738L62.4309 88.1778Z" fill="#D4DBBA"/>
<path d="M73.387 91.1277L111.112 53.2903L127.496 69.7237C123.818 72.8035 94.3476 83.162 73.387 91.1277Z" fill="#1A4151"/>
<path d="M127.189 70.5189C125.178 72.9699 122.043 76.1095 117.704 79.2433C111.871 83.4538 103.869 87.6584 93.53 90.1853C87.556 91.6442 80.7951 92.5415 73.2152 92.559H73.0523C64.8092 92.5415 57.5362 91.4823 51.1811 89.787C39.7844 86.7495 31.3609 81.687 25.6473 76.9922C23.2516 75.0506 21.0497 72.8802 19.0725 70.5116C21.1002 71.5474 23.2336 72.5468 25.4727 73.5097C25.528 73.5608 25.5847 73.606 25.6473 73.6556C31.3609 78.3504 39.7844 83.4129 51.1811 86.4504C57.5362 88.1413 64.8092 89.2005 73.0523 89.2224H73.2152C80.7951 89.2049 87.556 88.3091 93.53 86.8487C103.869 84.3248 111.871 80.1201 117.704 75.9067C118.816 75.1004 119.85 74.3 120.806 73.5053C123.038 72.5512 125.165 71.5557 127.189 70.5189Z" fill="#1A4155"/>
<path d="M120.807 73.5053C119.851 74.3009 118.817 75.1014 117.704 75.9067C111.871 80.1172 103.869 84.3218 93.5301 86.8487C87.5561 88.3076 80.7952 89.2049 73.2153 89.2224H73.0524C64.8092 89.2049 57.5363 88.1457 51.1812 86.4504C39.7845 83.4129 31.361 78.3504 25.6473 73.6556C25.5848 73.606 25.5281 73.5608 25.4728 73.5097C30.2981 75.5684 35.2654 77.2749 40.3358 78.6159C49.827 81.1457 60.7 82.7243 73.0131 82.752H73.2546C84.5829 82.7243 94.6822 81.3894 103.61 79.2068C109.489 77.7849 115.241 75.8779 120.807 73.5053Z" fill="#A6D8D1"/>
<path d="M127.825 69.7238C127.629 69.9776 127.415 70.2417 127.189 70.5189C119.693 74.3266 111.78 77.2447 103.61 79.2141C94.6822 81.4025 84.583 82.7316 73.2546 82.7593H73.0175C60.7 82.7316 49.8314 81.1545 40.3402 78.6233C32.9841 76.6846 25.8547 73.9659 19.0726 70.5131C18.8471 70.2417 18.6362 69.9776 18.4428 69.7238C18.2857 69.521 20.6566 71.0193 25.1077 72.169C29.3609 73.2748 35.5138 74.0656 43.1795 72.7394C43.533 72.6767 43.8937 72.6154 44.253 72.541C46.8612 72.0338 49.4286 71.335 51.9347 70.4503C58.2898 68.2298 65.3824 64.5431 73.0524 58.6986C73.0782 58.6735 73.1065 58.651 73.1368 58.6315C73.1644 58.6534 73.1921 58.6768 73.2153 58.6986C84.1117 67.0014 93.8327 70.9464 101.948 72.5308C108.713 73.8555 114.355 73.5331 118.632 72.7336C124.706 71.5941 128.01 69.4874 127.825 69.7238Z" fill="#9BD074"/>
<path d="M73.2153 58.5688V58.6986C73.192 58.6767 73.1644 58.6534 73.1367 58.6315C73.1643 58.6124 73.1905 58.5915 73.2153 58.5688Z" fill="url(#paint1_linear_242_1166)"/>
<path d="M-0.00292969 119.431V94.6584H3.3659V118.827C6.42054 118.827 15.9103 117.66 16.6187 103.864V94.6584H19.9846V119.431H16.6187V108.307C15.7677 112.004 14.1022 114.811 11.5509 116.731C8.36242 119.112 4.81904 119.431 3.3659 119.431H-0.00292969Z" fill="#224150"/>
<path d="M22.9956 110.546C22.9956 105.109 26.5026 101.127 32.8868 101.127C37.7771 101.127 40.1161 103.367 40.506 105.961L39.9038 106.107C39.543 103.793 37.671 101.69 32.881 101.69C29.4802 101.69 26.5739 104.64 26.5739 110.54C26.5739 115.552 28.7005 119.39 32.881 119.39C36.1058 119.39 39.0121 118.43 41.2798 116.44L41.5634 116.795C40.9612 117.292 38.3735 119.994 32.881 119.994C26.1797 120 22.9956 115.988 22.9956 110.546Z" fill="#224150"/>
<path d="M42.4478 102.229V101.661H59.7806V102.229H52.8306V119.431H49.4632V102.229H42.4478Z" fill="#224150"/>
<path d="M69.5904 101.092C75.4015 101.092 79.9369 104.327 79.9369 110.546C79.9369 116.766 75.4015 120 69.5904 120C63.8142 120 59.2424 116.766 59.2424 110.546C59.2424 104.327 63.8142 101.092 69.5904 101.092ZM62.716 110.546C62.716 116.623 64.8062 119.466 69.5904 119.466C74.3033 119.466 76.4648 116.623 76.4648 110.546C76.4648 104.397 74.0196 101.625 69.5904 101.625C65.231 101.625 62.716 104.397 62.716 110.546Z" fill="#224150"/>
<path d="M82.948 101.661H86.3139V109.764C87.0587 109.764 87.802 109.729 88.5816 109.729C89.5901 109.711 90.5981 109.783 91.5941 109.942L96.803 101.69H97.4764L92.1963 110.043C97.3339 111.109 98.8219 114.555 98.8219 119.425H95.3498C95.3498 114.77 95.1375 110.184 89.3264 110.184H86.3139V119.431H82.948V101.661Z" fill="#224150"/>
<path d="M101.833 101.661H105.199V118.827C107.963 118.792 116.29 117.583 116.964 103.971V101.661H120.292V119.431H116.961V108.626C116.181 112.145 114.834 114.776 112.672 116.659C109.696 119.253 106.826 119.431 103.354 119.431H101.833V101.661Z" fill="#224150"/>
<path d="M127.202 111.932V112.501C126.765 112.501 126.332 112.587 125.927 112.755C125.523 112.922 125.156 113.168 124.846 113.479C124.537 113.789 124.291 114.158 124.124 114.563C123.957 114.969 123.871 115.403 123.871 115.842C123.867 116.274 123.948 116.703 124.109 117.103C124.271 117.504 124.51 117.868 124.813 118.176C125.116 118.483 125.476 118.727 125.874 118.893C126.271 119.06 126.697 119.146 127.128 119.147C128.651 119.147 129.892 118.152 130.529 116.34L132.443 110.796C126.808 110.796 123.797 107.989 123.797 102.23C123.797 96.2953 128.261 94.0923 133.397 94.0923C138.608 94.0923 139.918 98.6412 140.627 102.871V94.6584H144.001V119.431H140.636V110.866L133.092 110.831L131.108 116.52C130.4 118.547 128.912 119.755 127.21 119.755C126.695 119.763 126.184 119.668 125.706 119.474C125.229 119.281 124.795 118.993 124.431 118.628C124.067 118.263 123.78 117.828 123.586 117.35C123.393 116.871 123.297 116.358 123.306 115.842C123.304 115.328 123.404 114.819 123.599 114.344C123.794 113.869 124.081 113.438 124.443 113.074C124.806 112.711 125.236 112.423 125.709 112.227C126.183 112.031 126.69 111.931 127.202 111.932ZM134.679 110.327H140.633C140.916 105.316 139.357 99.8069 139.357 99.8069C137.975 94.9793 135.565 94.6584 133.368 94.6584C129.541 94.6584 127.309 96.3288 127.309 102.229C127.309 109.729 131.242 110.333 134.679 110.333V110.327Z" fill="#224150"/>
<path d="M73.1367 58.6315C73.1064 58.651 73.0782 58.6735 73.0524 58.6986V58.5688C73.078 58.5929 73.1063 58.614 73.1367 58.6315Z" fill="url(#paint2_linear_242_1166)"/>
<path d="M99.4677 88.1778C108.923 90.016 107.853 93.5656 99.1971 95.6183C90.6587 97.6273 81.8366 98.081 73.1076 98.1831C62.6709 98.0373 51.9113 97.8257 41.9168 94.4731C35.7596 92.0148 39.2418 89.5361 43.7802 88.56C42.951 88.8248 42.1384 89.139 41.3466 89.501C34.5813 92.6129 44.3707 94.6204 47.1563 95.1019C52.2808 96.0123 57.4838 96.4149 62.6796 96.6688C73.0785 97.1065 83.5472 96.9489 93.8806 95.6475C100.125 94.8801 113.445 92.1461 99.4633 88.1778H99.4677Z" fill="#224150"/>
<path d="M93.8428 88.7613C96.0582 89.0269 102.767 90.4712 97.3251 92.486C91.8108 94.1331 86.0026 94.4366 80.2904 94.7853C71.7084 95.1952 63.0885 95.0844 54.5282 94.2323C51.6801 93.9143 48.8277 93.5496 46.0349 92.8347C40.4347 91.3203 42.9904 89.6746 47.0894 88.9977C45.7658 89.3697 44.2312 89.6382 43.1839 90.5529C41.6798 92.6261 53.2671 93.532 54.5849 93.6619C65.9755 94.5592 77.4203 94.5182 88.8042 93.5393C93.3803 93.1527 106.217 91.3699 93.8428 88.7599V88.7613Z" fill="#224150"/>
<path d="M23.8887 49.8984L23.8494 50.4819L23.1963 50.4396L22.9796 53.8375L18.6449 53.5457L18.6842 52.9621L22.4341 53.2116L22.5679 51.1837L18.8194 50.9357L18.8573 50.3521L22.6072 50.6016L22.6581 49.8225L23.8887 49.8984Z" fill="#1A4151"/>
<path d="M23.6822 46.6522L23.2822 49.4082L18.981 48.7808L19.381 46.0249L19.9628 46.1095L19.6472 48.2819L20.6028 48.4205L20.9199 46.251L21.5018 46.3357L21.1861 48.508L22.7862 48.7414L23.1018 46.5691L23.6822 46.6522Z" fill="#1A4151"/>
<path d="M24.5417 42.5001L24.4123 43.0764L22.2624 42.5906L21.7387 44.9249L23.8886 45.4092L23.7592 45.9928L19.519 45.0372L19.6485 44.4609L21.1642 44.8023L21.6878 42.468L20.1722 42.1252L20.3002 41.5504L24.5417 42.5001Z" fill="#1A4151"/>
<path d="M25.2545 40.0302L25.0799 40.5933L21.4915 39.4758L21.0725 40.8282L20.5067 40.6546L21.5249 37.3807L22.0849 37.5558L21.6704 38.9112L25.2545 40.0302Z" fill="#1A4151"/>
<path d="M26.0458 37.6068L25.8276 38.1539L21.7897 36.5404L22.5868 34.5358C22.7065 34.2218 22.9396 33.9645 23.2399 33.8151C23.4144 33.7219 23.6069 33.6676 23.8043 33.6561C24.0085 33.6435 24.2128 33.6774 24.4021 33.7553C24.6331 33.8436 24.8347 33.9952 24.984 34.1929C25.1321 34.3849 25.2296 34.6112 25.2676 34.8509C25.3065 35.0946 25.2783 35.3443 25.1861 35.5731L24.6043 37.032L26.0458 37.6068ZM24.6363 35.3542C24.7152 35.1545 24.7121 34.9316 24.6276 34.7342C24.5431 34.5368 24.3841 34.381 24.1854 34.3009C24.0867 34.2611 23.9812 34.2412 23.8749 34.2424C23.7686 34.2436 23.6636 34.2659 23.5659 34.3079C23.4681 34.3499 23.3797 34.4109 23.3055 34.4873C23.2313 34.5637 23.173 34.6541 23.1337 34.7532L22.5519 36.2121L24.0545 36.8132L24.6363 35.3542Z" fill="#1A4151"/>
<path d="M29.3289 30.4333L29.0467 30.9468L28.3616 30.569C28.3253 30.7317 28.2608 30.8867 28.1711 31.0271C28.0254 31.3007 27.8068 31.5285 27.5398 31.685C27.2782 31.8394 26.982 31.9247 26.6786 31.933C26.3699 31.9397 26.0649 31.8641 25.7947 31.7139C25.5246 31.5637 25.2991 31.3443 25.1411 31.0781C24.9866 30.8165 24.901 30.5198 24.8924 30.2159C24.8829 29.9062 24.9583 29.5999 25.1106 29.3303C25.1833 29.1792 25.2818 29.0419 25.4015 28.9247L25.2488 28.8387L25.531 28.3251L25.6852 28.4097C25.7211 28.2471 25.785 28.0921 25.8743 27.9516C26.0212 27.6785 26.2394 27.4505 26.5055 27.2922C26.7658 27.1372 27.0612 27.0519 27.3638 27.0442C27.672 27.038 27.9764 27.1132 28.2465 27.2622C28.5166 27.4112 28.7429 27.6289 28.9027 27.8933C29.0575 28.1554 29.1436 28.4525 29.1529 28.757C29.1628 29.0671 29.0873 29.374 28.9347 29.644C28.862 29.7951 28.7636 29.9324 28.6438 30.0496L29.3289 30.4333ZM27.6561 30.7411C27.7456 30.5955 27.7957 30.4291 27.8016 30.2582L25.9543 29.2369C25.8136 29.3335 25.6999 29.4646 25.6241 29.6177C25.5233 29.7953 25.473 29.9971 25.4786 30.2013C25.4838 30.4029 25.5404 30.5998 25.643 30.7732C25.7484 30.9487 25.8979 31.0932 26.0767 31.1923C26.2554 31.2914 26.457 31.3416 26.6612 31.3378C26.8623 31.3332 27.0587 31.2764 27.2314 31.1729C27.4098 31.0708 27.5567 30.9214 27.6561 30.7411ZM28.414 29.3639C28.5147 29.1863 28.565 28.9845 28.5594 28.7803C28.5544 28.5787 28.4978 28.3818 28.3951 28.2084C28.2897 28.0329 28.1401 27.8884 27.9614 27.7893C27.7826 27.6902 27.581 27.64 27.3768 27.6438C27.1757 27.6477 26.979 27.7045 26.8066 27.8087C26.6295 27.9131 26.4845 28.0645 26.3877 28.2463C26.2976 28.3921 26.2474 28.5592 26.2423 28.7307L28.0896 29.752C28.2295 29.653 28.3412 29.5193 28.414 29.3639Z" fill="#1A4151"/>
<path d="M32.4781 25.4073L32.1435 25.8917L29.4627 24.0651L30.8795 27.7576L30.5886 28.188L26.9943 25.737L27.3245 25.2497L29.9907 27.0676L28.5885 23.3867L28.8794 22.9563L32.4781 25.4073Z" fill="#1A4151"/>
<path d="M33.7669 23.7091C33.7052 23.7857 33.6376 23.8574 33.5647 23.9235C33.4134 24.0555 33.2503 24.1732 33.0774 24.2751C32.8654 24.3842 32.6305 24.4407 32.3923 24.44L32.3254 23.8447C32.4962 23.8515 32.6662 23.8175 32.8214 23.7455C32.935 23.6819 33.0418 23.6066 33.1399 23.5209C33.1995 23.4662 33.2553 23.4078 33.3072 23.3458C33.361 23.2801 33.4096 23.2104 33.4527 23.1372C33.5232 22.9996 33.5722 22.852 33.5981 22.6995C33.6219 22.5666 33.6135 22.43 33.5734 22.3012C33.5288 22.1733 33.4473 22.0615 33.3392 21.9802C33.2605 21.9148 33.1694 21.8658 33.0715 21.8362C32.9736 21.8067 32.8707 21.7971 32.769 21.8081C32.5598 21.8274 32.3658 21.926 32.2264 22.0838L31.7726 22.6542L31.3144 22.2881L31.6606 21.8504C31.7819 21.7253 31.8501 21.558 31.8512 21.3835C31.8455 21.3198 31.8266 21.258 31.7958 21.202C31.765 21.146 31.7229 21.097 31.6722 21.0582C31.6264 21.0189 31.5727 20.9901 31.5146 20.9737C31.4566 20.9573 31.3958 20.9538 31.3362 20.9633C31.2017 20.9867 31.078 21.052 30.9828 21.1501C30.9307 21.2017 30.8821 21.2568 30.8373 21.3149C30.7893 21.3748 30.7442 21.439 30.6991 21.5061C30.609 21.6626 30.5756 21.8456 30.6046 22.024L30.0227 22.0911C29.9927 21.9076 30.0006 21.7199 30.046 21.5396C30.0886 21.4062 30.1488 21.2791 30.2249 21.1618C30.2691 21.0884 30.3177 21.0177 30.3704 20.9502C30.4255 20.8819 30.4843 20.8167 30.5464 20.7547C30.6777 20.6219 30.8353 20.518 31.009 20.4498C31.1766 20.3837 31.358 20.3601 31.537 20.3812C31.7215 20.4032 31.8958 20.4782 32.0388 20.5972C32.1738 20.7035 32.2803 20.8419 32.3486 20.9998C32.3864 21.0817 32.4199 21.1654 32.449 21.2508C32.6243 21.1974 32.8099 21.1869 32.9901 21.2201C33.2531 21.2439 33.5032 21.3454 33.7087 21.5119C33.9013 21.6607 34.0452 21.864 34.1218 22.0955C34.1932 22.3181 34.2121 22.5543 34.1771 22.7855C34.1413 23.0253 34.0614 23.2564 33.9414 23.4669C33.8898 23.5522 33.8314 23.6332 33.7669 23.7091Z" fill="#1A4151"/>
<path d="M37.4789 19.4461L37.0789 19.8838L34.7108 17.656L35.5443 21.5236L35.1909 21.9029L32.014 18.9282L32.4155 18.4905L34.7719 20.6964L33.9486 16.8448L34.3036 16.4626L37.4789 19.4461Z" fill="#1A4151"/>
<path d="M40.4491 16.6522L40.0128 17.049L38.7254 15.6295C38.6419 16.0151 38.4436 16.3661 38.1567 16.6362C37.9395 16.8374 37.6713 16.9747 37.3814 17.033C37.0945 17.0919 36.7975 17.0778 36.5174 16.9921C36.2341 16.9071 35.9798 16.745 35.7828 16.5238L35.0337 15.6995L35.4701 15.3027L36.2177 16.127C36.3465 16.2712 36.5119 16.3776 36.6963 16.4348C36.8778 16.4906 37.0702 16.5001 37.2563 16.4626C37.4455 16.4213 37.6205 16.3308 37.7637 16.2002C37.907 16.0696 38.0134 15.9035 38.0723 15.7185C38.127 15.5362 38.1355 15.3432 38.0971 15.1568C38.0576 14.9668 37.9671 14.7912 37.8352 14.6491L37.089 13.8248L37.5254 13.428L40.4491 16.6522Z" fill="#1A4151"/>
<path d="M43.1663 14.4667L40.9844 16.181L38.308 12.7467L40.4899 11.0324L40.8535 11.4963L39.1255 12.8488L39.7204 13.6118L41.4528 12.2579L41.815 12.7233L40.0913 14.0743L41.0877 15.3523L42.8056 14.0086L43.1663 14.4667Z" fill="#1A4151"/>
<path d="M45.3803 12.9057C45.0619 13.122 44.6907 13.2471 44.3068 13.2675C43.9307 13.2882 43.5556 13.2119 43.2173 13.0458C42.8736 12.875 42.581 12.6163 42.3688 12.2959C42.1565 11.9755 42.0323 11.6046 42.0085 11.2207C41.9881 10.8432 42.0637 10.4666 42.2282 10.1265C42.3964 9.77966 42.656 9.48555 42.9787 9.2759C43.216 9.11476 43.4839 9.0045 43.7657 8.95202C44.0866 8.90073 44.4143 8.91063 44.7315 8.9812L44.618 9.56477C44.3748 9.50842 44.1231 9.49852 43.8762 9.53559C43.6707 9.57448 43.4752 9.65489 43.3016 9.77194C43.0661 9.92524 42.8773 10.1408 42.7562 10.3949C42.6353 10.6427 42.5802 10.9176 42.5962 11.1929C42.614 11.4731 42.7047 11.7437 42.8594 11.9777C43.0141 12.2117 43.2273 12.4009 43.4777 12.5264C43.7252 12.6462 43.9988 12.7014 44.2733 12.6869C44.5168 12.6711 44.7536 12.5997 44.9653 12.4781C45.1771 12.3564 45.3583 12.1878 45.4952 11.9851C45.6242 11.7726 45.7134 11.5383 45.7584 11.2936L46.3316 11.4103C46.2729 11.7305 46.155 12.0368 45.9839 12.3134C45.8237 12.549 45.6186 12.7503 45.3803 12.9057Z" fill="#1A4151"/>
<path d="M50.5906 9.82443C50.2204 10.0464 49.7971 10.1634 49.3658 10.1629C48.9897 10.1518 48.6226 10.0444 48.2996 9.85069C47.9684 9.65455 47.6972 9.37093 47.5156 9.03077L47.488 8.97971C47.3944 9.04676 47.2973 9.10862 47.197 9.16499C47.0821 9.23648 46.9701 9.30213 46.8596 9.36194L46.7141 9.44219L47.7643 11.3826L47.248 11.6656L45.1577 7.84466L45.6741 7.56017L46.4218 8.92718L46.8509 8.69084C47.0821 8.56526 47.277 8.38181 47.4167 8.15833C47.553 7.94088 47.6372 7.69467 47.6625 7.43907C47.6793 7.13417 47.6219 6.82975 47.4952 6.55204L48.0131 6.27631C48.1835 6.63336 48.2672 7.02582 48.2574 7.42157C48.2379 7.75651 48.1419 8.08247 47.9767 8.37425C47.9374 8.44428 47.9113 8.4895 47.8982 8.50701L48.032 8.75211C48.1639 9.00046 48.3611 9.20784 48.6022 9.35173C48.8384 9.49331 49.1068 9.57214 49.3818 9.58078C49.7093 9.57695 50.0297 9.48527 50.3099 9.31526L50.5906 9.82443Z" fill="#1A4151"/>
<path d="M52.7987 8.80465C52.448 8.96344 52.0606 9.02249 51.6787 8.97535C51.3047 8.93053 50.9483 8.79095 50.643 8.56977C50.3343 8.3414 50.0911 8.03545 49.9379 7.68275C49.7846 7.33005 49.7268 6.94307 49.7703 6.56082C49.8149 6.18575 49.9541 5.82827 50.1746 5.52206C50.4023 5.21244 50.7074 4.96849 51.059 4.81481C51.4107 4.66113 51.7965 4.60314 52.1776 4.6467C52.5514 4.69295 52.9076 4.83294 53.2133 5.05374C53.5211 5.28258 53.7637 5.58839 53.9168 5.94065C54.0699 6.29291 54.1283 6.67929 54.086 7.06123C54.0411 7.43648 53.9014 7.79402 53.6802 8.09999C53.4559 8.41105 53.1511 8.65471 52.7987 8.80465ZM52.5631 8.26631C52.8211 8.15682 53.0441 7.97812 53.2075 7.74985C53.3666 7.52615 53.4667 7.26565 53.4984 6.99266C53.5291 6.7145 53.4861 6.43313 53.3738 6.17696C53.2614 5.9208 53.0836 5.69892 52.8584 5.53373C52.6356 5.37356 52.3757 5.27312 52.1034 5.24195C51.8251 5.20991 51.5432 5.25228 51.2865 5.36477C51.0298 5.47725 50.8073 5.65584 50.6416 5.88242C50.4814 6.10668 50.3812 6.36837 50.3506 6.64252C50.3212 6.92041 50.3647 7.2012 50.4767 7.45708C50.5887 7.71297 50.7653 7.93508 50.9892 8.10145C51.2118 8.26197 51.4717 8.36244 51.7441 8.39323C52.0212 8.42644 52.302 8.38253 52.5558 8.26631H52.5631Z" fill="#1A4151"/>
<path d="M55.8911 7.5135L55.334 7.70025L53.9623 3.5671L56.5951 2.68298L56.7827 3.24321L54.6998 3.94204L55.8911 7.5135Z" fill="#1A4151"/>
<path d="M60.3378 6.11294C59.9672 6.21661 59.5753 6.21661 59.2047 6.11294C58.8419 6.0107 58.5114 5.8168 58.2447 5.54979C57.9752 5.2762 57.7823 4.9362 57.6855 4.56405C57.5887 4.1919 57.5914 3.80073 57.6934 3.42997C57.7953 3.06611 57.9886 2.73457 58.2548 2.46707C58.5278 2.19651 58.867 2.00292 59.2383 1.90584C59.6097 1.80876 59.9999 1.81162 60.3698 1.91414C60.732 2.01673 61.062 2.2106 61.3284 2.47729C61.5982 2.75073 61.7913 3.09066 61.8883 3.46282C61.9854 3.83498 61.9829 4.22622 61.8811 4.59711C61.7787 4.96107 61.5848 5.29259 61.3182 5.56C61.0481 5.83094 60.709 6.02222 60.3378 6.11294ZM60.1924 5.54542C60.4643 5.47723 60.7124 5.33541 60.9095 5.13546C61.1024 4.93972 61.2429 4.69837 61.3182 4.43371C61.3963 4.16337 61.3988 3.87672 61.3255 3.60504C61.2569 3.33207 61.1156 3.08295 60.9167 2.88433C60.7215 2.68991 60.4803 2.54835 60.2156 2.47291C59.9456 2.399 59.661 2.39742 59.3902 2.46833C59.1194 2.53925 58.8718 2.68017 58.6723 2.87703C58.4782 3.07262 58.337 3.31466 58.2621 3.58024C58.1872 3.85135 58.1872 4.1378 58.2621 4.40891C58.3296 4.68158 58.4705 4.93041 58.6694 5.12816C58.864 5.32262 59.1048 5.4642 59.3691 5.53958C59.6368 5.61679 59.9204 5.61931 60.1894 5.54688L60.1924 5.54542Z" fill="#1A4151"/>
<path d="M67.8842 4.67149L67.3023 4.75174L66.866 1.53041L65.0768 5.05082L64.5619 5.1223L63.9728 0.802408L64.5546 0.722166L64.991 3.93181L66.7787 0.43038L67.2936 0.360352L67.8842 4.67149Z" fill="#1A4151"/>
<path d="M74.3426 4.35781L73.7535 4.36656L73.7055 1.10148L72.2204 3.16149L70.6785 1.13941L70.7265 4.41179L70.1447 4.42054L70.0807 0.0627173L70.5971 0.053964L72.2131 2.17379L73.7579 0.00290057L74.2772 -0.00439453L74.3426 4.35781Z" fill="#1A4151"/>
<path d="M77.8248 4.56646L75.0538 4.37971L75.3448 0.0306396L78.1085 0.221759L78.0677 0.805332L75.8859 0.659439L75.8189 1.62671L78.0008 1.7726L77.9601 2.35618L75.7782 2.21028L75.6677 3.82824L77.8495 3.97413L77.8248 4.56646Z" fill="#1A4151"/>
<path d="M82.0185 5.10914L81.4366 5.02306L81.7552 2.83467L79.39 2.48744L79.0715 4.67584L78.4896 4.58976L79.1195 0.277161L79.7013 0.361779L79.4758 1.90533L81.8425 2.25109L82.0665 0.707545L82.6483 0.793621L82.0185 5.10914Z" fill="#1A4151"/>
<path d="M84.5218 5.63582L83.9399 5.50306L84.7807 1.82947L83.4032 1.51288L83.5356 0.940979L86.8651 1.70692L86.7342 2.27882L85.3538 1.96223L84.5218 5.63582Z" fill="#1A4151"/>
<path d="M90.1118 7.22901L89.5052 7.03497L89.4223 6.09834L87.3699 5.4462L86.7633 6.16399L86.1567 5.97141L89.1983 2.36639L89.6928 2.5225L90.1118 7.22901ZM89.3641 5.46079L89.1721 3.31032L87.7844 4.96329L89.3641 5.46079Z" fill="#1A4151"/>
<path d="M90.618 7.38948L90.842 6.84676C91.0166 6.91971 91.1475 6.91971 91.2348 6.84676C91.3328 6.67746 91.4155 6.49974 91.4821 6.31571L91.5432 6.16107L91.5533 6.12605L91.7061 5.74089C91.7512 5.63001 91.8079 5.50309 91.8748 5.36303C91.9507 5.20835 92.0455 5.06377 92.157 4.93264C92.4907 4.53461 92.9548 4.26876 93.4661 4.18275C93.8662 4.11238 94.278 4.16002 94.6516 4.31989L95.4764 4.66128L93.8181 8.69085L93.2756 8.46617L94.7098 4.97933L94.4189 4.85824C94.1624 4.75524 93.8838 4.72059 93.61 4.75766C93.3362 4.79473 93.0767 4.90226 92.8567 5.06978C92.6331 5.23734 92.46 5.46351 92.3563 5.72339L91.837 6.98536C91.7964 7.08669 91.7358 7.17874 91.6588 7.25596C91.5818 7.33318 91.49 7.39399 91.389 7.43471C91.2641 7.47983 91.1314 7.49908 90.9989 7.49131C90.8664 7.48354 90.7368 7.4489 90.618 7.38948Z" fill="#1A4151"/>
<path d="M96.3854 9.96743L94.4712 8.98119L96.4523 5.10919L96.9774 5.3791L96.2676 6.76654L97.6596 7.48141C97.9552 7.63596 98.1851 7.89244 98.3069 8.20359C98.3826 8.38848 98.4183 8.58739 98.4117 8.78716C98.4089 8.99035 98.3591 9.19012 98.2662 9.37073C98.175 9.55384 98.0437 9.71392 97.8822 9.83905C97.7258 9.96027 97.5452 10.0463 97.3527 10.0914C97.0262 10.173 96.681 10.1288 96.3854 9.96743ZM96.6531 9.44368C96.844 9.54176 97.066 9.55975 97.2702 9.49367C97.4744 9.4276 97.644 9.28288 97.7418 9.09134C97.8396 8.89981 97.8576 8.67716 97.7917 8.47237C97.7258 8.26758 97.5815 8.09742 97.3906 7.99933L95.9985 7.28446L95.261 8.72734L96.6531 9.44368Z" fill="#1A4151"/>
<path d="M101.21 12.7729L100.71 12.4607L101.874 10.5845L99.8372 9.31819L98.6735 11.1958L98.1819 10.8836L100.477 7.18231L100.978 7.49306L100.156 8.81777L102.192 10.0841L103.013 8.75942L103.513 9.07163L101.21 12.7729Z" fill="#1A4151"/>
<path d="M103.449 14.369C103.139 14.1403 102.898 13.831 102.751 13.4747C102.607 13.125 102.554 12.7445 102.597 12.3688C102.642 11.9874 102.787 11.6248 103.017 11.3175C103.247 11.0102 103.553 10.769 103.906 10.6181C104.254 10.4733 104.633 10.4201 105.007 10.4634C105.389 10.5069 105.752 10.6542 106.057 10.8894C106.366 11.118 106.606 11.4274 106.751 11.7838C106.896 12.1325 106.949 12.5129 106.905 12.8882C106.859 13.2695 106.714 13.6321 106.484 13.9394C106.255 14.2468 105.948 14.488 105.596 14.6389C105.248 14.7849 104.869 14.8382 104.495 14.7935C104.114 14.7508 103.752 14.604 103.449 14.369ZM103.801 13.9007C104.023 14.0724 104.287 14.1794 104.566 14.21C104.839 14.241 105.115 14.2023 105.369 14.0976C105.627 13.9886 105.852 13.8131 106.02 13.5889C106.189 13.3647 106.295 13.0998 106.329 12.8211C106.361 12.5466 106.323 12.2684 106.218 12.0128C106.11 11.7541 105.935 11.5289 105.711 11.3598C105.488 11.1907 105.224 11.0838 104.946 11.0499C104.672 11.0185 104.395 11.0576 104.141 11.1637C103.884 11.2735 103.659 11.4492 103.491 11.6732C103.322 11.8973 103.215 12.1617 103.18 12.4403C103.149 12.7145 103.188 12.9922 103.293 13.2471C103.399 13.5076 103.575 13.7338 103.801 13.9007Z" fill="#1A4151"/>
<path d="M106.09 16.4655L105.654 16.073L108.54 12.8138L110.617 14.6637L110.226 15.1014L108.589 13.6425L106.09 16.4655Z" fill="#1A4151"/>
<path d="M109.487 19.6649C109.218 19.3888 109.029 19.0442 108.941 18.6685C108.854 18.3011 108.862 17.9172 108.965 17.5538C109.072 17.1837 109.274 16.8485 109.552 16.582C109.83 16.3156 110.172 16.1274 110.546 16.0366C110.912 15.9501 111.295 15.9582 111.657 16.0599C112.027 16.1628 112.362 16.3645 112.626 16.6435C112.895 16.9179 113.083 17.2611 113.17 17.6355C113.258 18.0029 113.25 18.3868 113.147 18.7502C113.042 19.1232 112.84 19.4616 112.562 19.7307C112.284 19.9999 111.94 20.1901 111.564 20.282C111.198 20.3685 110.815 20.3604 110.453 20.2587C110.083 20.1531 109.749 19.9477 109.487 19.6649ZM109.91 19.2579C110.102 19.4629 110.346 19.6112 110.616 19.6868C110.881 19.7599 111.16 19.7654 111.427 19.7029C111.7 19.636 111.949 19.4982 112.151 19.3035C112.353 19.1089 112.5 18.8641 112.578 18.5941C112.652 18.329 112.658 18.0494 112.595 17.7814C112.528 17.5098 112.391 17.2607 112.197 17.0593C112.003 16.858 111.76 16.7115 111.491 16.6347C111.227 16.5587 110.947 16.5531 110.68 16.6187C110.408 16.6862 110.159 16.824 109.957 17.0183C109.755 17.2126 109.608 17.4566 109.529 17.726C109.455 17.9911 109.449 18.2706 109.512 18.5386C109.577 18.8111 109.715 19.0607 109.91 19.2608V19.2579Z" fill="#1A4151"/>
<path d="M113.262 24.0242C113.203 23.9457 113.15 23.8627 113.104 23.7762C113.015 23.5964 112.941 23.4089 112.885 23.2159C112.831 22.9828 112.834 22.7401 112.894 22.5084L113.486 22.5901C113.438 22.755 113.429 22.9288 113.459 23.0978C113.496 23.2239 113.545 23.346 113.605 23.4625C113.646 23.5349 113.691 23.6045 113.74 23.6711C113.791 23.7379 113.846 23.8008 113.906 23.8593C114.023 23.961 114.154 24.0441 114.296 24.1059C114.418 24.162 114.553 24.1875 114.687 24.1803C114.821 24.17 114.949 24.1191 115.054 24.0344C115.137 23.9743 115.207 23.898 115.26 23.81C115.313 23.722 115.348 23.6241 115.362 23.5223C115.394 23.3141 115.346 23.1013 115.228 22.9271L114.792 22.3435L115.259 21.9904L115.593 22.4281C115.683 22.5775 115.828 22.6858 115.996 22.7301C116.059 22.7399 116.124 22.7365 116.186 22.7202C116.248 22.7039 116.305 22.675 116.356 22.6353C116.404 22.5999 116.445 22.5546 116.475 22.5023C116.505 22.45 116.524 22.3919 116.53 22.3318C116.541 22.1954 116.508 22.0591 116.437 21.9423C116.401 21.8825 116.36 21.8212 116.313 21.7585C116.267 21.6957 116.217 21.6374 116.168 21.5776C116.04 21.451 115.871 21.3736 115.692 21.3587L115.771 20.7751C115.955 20.793 116.134 20.8471 116.297 20.9342C116.416 21.0086 116.524 21.0984 116.619 21.2012C116.678 21.2638 116.733 21.3295 116.785 21.3981C116.838 21.468 116.886 21.5411 116.93 21.6169C117.026 21.7774 117.088 21.9563 117.112 22.1422C117.133 22.3214 117.111 22.5032 117.046 22.6718C116.98 22.8467 116.865 22.9987 116.715 23.1094C116.578 23.2145 116.418 23.2837 116.248 23.3108C116.16 23.3284 116.071 23.3406 115.982 23.3472C115.99 23.5309 115.954 23.7139 115.878 23.8812C115.787 24.1344 115.621 24.3544 115.404 24.5129C115.214 24.6624 114.985 24.7522 114.744 24.7712C114.511 24.7863 114.278 24.7464 114.063 24.6544C113.841 24.5603 113.637 24.4258 113.464 24.2576C113.39 24.1856 113.322 24.1075 113.262 24.0242Z" fill="#1A4151"/>
<path d="M116.347 29.7388L116.031 29.2399L116.585 28.8883L114.891 26.2024L114.337 26.5554L114.022 26.0565L115.07 25.3912L115.299 25.7545C115.504 25.8169 115.72 25.8353 115.932 25.8085C116.167 25.7812 116.392 25.7004 116.591 25.5721L118.764 24.192L120.251 26.5481L117.073 28.5658L117.394 29.075L116.347 29.7388ZM116.758 28.0654L119.439 26.3643L118.581 25.0046L116.907 26.0696C116.447 26.3614 116.054 26.482 115.727 26.4314L116.758 28.0654Z" fill="#1A4151"/>
<path d="M118.095 31.6325C117.916 31.2907 117.835 30.906 117.861 30.5208C117.884 30.144 118.003 29.7794 118.206 29.4616C118.415 29.139 118.705 28.8773 119.047 28.7031C119.39 28.529 119.772 28.4484 120.155 28.4696C120.531 28.4926 120.894 28.6116 121.211 28.8153C121.533 29.0252 121.793 29.3164 121.967 29.6596C122.141 30.0029 122.221 30.386 122.2 30.7703C122.177 31.1471 122.058 31.5117 121.855 31.8295C121.646 32.1522 121.356 32.4138 121.013 32.588C120.671 32.7621 120.289 32.8427 119.906 32.8216C119.53 32.7983 119.166 32.6793 118.849 32.4758C118.525 32.269 118.265 31.9774 118.095 31.6325ZM118.617 31.367C118.741 31.6192 118.932 31.8322 119.169 31.9827C119.4 32.1306 119.666 32.2174 119.94 32.2351C120.22 32.2492 120.498 32.1892 120.748 32.0612C120.998 31.9331 121.21 31.7416 121.362 31.5056C121.51 31.2729 121.597 31.0064 121.615 30.7309C121.629 30.45 121.57 30.1703 121.442 29.9199C121.314 29.6695 121.123 29.4571 120.888 29.3041C120.656 29.1555 120.39 29.0687 120.116 29.0517C119.836 29.0378 119.557 29.0979 119.308 29.2259C119.058 29.354 118.847 29.5454 118.694 29.7811C118.546 30.0129 118.459 30.2792 118.443 30.5544C118.425 30.8372 118.485 31.1194 118.617 31.3699V31.367Z" fill="#1A4151"/>
<path d="M119.556 34.6656L119.337 34.1185L123.371 32.4933L124.172 34.4964C124.241 34.6672 124.274 34.8498 124.272 35.0337C124.27 35.2177 124.232 35.3994 124.159 35.5685C124.087 35.7375 123.982 35.8907 123.851 36.0191C123.72 36.1476 123.565 36.2489 123.394 36.3171C123.168 36.411 122.919 36.4398 122.677 36.4003C122.438 36.3637 122.212 36.2674 122.02 36.1202C121.824 35.9695 121.673 35.7676 121.583 35.5366L121.001 34.0777L119.556 34.6656ZM122.124 35.3222C122.204 35.5218 122.36 35.6814 122.558 35.7658C122.755 35.8502 122.978 35.8525 123.177 35.7722C123.376 35.6919 123.535 35.5356 123.619 35.3377C123.703 35.1397 123.706 34.9164 123.626 34.7167L123.044 33.2578L121.543 33.8618L122.124 35.3222Z" fill="#1A4151"/>
<path d="M121.48 39.909C121.365 39.5411 121.353 39.1486 121.444 38.774C121.532 38.4066 121.713 38.0681 121.969 37.7907C122.231 37.5098 122.562 37.303 122.929 37.1914C123.296 37.0797 123.686 37.067 124.059 37.1546C124.425 37.2437 124.762 37.4244 125.039 37.6798C125.323 37.941 125.53 38.275 125.637 38.6456C125.753 39.0125 125.765 39.4042 125.674 39.7777C125.585 40.1446 125.405 40.483 125.15 40.761C124.89 41.0453 124.557 41.2527 124.187 41.3607C123.821 41.4766 123.431 41.4892 123.058 41.3971C122.692 41.3085 122.354 41.1272 122.078 40.8705C121.795 40.6107 121.588 40.2782 121.48 39.909ZM122.042 39.7398C122.12 40.0094 122.271 40.2522 122.478 40.4415C122.68 40.6281 122.927 40.7601 123.194 40.8252C123.466 40.8923 123.751 40.8832 124.018 40.799C124.287 40.7194 124.53 40.5681 124.719 40.3613C124.906 40.1586 125.038 39.9116 125.103 39.6435C125.167 39.3698 125.158 39.084 125.077 38.815C124.995 38.546 124.844 38.3034 124.639 38.1116C124.437 37.9251 124.191 37.7931 123.924 37.7279C123.651 37.6626 123.365 37.6726 123.098 37.7571C122.829 37.8359 122.587 37.9873 122.398 38.1948C122.211 38.3967 122.079 38.6434 122.015 38.9111C121.947 39.1842 121.955 39.4707 122.037 39.7398H122.042Z" fill="#1A4151"/>
<path d="M122.712 44.6812L122.276 42.5672L126.53 41.6787L126.919 43.552C126.951 43.7005 126.951 43.8543 126.919 44.0028C126.886 44.1466 126.825 44.2825 126.74 44.4025C126.585 44.621 126.353 44.7715 126.091 44.8227C125.944 44.8556 125.792 44.8556 125.644 44.8227L125.426 44.7746C125.426 44.7746 125.407 44.8198 125.374 44.9073C125.354 44.9656 125.33 45.0222 125.301 45.0766C125.204 45.2526 125.071 45.4055 124.909 45.5247C124.748 45.6438 124.562 45.7264 124.366 45.7666C124.169 45.8083 123.966 45.8065 123.77 45.7614C123.574 45.7163 123.39 45.629 123.231 45.5055C122.962 45.3048 122.777 45.011 122.712 44.6812ZM123.294 44.5616C123.313 44.6686 123.353 44.7708 123.411 44.8621C123.47 44.9534 123.547 45.0319 123.637 45.0929C123.726 45.1539 123.827 45.1961 123.934 45.2172C124.04 45.2383 124.15 45.2377 124.256 45.2155C124.362 45.1933 124.462 45.1499 124.551 45.088C124.64 45.026 124.716 44.9467 124.774 44.8548C124.832 44.7629 124.871 44.6603 124.888 44.553C124.906 44.4458 124.902 44.336 124.876 44.2304L124.558 42.6956L122.974 43.0268L123.294 44.5616ZM125.403 43.87C125.416 43.9323 125.441 43.9914 125.477 44.0439C125.513 44.0965 125.558 44.1414 125.611 44.1762C125.664 44.2111 125.724 44.2351 125.786 44.2468C125.849 44.2586 125.913 44.258 125.975 44.245C126.037 44.2319 126.096 44.2068 126.148 44.1709C126.2 44.135 126.245 44.0892 126.28 44.0359C126.315 43.9827 126.339 43.9231 126.35 43.8606C126.362 43.7981 126.361 43.7339 126.348 43.6716L126.079 42.3775L125.134 42.5745L125.403 43.87Z" fill="#1A4151"/>
<path d="M123.393 48.8129L123.13 46.6712L127.444 46.1387L127.515 46.7222L125.972 46.9119L126.164 48.4686C126.202 48.8009 126.12 49.136 125.933 49.4125C125.821 49.5775 125.677 49.718 125.509 49.8254C125.34 49.9357 125.147 50.0056 124.946 50.0296C124.744 50.0566 124.538 50.0371 124.344 49.9727C124.157 49.9125 123.984 49.8131 123.838 49.681C123.586 49.4581 123.427 49.1481 123.393 48.8129ZM123.975 48.7414C124.016 48.941 124.13 49.1177 124.295 49.2365C124.461 49.3552 124.664 49.4073 124.866 49.3823C125.068 49.3573 125.252 49.257 125.384 49.1015C125.515 48.946 125.583 48.7466 125.575 48.543L125.383 46.9805L123.783 47.1789L123.975 48.7414Z" fill="#1A4151"/>
<path d="M123.783 54.5319L123.762 53.9484L125.316 53.8915L125.274 52.7477L123.674 51.5805L123.646 50.8306L125.246 51.9978C125.281 51.8543 125.344 51.719 125.431 51.5995C125.553 51.3906 125.723 51.2144 125.928 51.0859C126.129 50.9564 126.361 50.8838 126.6 50.8759C126.805 50.8673 127.008 50.9047 127.197 50.9853C127.44 51.0912 127.648 51.2634 127.799 51.4824C127.949 51.7014 128.035 51.9583 128.047 52.2239L128.125 54.3802L123.783 54.5319ZM125.9 53.8637L127.518 53.8054L127.46 52.2385C127.447 52.0269 127.353 51.8285 127.197 51.6859C127.04 51.5432 126.835 51.4676 126.623 51.4752C126.412 51.4829 126.212 51.5731 126.067 51.7267C125.921 51.8802 125.841 52.0849 125.844 52.2969L125.9 53.8637Z" fill="#1A4151"/>
<path d="M19.3169 60.8987C20.0689 60.8987 20.6784 60.2873 20.6784 59.5332C20.6784 58.779 20.0689 58.1676 19.3169 58.1676C18.565 58.1676 17.9554 58.779 17.9554 59.5332C17.9554 60.2873 18.565 60.8987 19.3169 60.8987Z" fill="#1A4151"/>
<path d="M126.136 60.8987C126.888 60.8987 127.498 60.2873 127.498 59.5332C127.498 58.779 126.888 58.1676 126.136 58.1676C125.384 58.1676 124.775 58.779 124.775 59.5332C124.775 60.2873 125.384 60.8987 126.136 60.8987Z" fill="#1A4151"/>
<path d="M51.9346 70.4503C49.4286 71.335 46.8611 72.0338 44.2529 72.5409L38.9873 70.1235L39.8746 63.1804L32.7166 59.9226L34.8228 53.2889L51.9346 70.4503Z" fill="#16343D"/>
<path d="M94.1555 70.4503C96.662 71.3352 99.23 72.034 101.839 72.5409L107.103 70.1235L106.216 63.1746L113.375 59.9168L111.273 53.2889L94.1555 70.4503Z" fill="#16343D"/>
<path d="M64.7263 70.4562C62.4673 70.1746 59.0229 69.7121 58.8992 69.5093C58.7072 69.2175 58.1065 65.4506 57.353 65.0508C56.5995 64.6511 53.8911 63.446 53.4474 63.2695C53.0038 63.0929 50.6939 61.7157 50.6939 61.7157L49.7615 59.5798C49.7615 59.5798 49.0531 58.0246 48.9178 57.9342C48.7826 57.8437 48.7389 57.5782 49.1826 57.263C49.6262 56.9479 49.1826 56.5978 49.1826 56.5978L43.8602 52.7258L44.8784 50.5563L64.7263 70.4562Z" fill="url(#paint3_linear_242_1166)"/>
<path d="M80.2031 70.2417C82.4621 69.9601 85.908 69.4976 86.0317 69.2948C86.2222 68.9957 86.823 65.2375 87.5764 64.8363C88.3299 64.4351 91.0384 63.2315 91.482 63.0564C91.9257 62.8814 94.2297 61.4998 94.2297 61.4998L95.1621 59.3639C95.1621 59.3639 95.8705 57.8087 96.0058 57.7182C96.1411 57.6278 96.1847 57.3637 95.741 57.0471C95.2974 56.7305 95.741 56.3818 95.741 56.3818L101.063 52.5098L100.045 50.3404L80.2031 70.2417Z" fill="url(#paint4_linear_242_1166)"/>
<path d="M34.8243 53.2889L31.217 56.9085L28.2787 59.8161L31.3508 62.5604L31.3944 66.3419L32.1043 64.298L34.1901 62.1154L36.3633 63.5831L39.4252 64.298L36.852 63.4503L39.8761 63.1804L32.7166 59.9226L36.0535 59.0444L38.6266 60.8987L35.6535 57.7547L36.6295 56.6415L38.0492 57.5314L38.2746 56.7495L34.8243 53.2889Z" fill="#E4E4E4"/>
<path d="M111.122 53.2889L114.729 56.9085L117.666 59.8161L114.594 62.5604L114.55 66.3419L113.84 64.298L111.755 62.1154L109.581 63.5831L106.52 64.298L109.093 63.4503L106.07 63.1804L113.228 59.9226L109.891 59.0444L107.318 60.8987L110.291 57.7547L109.315 56.6415L107.896 57.5314L107.67 56.7495L111.122 53.2889Z" fill="#E4E4E4"/>
<path d="M104.057 74.4084C103.365 74.0874 103.343 73.4557 103.231 72.8531C103.168 72.5482 102.96 72.4301 102.649 72.4694C102.272 72.5205 102.447 72.8196 102.423 73.0107C102.402 73.1799 102.525 73.3827 102.469 73.5126C102.261 73.9867 102.759 74.8096 101.778 74.9336C101.839 74.1545 101.632 73.428 101.401 72.7073C101.317 72.4476 101.216 72.1543 100.885 72.2958C100.418 72.4986 99.9288 72.538 99.4561 72.786C96.5847 74.2844 97.3149 74.865 94.1861 73.3215C94.0835 73.2703 93.9782 73.225 93.8705 73.1858C92.1061 72.5438 90.7126 71.3767 89.4151 70.0637C88.2734 69.3461 87.2287 68.4841 86.3066 67.4989C85.8237 67.0539 85.5793 66.3711 85.5037 65.5424C84.9131 63.4299 84.7226 61.3218 84.324 59.269C84.02 57.7182 84.0331 56.1119 83.6374 54.5742C83.3843 53.5923 83.0556 52.6513 82.0752 52.167C81.1235 51.662 80.0887 51.3338 79.0206 51.1982C78.1712 51.0921 77.3442 50.8503 76.571 50.4819C75.3579 49.9173 74.5041 49.0098 74.3353 47.6574C74.2175 46.7558 73.9644 45.6849 74.4473 44.9642C74.8837 44.315 75.5485 43.7635 76.0881 43.1318C77.038 42.0216 77.8642 41.047 76.9609 39.5414C76.91 39.4568 77.0336 39.2875 77.0394 39.1533C77.1689 36.4586 77.0278 33.8822 74.1899 32.4626C75.4656 31.0314 75.5616 28.8547 74.3702 27.7109C73.7637 27.1273 72.8138 26.7918 71.8858 26.7874C70.9578 26.783 70.0094 27.1244 69.4028 27.7109C68.2115 28.8547 68.3061 31.0314 69.5817 32.4626C66.7438 33.8822 66.6042 36.4586 66.7337 39.1533C66.7337 39.2875 66.8631 39.4568 66.8122 39.5414C65.9133 41.047 66.7395 42.0216 67.685 43.1318C68.2246 43.7635 68.8937 44.315 69.3257 44.9642C69.8101 45.6849 69.557 46.7558 69.4392 47.6574C69.2705 49.0098 68.421 49.9173 67.202 50.4819C66.4301 50.8458 65.6051 51.0837 64.7583 51.1866C63.6873 51.3215 62.6495 51.6497 61.695 52.1553C60.7233 52.6397 60.3858 53.5807 60.1327 54.5625C59.7342 56.1002 59.7516 57.7065 59.4476 59.2574C59.0491 61.3145 58.8571 63.4226 58.2679 65.5308C58.1894 66.3594 57.9465 67.0422 57.4636 67.4872C56.5423 68.4728 55.498 69.3348 54.3565 70.052C53.0576 71.365 51.6641 72.5322 49.8997 73.1741C49.7925 73.2133 49.6876 73.2586 49.5855 73.3098C46.4552 74.8533 47.1854 74.2727 44.3141 72.7744C43.8428 72.5263 43.354 72.4826 42.8871 72.2842C42.5555 72.1383 42.4507 72.4301 42.3693 72.6956C42.1453 73.4163 41.9329 74.1428 41.994 74.9219C41.0049 74.7979 41.5096 73.9751 41.3016 73.5009C41.2463 73.3711 41.37 73.1683 41.3467 72.999C41.3249 72.8079 41.4994 72.5088 41.1227 72.4578C40.8129 72.4184 40.6049 72.5366 40.5409 72.8415C40.4289 73.444 40.4056 74.0757 39.7146 74.3967C39.5066 74.493 39.6419 74.8139 39.7423 75.0284C40.0783 75.6922 40.5801 76.1591 41.2929 76.305C42.7373 76.6099 44.1919 76.9469 45.6756 76.9469C47.5811 76.9469 49.4182 76.4348 51.2335 75.8994C53.6089 75.2029 55.8736 74.1713 57.9596 72.8356C59.1232 72.0857 60.1284 71.0849 61.0142 69.9893L62.4499 65.363C62.8029 63.8973 63.1607 62.4315 63.5234 60.9658C63.759 62.5327 64.479 63.9595 64.7816 65.4972C65.2703 66.9795 65.5918 68.4851 65.5089 70.0578C65.9351 71.241 65.6718 72.4023 65.4187 73.5593C64.946 75.701 63.7663 77.4809 62.5692 79.2491C62.1255 79.9085 61.6702 80.1857 60.8106 79.8589C58.6083 79.0244 56.3712 78.2745 54.1296 77.5363C51.8256 76.7704 49.504 76.5778 47.1214 77.2825C44.5032 78.0542 43.4297 80.8393 44.9803 83.0773C46.2327 84.9127 48.1542 85.788 50.0931 86.5977C51.6612 87.2513 53.3412 87.619 54.9137 88.2274C57.3414 89.1742 59.8767 89.6863 62.3932 90.2567C62.9619 90.3851 64.2536 90.5485 64.3103 90.566C65.0623 90.566 67.7606 90.8709 71.0189 89.9401C71.5945 89.8192 72.1888 89.8192 72.7644 89.9401C76.0241 90.8709 78.7282 90.566 79.4744 90.566C79.5297 90.5441 80.8228 90.3851 81.3901 90.2567C83.908 89.6819 86.4419 89.1742 88.8696 88.2274C90.4435 87.619 92.1235 87.2513 93.6916 86.5977C95.6305 85.7807 97.552 84.9068 98.8044 83.0875C100.356 80.8495 99.283 78.0644 96.6633 77.2927C94.2807 76.588 91.9606 76.7806 89.6565 77.5465C87.415 78.2847 85.1778 79.0346 82.9756 79.8691C82.1159 80.1959 81.6665 79.9187 81.2155 79.2593C80.0199 77.4838 78.8387 75.7039 78.3675 73.5695C78.1144 72.4023 77.8496 71.2469 78.2773 70.068C78.1929 68.4953 78.5129 66.9897 79.0046 65.5074C79.3086 63.9697 80.0228 62.5429 80.2642 60.976C80.624 62.4417 80.9818 63.9075 81.3377 65.3732C81.8148 66.9168 82.2924 68.4608 82.7705 70.0053C83.6578 71.0995 84.6615 72.1018 85.8251 72.8517C87.9116 74.1874 90.1768 75.2189 92.5526 75.9154C94.3665 76.4509 96.2051 76.963 98.1091 76.963C99.5928 76.963 101.049 76.6259 102.493 76.321C103.2 76.1751 103.706 75.7068 104.032 75.0474C104.13 74.8183 104.264 74.4974 104.057 74.4084ZM43.6639 74.4871C43.6511 74.5296 43.6292 74.5688 43.5999 74.6019C43.5705 74.6351 43.5343 74.6615 43.4938 74.6792C43.4532 74.697 43.4093 74.7057 43.3651 74.7048C43.3209 74.7039 43.2774 74.6933 43.2377 74.6739C42.7533 74.4259 42.9467 74.0261 42.9846 73.5345C43.3715 73.8321 43.7424 74.0188 43.6639 74.4798V74.4871ZM100.538 74.6739C100.498 74.6933 100.455 74.7039 100.411 74.7048C100.366 74.7057 100.322 74.697 100.282 74.6793C100.241 74.6615 100.205 74.6352 100.175 74.602C100.146 74.5688 100.124 74.5297 100.111 74.4871C100.032 74.0261 100.402 73.8394 100.791 73.5345C100.837 74.0188 101.027 74.4186 100.544 74.6666L100.538 74.6739Z" fill="url(#paint5_radial_242_1166)"/>
<g opacity="0.9">
<g clip-path="url(#clip1_242_1166)">
<g filter="url(#filter0_d_242_1166)">
<path d="M71.8816 56.3989C71.7719 56.2927 70.6897 55.2776 69.5226 55.5866C68.2906 55.911 67.6693 57.524 67.8268 58.6912C67.9776 59.8182 68.8021 60.132 70.7021 62.5716C71.2279 63.2471 71.6345 63.8249 71.9007 64.2162C72.1336 63.8422 72.4886 63.2911 72.9505 62.6453C74.8285 60.0277 75.7494 59.6795 75.863 58.4692C75.9727 57.3001 75.2904 55.7445 74.0928 55.4938C72.9839 55.2614 71.9933 56.2803 71.8816 56.3989Z" fill="#739CB9"/>
</g>
<path d="M71.868 57.5666C71.7949 57.4963 71.0721 56.8263 70.2939 57.0295C69.4715 57.2491 69.0575 58.309 69.1627 59.08C69.2634 59.8247 69.8124 60.0323 71.081 61.6424C71.4318 62.0884 71.703 62.4706 71.8801 62.7287C72.0362 62.4816 72.272 62.118 72.5808 61.6919C73.8316 59.9653 74.4492 59.7303 74.5245 58.934C74.5976 58.1651 74.1393 57.1349 73.3434 56.9691C72.6018 56.8142 71.9421 57.4886 71.868 57.5666Z" fill="#A4BECD"/>
</g>
<path style="mix-blend-mode:screen" opacity="0.15" d="M72.0036 62.3285C73.7412 62.3285 75.1499 60.9156 75.1499 59.1728C75.1499 57.43 73.7412 56.0172 72.0036 56.0172C70.2659 56.0172 68.8573 57.43 68.8573 59.1728C68.8573 60.9156 70.2659 62.3285 72.0036 62.3285Z" fill="url(#paint6_radial_242_1166)"/>
<path style="mix-blend-mode:screen" opacity="0.5" d="M72.0037 60.7499C72.8721 60.7499 73.5761 60.0438 73.5761 59.1728C73.5761 58.3018 72.8721 57.5957 72.0037 57.5957C71.1353 57.5957 70.4313 58.3018 70.4313 59.1728C70.4313 60.0438 71.1353 60.7499 72.0037 60.7499Z" fill="url(#paint7_radial_242_1166)"/>
<path style="mix-blend-mode:screen" d="M72.0036 60.4873C72.7274 60.4873 73.3142 59.8988 73.3142 59.1728C73.3142 58.4468 72.7274 57.8583 72.0036 57.8583C71.2798 57.8583 70.693 58.4468 70.693 59.1728C70.693 59.8988 71.2798 60.4873 72.0036 60.4873Z" fill="url(#paint8_radial_242_1166)"/>
<g style="mix-blend-mode:screen" opacity="0.03">
<path d="M72.0036 59.1728L75.3143 60.2509M72.0036 59.1728L68.6915 58.0946M72.0036 59.1728L70.9287 62.4948M72.0036 59.1728L73.0786 55.8508M72.0036 59.1728L77.3842 62.2001M72.0036 59.1728L66.6231 56.1455M72.0036 59.1728L68.9854 64.5694M72.0036 59.1728L75.0219 53.7762M72.0036 59.1728L76.5783 60.8258M72.0036 59.1728L67.4289 57.5198M72.0036 59.1728L70.3556 63.7611M72.0036 59.1728L73.6517 54.5845M72.0036 59.1728L72.4211 65.1325M72.0036 59.1728L71.5862 53.2131M72.0036 59.1728L66.0616 59.5915M72.0036 59.1728L77.9456 58.7541M72.0036 59.1728L72.8909 60.0336M72.0036 59.1728L71.1163 58.312M72.0036 59.1728L71.1454 60.0627M72.0036 59.1728L72.8618 58.2828M72.0036 59.1728L74.2582 63.0652M72.0036 59.1728L69.7476 55.2818M72.0036 59.1728L68.1228 61.4356M72.0036 59.1728L75.883 56.91M72.0036 59.1728L74.7906 60.9731M72.0036 59.1728L69.2166 57.3725M72.0036 59.1728L70.2087 61.9681M72.0036 59.1728L73.7986 56.3775M72.0036 59.1728L72.2131 59.9373M72.0036 59.1728L71.7942 58.4083M72.0036 59.1728L71.24 59.3829M72.0036 59.1728L72.7658 58.9627M72.0036 59.1728L74.7353 66.2807M72.0036 59.1728L69.2719 52.0663M72.0036 59.1728L64.9169 61.9127M72.0036 59.1728L79.0889 56.4329M72.0036 59.1728L71.7854 60.1736M72.0036 59.1728L72.2204 58.172M72.0036 59.1728L71.0058 58.9554M72.0036 59.1728L73.0015 59.3916M72.0036 59.1728L78.4096 62.2672M72.0036 59.1728L65.5962 56.0784M72.0036 59.1728L68.9184 65.5994M72.0036 59.1728L75.0888 52.7477M72.0036 59.1728L78.4707 62.8085M72.0036 59.1728L65.5365 55.5386M72.0036 59.1728L68.3788 65.6592M72.0036 59.1728L75.627 52.6864M72.0036 59.1728L72.1767 60.6449M72.0036 59.1728L71.8291 57.7007M72.0036 59.1728L70.536 59.3479M72.0036 59.1728L73.4713 58.9992M72.0036 59.1728L73.1208 59.5696M72.0036 59.1728L70.8865 58.7774M72.0036 59.1728L71.608 60.2933M72.0036 59.1728L72.3993 58.0523M72.0036 59.1728L72.1287 63.7363M72.0036 59.1728L71.8785 54.6093M72.0036 59.1728L67.4537 59.2983M72.0036 59.1728L76.5536 59.0473" stroke="white" stroke-width="0.1" stroke-miterlimit="10"/>
</g>
</g>
</g>
<defs>
<filter id="filter0_d_242_1166" x="66.8027" y="54.4595" width="10.0718" height="10.7568" filterUnits="userSpaceOnUse" color-interpolation-filters="sRGB">
<feFlood flood-opacity="0" result="BackgroundImageFix"/>
<feColorMatrix in="SourceAlpha" type="matrix" values="0 0 0 0 0 0 0 0 0 0 0 0 0 0 0 0 0 0 127 0" result="hardAlpha"/>
<feOffset/>
<feGaussianBlur stdDeviation="0.5"/>
<feComposite in2="hardAlpha" operator="out"/>
<feColorMatrix type="matrix" values="0 0 0 0 0.520802 0 0 0 0 0.699373 0 0 0 0 0.826923 0 0 0 1 0"/>
<feBlend mode="normal" in2="BackgroundImageFix" result="effect1_dropShadow_242_1166"/>
<feBlend mode="normal" in="SourceGraphic" in2="effect1_dropShadow_242_1166" result="shape"/>
</filter>
<radialGradient id="paint0_radial_242_1166" cx="0" cy="0" r="1" gradientUnits="userSpaceOnUse" gradientTransform="translate(71.8886 35.1707) scale(31.8701 43.153)">
<stop offset="0.17" stop-color="#224150"/>
<stop offset="1" stop-color="#1A4151"/>
</radialGradient>
<linearGradient id="paint1_linear_242_1166" x1="73.176" y1="58.5834" x2="73.176" y2="58.6563" gradientUnits="userSpaceOnUse">
<stop offset="0.11" stop-color="#7EAB69"/>
<stop offset="1" stop-color="#4D674E"/>
</linearGradient>
<linearGradient id="paint2_linear_242_1166" x1="73.0946" y1="58.5834" x2="73.0946" y2="58.6563" gradientUnits="userSpaceOnUse">
<stop offset="0.11" stop-color="#7EAB69"/>
<stop offset="1" stop-color="#4D674E"/>
</linearGradient>
<linearGradient id="paint3_linear_242_1166" x1="43.8602" y1="60.5048" x2="64.7205" y2="60.5048" gradientUnits="userSpaceOnUse">
<stop offset="0.15" stop-color="#556E57"/>
<stop offset="0.55" stop-color="#A6B593"/>
</linearGradient>
<linearGradient id="paint4_linear_242_1166" x1="101.063" y1="60.2918" x2="80.2046" y2="60.2918" gradientUnits="userSpaceOnUse">
<stop offset="0.15" stop-color="#556E57"/>
<stop offset="0.55" stop-color="#A6B593"/>
</linearGradient>
<radialGradient id="paint5_radial_242_1166" cx="0" cy="0" r="1" gradientUnits="userSpaceOnUse" gradientTransform="translate(72.4589 60.9351) scale(44.5483 44.6812)">
<stop stop-color="#4E88B3"/>
<stop offset="0.2" stop-color="#3D6C8B"/>
<stop offset="0.58" stop-color="#213A4C"/>
<stop offset="0.91" stop-color="#1D333C"/>
</radialGradient>
<radialGradient id="paint6_radial_242_1166" cx="0" cy="0" r="1" gradientUnits="userSpaceOnUse" gradientTransform="translate(72.0036 59.1728) scale(3.14628 3.15567)">
<stop stop-color="#340000"/>
<stop offset="0.73" stop-color="#774B3E"/>
<stop offset="1" stop-color="#340000"/>
</radialGradient>
<radialGradient id="paint7_radial_242_1166" cx="0" cy="0" r="1" gradientUnits="userSpaceOnUse" gradientTransform="translate(72.0037 59.1728) scale(1.57241 1.5771)">
<stop offset="0.15" stop-color="white"/>
<stop offset="0.21" stop-color="#DBD1D1"/>
<stop offset="0.29" stop-color="#B09A9C"/>
<stop offset="0.36" stop-color="#917275"/>
<stop offset="0.42" stop-color="#7E5A5D"/>
<stop offset="0.45" stop-color="#775154"/>
<stop offset="0.49" stop-color="#6E4649"/>
<stop offset="0.65" stop-color="#4F2021"/>
<stop offset="0.77" stop-color="#3B0909"/>
<stop offset="0.85" stop-color="#340000"/>
<stop offset="0.86" stop-color="#380302"/>
<stop offset="0.87" stop-color="#450D0A"/>
<stop offset="0.88" stop-color="#763326"/>
<stop offset="0.89" stop-color="#9B4F3B"/>
<stop offset="0.9" stop-color="#AE5D46"/>
<stop offset="0.92" stop-color="#894031"/>
<stop offset="0.93" stop-color="#6A291F"/>
<stop offset="0.95" stop-color="#521711"/>
<stop offset="0.96" stop-color="#410A08"/>
<stop offset="0.98" stop-color="#370202"/>
<stop offset="1" stop-color="#340000"/>
</radialGradient>
<radialGradient id="paint8_radial_242_1166" cx="0" cy="0" r="1" gradientUnits="userSpaceOnUse" gradientTransform="translate(72.0036 59.1728) scale(1.31058 1.3145)">
<stop offset="0.15" stop-color="white"/>
<stop offset="0.28" stop-color="#C2C2C2"/>
<stop offset="0.43" stop-color="#888888"/>
<stop offset="0.56" stop-color="#575757"/>
<stop offset="0.69" stop-color="#313131"/>
<stop offset="0.81" stop-color="#161616"/>
<stop offset="0.92" stop-color="#060606"/>
<stop offset="1"/>
</radialGradient>
<clipPath id="clip0_242_1166">
<rect width="144" height="120" fill="white"/>
</clipPath>
<clipPath id="clip1_242_1166">
<rect width="9.36323" height="10.0541" fill="white" transform="translate(67.157 54.8109)"/>
</clipPath>
</defs>
</svg>
