<svg width="30" height="30" viewBox="0 0 30 30" fill="none" xmlns="http://www.w3.org/2000/svg">
<g clip-path="url(#clip0_4205_74)">
<path d="M14.5894 7.9374C14.6363 7.93884 14.6835 7.93952 14.7305 7.93952H14.7306C16.3966 7.93952 18.2043 7.00029 19.3354 5.54706C20.503 4.04911 21.0335 2.25218 20.7909 0.616886C20.7355 0.24341 20.4008 -0.0252039 20.0253 0.00187916C18.3835 0.116862 16.5248 1.11517 15.4003 2.48581C14.1768 3.97576 13.6163 5.79235 13.9009 7.34514C13.9623 7.68006 14.249 7.9267 14.5894 7.9374ZM16.5178 3.40316C17.2152 2.55308 18.3442 1.85085 19.4019 1.56923C19.3516 3.00761 18.5706 4.17691 18.195 4.65881C17.4648 5.59679 16.342 6.27175 15.271 6.44822C15.2923 5.01783 16.2048 3.78444 16.5178 3.40316Z" fill="white"/>
<path d="M27.2385 21.8149C27.162 21.6308 27.0127 21.4866 26.8261 21.4162C23.8492 20.2937 22.9169 17.0675 23.7605 14.7215C24.1775 13.5579 24.998 12.6122 26.1332 11.9867C26.32 11.8837 26.4518 11.7035 26.4934 11.4943C26.5349 11.285 26.4818 11.0681 26.3485 10.9016C24.8398 9.01872 22.6951 7.89463 20.6114 7.89463C19.1526 7.89463 18.1651 8.26916 17.2938 8.59956C16.652 8.84292 16.0978 9.05313 15.4625 9.05313C14.7597 9.05313 14.1187 8.82355 13.3764 8.55763C12.5087 8.2468 11.5253 7.89453 10.2963 7.89453C7.92751 7.89453 5.52686 9.32704 4.03026 11.6344C3.47645 12.4927 3.08813 13.5529 2.87561 14.7868C2.27776 18.2972 3.29073 22.4801 5.58565 25.9767C6.88708 27.9554 8.5271 29.981 10.8217 30.0005L10.8686 30.0007C11.8244 30.0007 12.4674 29.7135 13.0893 29.4358C13.7464 29.1423 14.3671 28.865 15.4914 28.8594L15.5284 28.8593C16.6315 28.8593 17.2325 29.135 17.8688 29.427C18.4784 29.7067 19.1089 29.9959 20.0622 29.9959L20.1058 29.9956C22.3546 29.9765 24.0576 27.8459 25.4285 25.7621C26.271 24.4715 26.5919 23.8118 27.2307 22.3885C27.3122 22.2066 27.315 21.999 27.2385 21.8149ZM24.2192 24.9698C23.1273 26.6296 21.6715 28.5366 20.0927 28.5501L20.0621 28.5502C19.4245 28.5502 19.0039 28.3572 18.4715 28.1129C17.7924 27.8013 16.9472 27.4136 15.5282 27.4136L15.4836 27.4137C14.0553 27.4208 13.1926 27.8061 12.4995 28.1158C11.9501 28.3613 11.5161 28.5551 10.8685 28.5551L10.8349 28.555C9.20977 28.5411 7.8214 26.7453 6.79379 25.183C4.69461 21.9846 3.76261 18.1891 4.30051 15.031C4.47958 13.9911 4.79735 13.1121 5.24408 12.4197C6.47611 10.5202 8.41202 9.34024 10.2963 9.34024C11.2741 9.34024 12.0585 9.62119 12.8889 9.91863C13.6852 10.2039 14.5086 10.4988 15.4625 10.4988C16.3628 10.4988 17.0967 10.2205 17.8065 9.9513C18.5985 9.65088 19.4177 9.34024 20.6115 9.34024C22.0321 9.34024 23.5075 10.0243 24.6799 11.2006C23.6195 11.9736 22.8388 13.0083 22.4 14.2328C21.2557 17.4149 22.6878 20.9431 25.6127 22.4557C25.178 23.3986 24.8691 23.974 24.2192 24.9698Z" fill="white"/>
</g>
<defs>
<clipPath id="clip0_4205_74">
<rect width="30" height="30" fill="white"/>
</clipPath>
</defs>
</svg>
