<svg width="30" height="30" viewBox="0 0 30 30" fill="none" xmlns="http://www.w3.org/2000/svg">
<g clip-path="url(#clip0_4205_46)">
<path d="M12.5128 2.66313C12.3829 2.54969 12.2104 2.49778 12.0392 2.5211L0.517149 4.08567C0.220664 4.12592 -0.000351144 4.37928 4.18821e-07 4.67852L0.0107817 14.0422C0.0111918 14.372 0.278555 14.6391 0.608379 14.6391H12.1196C12.4496 14.6391 12.7172 14.3716 12.7172 14.0415V3.11325C12.7172 2.94075 12.6427 2.77657 12.5128 2.66313ZM11.5221 13.4439H1.20527L1.19584 5.19977L11.5221 3.79756V13.4439Z" fill="white"/>
<path d="M12.1185 15.3633H0.60541C0.446914 15.3633 0.294863 15.4263 0.182832 15.5383C0.0708008 15.6503 0.0078125 15.8024 0.0078125 15.9609L0.00828125 25.4196C0.00828125 25.7183 0.228887 25.971 0.524727 26.0116L12.0374 27.5896C12.0645 27.5933 12.0916 27.5951 12.1186 27.5951C12.2621 27.5951 12.4019 27.5434 12.5113 27.448C12.6414 27.3345 12.7161 27.1702 12.7161 26.9976V15.9609C12.7161 15.6308 12.4485 15.3633 12.1185 15.3633ZM11.521 26.3125L1.20354 24.8983L1.20312 16.5584H11.521V26.3125Z" fill="white"/>
<path d="M29.8244 15.5384C29.7123 15.4263 29.5603 15.3633 29.4018 15.3633H14.039C13.709 15.3633 13.4414 15.6308 13.4414 15.9609V27.2423C13.4414 27.5402 13.6607 27.7925 13.9557 27.834L29.3145 29.9947C29.3422 29.9986 29.3701 30.0005 29.3978 30.0005C29.5409 30.0005 29.6803 29.9491 29.7898 29.854C29.9204 29.7405 29.9954 29.5761 29.9954 29.4031L29.9994 15.9611C29.9994 15.8025 29.9364 15.6505 29.8244 15.5384ZM28.8004 28.7154L14.6366 26.7229V16.5585H28.804L28.8004 28.7154Z" fill="white"/>
<path d="M27.0345 26.3613L26.6184 26.3028C26.2913 26.2566 25.9894 26.4845 25.9434 26.8113C25.8975 27.1382 26.1251 27.4404 26.452 27.4863L26.8681 27.5449C26.8963 27.5489 26.9244 27.5508 26.9521 27.5508C27.2452 27.5508 27.5011 27.3349 27.5431 27.0363C27.5891 26.7095 27.3614 26.4073 27.0345 26.3613Z" fill="white"/>
<path d="M24.6461 26.0253L16.3997 24.8653C16.0731 24.8193 15.7706 25.047 15.7246 25.3738C15.6787 25.7006 15.9063 26.0029 16.2332 26.0488L24.4796 27.2089C24.5078 27.2128 24.5359 27.2148 24.5636 27.2148C24.8567 27.2148 25.1126 26.999 25.1547 26.7003C25.2006 26.3735 24.973 26.0713 24.6461 26.0253Z" fill="white"/>
<path d="M29.7887 0.145618C29.6575 0.0321216 29.4834 -0.0187378 29.3118 0.00622317L13.953 2.24099C13.6593 2.2837 13.4414 2.53554 13.4414 2.83238V14.0397C13.4414 14.3697 13.709 14.6373 14.039 14.6373H29.3978C29.7278 14.6373 29.9954 14.3697 29.9953 14.0397V0.59761C29.9954 0.424114 29.92 0.259114 29.7887 0.145618ZM28.8002 13.4421H14.6367V3.34929L28.8002 1.28849V13.4421Z" fill="white"/>
</g>
<defs>
<clipPath id="clip0_4205_46">
<rect width="30" height="30" fill="white"/>
</clipPath>
</defs>
</svg>
